Akt-700.ufo
<glyph name="exclam" format="2">
  <advance width="320"/>
  <unicode hex="0021"/>
  <outline>
    <contour>
      <point x="106" y="240" type="line"/>
      <point x="214" y="240" type="line"/>
      <point x="230" y="487" type="line"/>
      <point x="230" y="720" type="line"/>
      <point x="90" y="720" type="line"/>
      <point x="90" y="487" type="line"/>
    </contour>
    <component base="period"/>
  </outline>
</glyph>
<glyph name="quotesingle" format="2">
  <advance width="290"/>
  <unicode hex="0027"/>
  <outline>
    <contour>
      <point x="88" y="400" type="line"/>
      <point x="202" y="400" type="line"/>
      <point x="202" y="720" type="line"/>
      <point x="88" y="720" type="line"/>
    </contour>
  </outline>
</glyph>
<glyph name="parenleft" format="2">
  <advance width="400"/>
  <unicode hex="0028"/>
  <outline>
    <contour>
      <point x="400" y="-240" type="qcurve"/>
      <point x="400" y="-120" type="line"/>
      <point x="352" y="-120"/>
      <point x="258" y="-46"/>
      <point x="202" y="79"/>
      <point x="182" y="210"/>
      <point x="182" y="280" type="qcurve" smooth="yes"/>
      <point x="182" y="320" type="line" smooth="yes"/>
      <point x="182" y="390"/>
      <point x="202" y="520"/>
      <point x="258" y="646"/>
      <point x="352" y="720"/>
      <point x="400" y="720" type="qcurve"/>
      <point x="400" y="840" type="line"/>
      <point x="300" y="840"/>
      <point x="138" y="714"/>
      <point x="64" y="554"/>
      <point x="40" y="402"/>
      <point x="40" y="322" type="qcurve" smooth="yes"/>
      <point x="40" y="278" type="line" smooth="yes"/>
      <point x="40" y="198"/>
      <point x="64" y="46"/>
      <point x="138" y="-114"/>
      <point x="300" y="-240"/>
    </contour>
  </outline>
</glyph>
<glyph name="asterisk" format="2">
  <advance width="420"/>
  <unicode hex="002A"/>
  <outline>
    <contour>
      <point x="170" y="460" type="line"/>
      <point x="250" y="460" type="line"/>
      <point x="250" y="561" type="line"/>
      <point x="338" y="510" type="line"/>
      <point x="377" y="579" type="line"/>
      <point x="288" y="630" type="line"/>
      <point x="378" y="681" type="line"/>
      <point x="338" y="750" type="line"/>
      <point x="250" y="700" type="line"/>
      <point x="250" y="800" type="line"/>
      <point x="170" y="800" type="line"/>
      <point x="170" y="699" type="line"/>
      <point x="82" y="750" type="line"/>
      <point x="42" y="680" type="line"/>
      <point x="127" y="631" type="line"/>
      <point x="42" y="583" type="line"/>
      <point x="82" y="514" type="line"/>
      <point x="170" y="564" type="line"/>
    </contour>
  </outline>
</glyph>
<glyph name="comma" format="2">
  <advance width="320"/>
  <unicode hex="002C"/>
  <outline>
    <contour>
      <point x="40" y="-200" type="line"/>
      <point x="100" y="-200" type="line"/>
      <point x="245" y="43" type="line"/>
      <point x="145" y="70" type="line"/>
    </contour>
    <component base="period" xOffset="1"/>
  </outline>
</glyph>
<glyph name="zero" format="2">
  <advance width="620"/>
  <unicode hex="0030"/>
  <outline>
    <contour>
      <point x="310" y="-12" type="qcurve" smooth="yes"/>
      <point x="390" y="-12"/>
      <point x="508" y="50"/>
      <point x="578" y="178"/>
      <point x="578" y="278" type="qcurve" smooth="yes"/>
      <point x="578" y="442" type="line" smooth="yes"/>
      <point x="578" y="542"/>
      <point x="508" y="668"/>
      <point x="390" y="732"/>
      <point x="310" y="732" type="qcurve" smooth="yes"/>
      <point x="230" y="732"/>
      <point x="112" y="668"/>
      <point x="42" y="542"/>
      <point x="42" y="442" type="qcurve" smooth="yes"/>
      <point x="42" y="278" type="line" smooth="yes"/>
      <point x="42" y="178"/>
      <point x="112" y="42"/>
      <point x="230" y="-12"/>
    </contour>
    <contour>
      <point x="310" y="118" type="qcurve" smooth="yes"/>
      <point x="266" y="118"/>
      <point x="214" y="158"/>
      <point x="192" y="222"/>
      <point x="192" y="276" type="qcurve" smooth="yes"/>
      <point x="192" y="444" type="line" smooth="yes"/>
      <point x="192" y="498"/>
      <point x="214" y="562"/>
      <point x="266" y="602"/>
      <point x="310" y="602" type="qcurve" smooth="yes"/>
      <point x="354" y="602"/>
      <point x="406" y="562"/>
      <point x="428" y="498"/>
      <point x="428" y="444" type="qcurve" smooth="yes"/>
      <point x="428" y="276" type="line" smooth="yes"/>
      <point x="428" y="222"/>
      <point x="406" y="158"/>
      <point x="354" y="118"/>
    </contour>
  </outline>
</glyph>
<glyph name="one" format="2">
  <advance width="440"/>
  <unicode hex="0031"/>
  <outline>
    <contour>
      <point x="180" y="0" type="line"/>
      <point x="330" y="0" type="line"/>
      <point x="330" y="720" type="line"/>
      <point x="192" y="720" type="line"/>
      <point x="30" y="605" type="line"/>
      <point x="30" y="470" type="line"/>
      <point x="180" y="570" type="line"/>
    </contour>
  </outline>
</glyph>
<glyph name="two" format="2">
  <advance width="580"/>
  <unicode hex="0032"/>
  <outline>
    <contour>
      <point x="30" y="0" type="line"/>
      <point x="550" y="0" type="line"/>
      <point x="550" y="122" type="line"/>
      <point x="260" y="122" type="line"/>
      <point x="409" y="278" type="line" smooth="yes"/>
      <point x="453" y="325"/>
      <point x="502" y="389"/>
      <point x="533" y="465"/>
      <point x="533" y="513" type="qcurve" smooth="yes"/>
      <point x="533" y="577"/>
      <point x="472" y="676"/>
      <point x="359" y="732"/>
      <point x="287" y="732" type="qcurve" smooth="yes"/>
      <point x="207" y="732"/>
      <point x="93" y="672"/>
      <point x="30" y="568"/>
      <point x="30" y="510" type="qcurve"/>
      <point x="172" y="510" type="line"/>
      <point x="172" y="536"/>
      <point x="196" y="580"/>
      <point x="241" y="604"/>
      <point x="277" y="604" type="qcurve" smooth="yes"/>
      <point x="313" y="604"/>
      <point x="358" y="580"/>
      <point x="381" y="541"/>
      <point x="381" y="513" type="qcurve" smooth="yes"/>
      <point x="381" y="489"/>
      <point x="367" y="446"/>
      <point x="340" y="401"/>
      <point x="310" y="367" type="qcurve" smooth="yes"/>
      <point x="30" y="48" type="line"/>
    </contour>
  </outline>
</glyph>
<glyph name="five" format="2">
  <advance width="610"/>
  <unicode hex="0035"/>
  <outline>
    <contour>
      <point x="301" y="-12" type="qcurve" smooth="yes"/>
      <point x="383" y="-12"/>
      <point x="497" y="46"/>
      <point x="566" y="162"/>
      <point x="566" y="242" type="qcurve" smooth="yes"/>
      <point x="566" y="322"/>
      <point x="498" y="438"/>
      <point x="394" y="490"/>
      <point x="330" y="490" type="qcurve" smooth="yes"/>
      <point x="290" y="490"/>
      <point x="236" y="474"/>
      <point x="196" y="446"/>
      <point x="188" y="432" type="qcurve"/>
      <point x="194" y="596" type="line"/>
      <point x="522" y="596" type="line"/>
      <point x="522" y="720" type="line"/>
      <point x="77" y="720" type="line"/>
      <point x="62" y="309" type="line"/>
      <point x="160" y="309" type="line"/>
      <point x="174" y="327"/>
      <point x="216" y="353"/>
      <point x="262" y="368"/>
      <point x="294" y="368" type="qcurve" smooth="yes"/>
      <point x="330" y="368"/>
      <point x="386" y="340"/>
      <point x="416" y="282"/>
      <point x="416" y="242" type="qcurve" smooth="yes"/>
      <point x="416" y="202"/>
      <point x="388" y="142"/>
      <point x="335" y="112"/>
      <point x="301" y="112" type="qcurve" smooth="yes"/>
      <point x="267" y="112"/>
      <point x="217" y="134"/>
      <point x="188" y="178"/>
      <point x="188" y="210" type="qcurve"/>
      <point x="42" y="210" type="line"/>
      <point x="42" y="144"/>
      <point x="108" y="44"/>
      <point x="223" y="-12"/>
    </contour>
  </outline>
</glyph>
<glyph name="seven" format="2">
  <advance width="560"/>
  <unicode hex="0037"/>
  <outline>
    <contour>
      <point x="84" y="0" type="line"/>
      <point x="250" y="0" type="line"/>
      <point x="550" y="700" type="line"/>
      <point x="550" y="720" type="line"/>
      <point x="20" y="720" type="line"/>
      <point x="20" y="596" type="line"/>
      <point x="346" y="596" type="line"/>
    </contour>
  </outline>
</glyph>
<glyph name="less" format="2">
  <advance width="600"/>
  <unicode hex="003C"/>
  <outline>
    <contour>
      <point x="560" y="21" type="line"/>
      <point x="560" y="169" type="line"/>
      <point x="221" y="302" type="line"/>
      <point x="560" y="435" type="line"/>
      <point x="560" y="579" type="line"/>
      <point x="40" y="358" type="line"/>
      <point x="40" y="242" type="line"/>
    </contour>
  </outline>
</glyph>
<glyph name="question" format="2">
  <advance width="520"/>
  <unicode hex="003F"/>
  <outline>
    <contour>
      <point x="184" y="240" type="line"/>
      <point x="306" y="240" type="line"/>
      <point x="306" y="270" type="line" smooth="yes"/>
      <point x="304" y="313"/>
      <point x="333" y="333" type="qcurve" smooth="yes"/>
      <point x="400" y="380" type="line" smooth="yes"/>
      <point x="497" y="448"/>
      <point x="492" y="542" type="qcurve" smooth="yes"/>
      <point x="492" y="598"/>
      <point x="434" y="684"/>
      <point x="332" y="732"/>
      <point x="264" y="732" type="qcurve" smooth="yes"/>
      <point x="188" y="732"/>
      <point x="84" y="680"/>
      <point x="20" y="582"/>
      <point x="20" y="510" type="qcurve"/>
      <point x="162" y="510" type="line"/>
      <point x="162" y="548"/>
      <point x="187" y="590"/>
      <point x="228" y="608"/>
      <point x="256" y="608" type="qcurve" smooth="yes"/>
      <point x="284" y="608"/>
      <point x="322" y="588"/>
      <point x="342" y="556"/>
      <point x="342" y="528" type="qcurve" smooth="yes"/>
      <point x="342" y="482"/>
      <point x="300" y="454" type="qcurve" smooth="yes"/>
      <point x="235" y="406" type="line" smooth="yes"/>
      <point x="184" y="368"/>
      <point x="184" y="303" type="qcurve" smooth="yes"/>
    </contour>
    <component base="period" xOffset="90"/>
  </outline>
</glyph>
<glyph name="A" format="2">
  <advance width="700"/>
  <unicode hex="0041"/>
  <anchor x="350" y="720" name="top"/>
  <anchor x="350" y="0" name="bottom"/>
  <anchor x="668" y="0" name="ogonek"/>
  <outline>
    <contour>
      <point x="142" y="160" type="line"/>
      <point x="539" y="160" type="line"/>
      <point x="499" y="280" type="line"/>
      <point x="182" y="280" type="line"/>
    </contour>
    <component base="V" xScale="-1.0" yScale="-1.0" xOffset="700" yOffset="720"/>
  </outline>
</glyph>
<glyph name="B" format="2">
  <advance width="666"/>
  <unicode hex="0042"/>
  <anchor x="297" y="0" name="bottom"/>
  <anchor x="297" y="720" name="top"/>
  <outline>
    <contour>
      <point x="58" y="0" type="line"/>
      <point x="373" y="0" type="line" smooth="yes"/>
      <point x="473" y="0"/>
      <point x="572" y="51"/>
      <point x="626" y="144"/>
      <point x="626" y="200" type="qcurve" smooth="yes"/>
      <point x="626" y="240"/>
      <point x="601" y="309"/>
      <point x="536" y="362"/>
      <point x="490" y="372" type="qcurve"/>
      <point x="533" y="385"/>
      <point x="585" y="433"/>
      <point x="607" y="492"/>
      <point x="607" y="528" type="qcurve" smooth="yes"/>
      <point x="607" y="580"/>
      <point x="562" y="667"/>
      <point x="465" y="720"/>
      <point x="369" y="720" type="qcurve" smooth="yes"/>
      <point x="58" y="720" type="line"/>
    </contour>
    <contour>
      <point x="208" y="116" type="line"/>
      <point x="208" y="302" type="line"/>
      <point x="370" y="302" type="line" smooth="yes"/>
      <point x="400" y="302"/>
      <point x="444" y="285"/>
      <point x="476" y="241"/>
      <point x="476" y="209" type="qcurve" smooth="yes"/>
      <point x="476" y="177"/>
      <point x="444" y="133"/>
      <point x="400" y="116"/>
      <point x="370" y="116" type="qcurve" smooth="yes"/>
    </contour>
    <contour>
      <point x="208" y="424" type="line"/>
      <point x="208" y="604" type="line"/>
      <point x="359" y="604" type="line" smooth="yes"/>
      <point x="389" y="604"/>
      <point x="429" y="586"/>
      <point x="457" y="542"/>
      <point x="457" y="514" type="qcurve" smooth="yes"/>
      <point x="457" y="486"/>
      <point x="429" y="442"/>
      <point x="389" y="424"/>
      <point x="359" y="424" type="qcurve" smooth="yes"/>
    </contour>
  </outline>
</glyph>
<glyph name="C" format="2">
  <advance width="680"/>
  <unicode hex="0043"/>
  <anchor x="366" y="0" name="bottom"/>
  <anchor x="366" y="720" name="top"/>
  <outline>
    <contour>
      <point x="366" y="-12" type="qcurve" smooth="yes"/>
      <point x="456" y="-12"/>
      <point x="580" y="50"/>
      <point x="644" y="154"/>
      <point x="644" y="210" type="qcurve"/>
      <point x="500" y="210" type="line"/>
      <point x="500" y="186"/>
      <point x="474" y="142"/>
      <point x="418" y="112"/>
      <point x="366" y="112" type="qcurve" smooth="yes"/>
      <point x="310" y="112"/>
      <point x="234" y="168"/>
      <point x="194" y="278"/>
      <point x="194" y="360" type="qcurve" smooth="yes"/>
      <point x="194" y="442"/>
      <point x="234" y="552"/>
      <point x="310" y="608"/>
      <point x="366" y="608" type="qcurve" smooth="yes"/>
      <point x="418" y="608"/>
      <point x="474" y="578"/>
      <point x="500" y="534"/>
      <point x="500" y="510" type="qcurve"/>
      <point x="644" y="510" type="line"/>
      <point x="644" y="566"/>
      <point x="580" y="670"/>
      <point x="456" y="732"/>
      <point x="366" y="732" type="qcurve" smooth="yes"/>
      <point x="270" y="732"/>
      <point x="120" y="644"/>
      <point x="40" y="480"/>
      <point x="40" y="360" type="qcurve" smooth="yes"/>
      <point x="40" y="240"/>
      <point x="120" y="76"/>
      <point x="270" y="-12"/>
    </contour>
  </outline>
</glyph>
<glyph name="D" format="2">
  <advance width="680"/>
  <unicode hex="0044"/>
  <anchor x="300" y="0" name="bottom"/>
  <anchor x="190" y="360" name="center"/>
  <anchor x="300" y="720" name="top"/>
  <outline>
    <contour>
      <point x="58" y="0" type="line"/>
      <point x="268" y="0" type="line" smooth="yes"/>
      <point x="380" y="0"/>
      <point x="550" y="88"/>
      <point x="640" y="240"/>
      <point x="640" y="360" type="qcurve" smooth="yes"/>
      <point x="640" y="480"/>
      <point x="550" y="639"/>
      <point x="380" y="720"/>
      <point x="268" y="720" type="qcurve" smooth="yes"/>
      <point x="58" y="720" type="line"/>
    </contour>
    <contour>
      <point x="208" y="124" type="line"/>
      <point x="208" y="596" type="line"/>
      <point x="248" y="596" type="line" smooth="yes"/>
      <point x="352" y="596"/>
      <point x="444" y="540"/>
      <point x="486" y="442"/>
      <point x="486" y="360" type="qcurve" smooth="yes"/>
      <point x="486" y="278"/>
      <point x="444" y="180"/>
      <point x="352" y="124"/>
      <point x="248" y="124" type="qcurve" smooth="yes"/>
    </contour>
  </outline>
</glyph>
<glyph name="J" format="2">
  <advance width="546"/>
  <unicode hex="004A"/>
  <anchor x="263" y="0" name="bottom"/>
  <anchor x="417" y="720" name="top"/>
  <outline>
    <contour>
      <point x="262" y="-6" type="qcurve" smooth="yes"/>
      <point x="326" y="-6"/>
      <point x="430" y="42"/>
      <point x="492" y="142"/>
      <point x="492" y="214" type="qcurve" smooth="yes"/>
      <point x="492" y="720" type="line"/>
      <point x="342" y="720" type="line"/>
      <point x="342" y="228" type="line" smooth="yes"/>
      <point x="342" y="193"/>
      <point x="324" y="147"/>
      <point x="284" y="124"/>
      <point x="256" y="124" type="qcurve" smooth="yes"/>
      <point x="228" y="124"/>
      <point x="192" y="144"/>
      <point x="172" y="178"/>
      <point x="172" y="210" type="qcurve"/>
      <point x="26" y="210" type="line"/>
      <point x="26" y="142"/>
      <point x="88" y="42"/>
      <point x="198" y="-6"/>
    </contour>
  </outline>
</glyph>
<glyph name="K" format="2">
  <advance width="660"/>
  <unicode hex="004B"/>
  <anchor x="326" y="0" name="bottom"/>
  <anchor x="326" y="720" name="top"/>
  <outline>
    <contour>
      <point x="58" y="0" type="line"/>
      <point x="204" y="0" type="line"/>
      <point x="204" y="228" type="line"/>
      <point x="282" y="324" type="line"/>
      <point x="454" y="0" type="line"/>
      <point x="630" y="0" type="line"/>
      <point x="390" y="438" type="line"/>
      <point x="640" y="720" type="line"/>
      <point x="470" y="720" type="line"/>
      <point x="204" y="400" type="line"/>
      <point x="204" y="720" type="line"/>
      <point x="58" y="720" type="line"/>
    </contour>
  </outline>
</glyph>
<glyph name="L" format="2">
  <advance width="520"/>
  <unicode hex="004C"/>
  <anchor x="284" y="0" name="bottom"/>
  <anchor x="390" y="360" name="dot"/>
  <anchor x="127" y="720" name="top"/>
  <anchor x="350" y="720" name="topright"/>
  <outline>
    <contour>
      <point x="58" y="0" type="line"/>
      <point x="500" y="0" type="line"/>
      <point x="500" y="128" type="line"/>
      <point x="208" y="128" type="line"/>
      <point x="208" y="720" type="line"/>
      <point x="58" y="720" type="line"/>
    </contour>
  </outline>
</glyph>
<glyph name="M" format="2">
  <advance width="840"/>
  <unicode hex="004D"/>
  <anchor x="422" y="0" name="bottom"/>
  <anchor x="422" y="720" name="top"/>
  <outline>
    <contour>
      <point x="58" y="0" type="line"/>
      <point x="198" y="0" type="line"/>
      <point x="198" y="536" type="line"/>
      <point x="384" y="0" type="line"/>
      <point x="456" y="0" type="line"/>
      <point x="634" y="544" type="line"/>
      <point x="634" y="0" type="line"/>
      <point x="782" y="0" type="line"/>
      <point x="782" y="720" type="line"/>
      <point x="576" y="720" type="line"/>
      <point x="426" y="240" type="line"/>
      <point x="268" y="720" type="line"/>
      <point x="58" y="720" type="line"/>
    </contour>
  </outline>
</glyph>
<glyph name="Q" format="2">
  <advance width="760"/>
  <unicode hex="0051"/>
  <anchor x="381" y="0" name="bottom"/>
  <anchor x="464" y="10" name="ogonek"/>
  <anchor x="381" y="720" name="top"/>
  <anchor x="31" y="720" name="topleft"/>
  <outline>
    <contour>
      <point x="548" y="-120" type="line"/>
      <point x="713" y="-120" type="line"/>
      <point x="584" y="70" type="line"/>
      <point x="461" y="7" type="line"/>
    </contour>
    <component base="O"/>
  </outline>
</glyph>
<glyph name="R" format="2">
  <advance width="680"/>
  <unicode hex="0052"/>
  <anchor x="321" y="0" name="bottom"/>
  <anchor x="310" y="720" name="top"/>
  <outline>
    <contour>
      <point x="58" y="0" type="line"/>
      <point x="208" y="0" type="line"/>
      <point x="208" y="280" type="line"/>
      <point x="315" y="280" type="line"/>
      <point x="479" y="0" type="line"/>
      <point x="646" y="0" type="line"/>
      <point x="470" y="292" type="line"/>
      <point x="498" y="300"/>
      <point x="574" y="356"/>
      <point x="619" y="440"/>
      <point x="619" y="500" type="qcurve" smooth="yes"/>
      <point x="619" y="564"/>
      <point x="561" y="664"/>
      <point x="445" y="720"/>
      <point x="369" y="720" type="qcurve" smooth="yes"/>
      <point x="58" y="720" type="line"/>
    </contour>
    <contour>
      <point x="208" y="404" type="line"/>
      <point x="208" y="596" type="line"/>
      <point x="353" y="596" type="line" smooth="yes"/>
      <point x="397" y="596"/>
      <point x="445" y="570"/>
      <point x="469" y="528"/>
      <point x="469" y="500" type="qcurve" smooth="yes"/>
      <point x="469" y="472"/>
      <point x="445" y="431"/>
      <point x="397" y="404"/>
      <point x="353" y="404" type="qcurve" smooth="yes"/>
    </contour>
  </outline>
</glyph>
<glyph name="T" format="2">
  <advance width="540"/>
  <unicode hex="0054"/>
  <anchor x="270" y="0" name="bottom"/>
  <anchor x="270" y="360" name="center"/>
  <anchor x="270" y="720" name="top"/>
  <outline>
    <contour>
      <point x="195" y="0" type="line"/>
      <point x="345" y="0" type="line"/>
      <point x="345" y="592" type="line"/>
      <point x="520" y="592" type="line"/>
      <point x="520" y="720" type="line"/>
      <point x="20" y="720" type="line"/>
      <point x="20" y="592" type="line"/>
      <point x="195" y="592" type="line"/>
    </contour>
  </outline>
</glyph>
<glyph name="V" format="2">
  <advance width="700"/>
  <unicode hex="0056"/>
  <anchor x="357" y="0" name="bottom"/>
  <anchor x="360" y="720" name="top"/>
  <outline>
    <contour>
      <point x="256" y="0" type="line"/>
      <point x="450" y="0" type="line"/>
      <point x="680" y="720" type="line"/>
      <point x="534" y="720" type="line"/>
      <point x="356" y="150" type="line"/>
      <point x="178" y="720" type="line"/>
      <point x="20" y="720" type="line"/>
    </contour>
  </outline>
</glyph>
<glyph name="W" format="2">
  <advance width="940"/>
  <unicode hex="0057"/>
  <anchor x="470" y="0" name="bottom"/>
  <anchor x="470" y="720" name="top"/>
  <outline>
    <contour>
      <point x="188" y="0" type="line"/>
      <point x="364" y="0" type="line"/>
      <point x="469" y="468" type="line"/>
      <point x="572" y="0" type="line"/>
      <point x="752" y="0" type="line"/>
      <point x="924" y="720" type="line"/>
      <point x="786" y="720" type="line"/>
      <point x="665" y="176" type="line"/>
      <point x="550" y="720" type="line"/>
      <point x="404" y="720" type="line"/>
      <point x="288" y="176" type="line"/>
      <point x="168" y="720" type="line"/>
      <point x="16" y="720" type="line"/>
    </contour>
  </outline>
</glyph>
<glyph name="b" format="2">
  <advance width="584"/>
  <unicode hex="0062"/>
  <anchor x="334" y="0" name="bottom"/>
  <anchor x="332" y="500" name="top"/>
  <outline>
    <contour>
      <point x="344" y="-12" type="qcurve" smooth="yes"/>
      <point x="408" y="-12"/>
      <point x="508" y="56"/>
      <point x="560" y="170"/>
      <point x="560" y="250" type="qcurve" smooth="yes"/>
      <point x="560" y="330"/>
      <point x="508" y="444"/>
      <point x="408" y="512"/>
      <point x="344" y="512" type="qcurve" smooth="yes"/>
      <point x="314" y="512"/>
      <point x="260" y="494"/>
      <point x="210" y="454"/>
      <point x="198" y="424" type="qcurve"/>
      <point x="198" y="720" type="line"/>
      <point x="56" y="720" type="line"/>
      <point x="56" y="0" type="line"/>
      <point x="198" y="0" type="line"/>
      <point x="198" y="76" type="line"/>
      <point x="210" y="46"/>
      <point x="260" y="6"/>
      <point x="314" y="-12"/>
    </contour>
    <contour>
      <point x="304" y="108" type="qcurve" smooth="yes"/>
      <point x="268" y="108"/>
      <point x="220" y="144"/>
      <point x="194" y="206"/>
      <point x="194" y="250" type="qcurve" smooth="yes"/>
      <point x="194" y="294"/>
      <point x="220" y="356"/>
      <point x="268" y="392"/>
      <point x="304" y="392" type="qcurve" smooth="yes"/>
      <point x="340" y="392"/>
      <point x="388" y="356"/>
      <point x="414" y="294"/>
      <point x="414" y="250" type="qcurve" smooth="yes"/>
      <point x="414" y="206"/>
      <point x="388" y="144"/>
      <point x="340" y="108"/>
    </contour>
  </outline>
</glyph>
<glyph name="c" format="2">
  <advance width="500"/>
  <unicode hex="0063"/>
  <anchor x="264" y="0" name="bottom"/>
  <anchor x="264" y="500" name="top"/>
  <outline>
    <contour>
      <point x="272" y="-12" type="qcurve" smooth="yes"/>
      <point x="344" y="-12"/>
      <point x="442" y="44"/>
      <point x="486" y="124"/>
      <point x="486" y="160" type="qcurve"/>
      <point x="348" y="160" type="line"/>
      <point x="348" y="146"/>
      <point x="330" y="114"/>
      <point x="298" y="98"/>
      <point x="274" y="98" type="qcurve" smooth="yes"/>
      <point x="244" y="98"/>
      <point x="196" y="136"/>
      <point x="170" y="205"/>
      <point x="170" y="251" type="qcurve" smooth="yes"/>
      <point x="170" y="297"/>
      <point x="196" y="364"/>
      <point x="244" y="402"/>
      <point x="274" y="402" type="qcurve" smooth="yes"/>
      <point x="298" y="402"/>
      <point x="330" y="386"/>
      <point x="348" y="354"/>
      <point x="348" y="340" type="qcurve"/>
      <point x="486" y="340" type="line"/>
      <point x="486" y="376"/>
      <point x="442" y="456"/>
      <point x="344" y="512"/>
      <point x="272" y="512" type="qcurve" smooth="yes"/>
      <point x="196" y="512"/>
      <point x="84" y="444"/>
      <point x="24" y="323"/>
      <point x="24" y="251" type="qcurve" smooth="yes"/>
      <point x="24" y="179"/>
      <point x="84" y="56"/>
      <point x="196" y="-12"/>
    </contour>
  </outline>
</glyph>
<glyph name="f" format="2">
  <advance width="380"/>
  <unicode hex="0066"/>
  <anchor x="182" y="0" name="bottom"/>
  <anchor x="191" y="720" name="top"/>
  <outline>
    <contour>
      <point x="98" y="2" type="line"/>
      <point x="240" y="2" type="line"/>
      <point x="240" y="560" type="line" smooth="yes"/>
      <point x="240" y="584"/>
      <point x="264" y="608"/>
      <point x="288" y="608" type="qcurve" smooth="yes"/>
      <point x="344" y="608" type="line"/>
      <point x="344" y="720" type="line"/>
      <point x="246" y="720" type="line" smooth="yes"/>
      <point x="172" y="720"/>
      <point x="98" y="652"/>
      <point x="98" y="580" type="qcurve" smooth="yes"/>
    </contour>
    <contour>
      <point x="20" y="380" type="line"/>
      <point x="344" y="380" type="line"/>
      <point x="344" y="500" type="line"/>
      <point x="20" y="500" type="line"/>
    </contour>
  </outline>
</glyph>
<glyph name="k" format="2">
  <advance width="540"/>
  <unicode hex="006B"/>
  <anchor x="240" y="0" name="bottom"/>
  <anchor x="291" y="720" name="top"/>
  <outline>
    <contour>
      <point x="56" y="0" type="line"/>
      <point x="196" y="0" type="line"/>
      <point x="196" y="176" type="line"/>
      <point x="228" y="210" type="line"/>
      <point x="363" y="0" type="line"/>
      <point x="521" y="0" type="line"/>
      <point x="332" y="294" type="line"/>
      <point x="524" y="500" type="line"/>
      <point x="361" y="500" type="line"/>
      <point x="196" y="322" type="line"/>
      <point x="196" y="720" type="line"/>
      <point x="56" y="720" type="line"/>
    </contour>
  </outline>
</glyph>
<glyph name="n" format="2">
  <advance width="560"/>
  <unicode hex="006E"/>
  <anchor x="288" y="0" name="bottom"/>
  <anchor x="288" y="500" name="top"/>
  <outline>
    <contour>
      <point x="56" y="0" type="line"/>
      <point x="198" y="0" type="line"/>
      <point x="198" y="260" type="line" smooth="yes"/>
      <point x="198" y="312"/>
      <point x="226" y="362"/>
      <point x="270" y="382"/>
      <point x="294" y="382" type="qcurve" smooth="yes"/>
      <point x="320" y="382"/>
      <point x="351" y="362"/>
      <point x="364" y="328"/>
      <point x="364" y="300" type="qcurve" smooth="yes"/>
      <point x="364" y="0" type="line"/>
      <point x="506" y="0" type="line"/>
      <point x="506" y="314" type="line" smooth="yes"/>
      <point x="506" y="386"/>
      <point x="468" y="466"/>
      <point x="400" y="510"/>
      <point x="342" y="510" type="qcurve" smooth="yes"/>
      <point x="312" y="510"/>
      <point x="252" y="486"/>
      <point x="210" y="442"/>
      <point x="198" y="416" type="qcurve"/>
      <point x="198" y="500" type="line"/>
      <point x="56" y="500" type="line"/>
    </contour>
  </outline>
</glyph>
<glyph name="o" format="2">
  <advance width="560"/>
  <unicode hex="006F"/>
  <anchor x="280" y="0" name="bottom"/>
  <anchor x="364" y="10" name="ogonek"/>
  <anchor x="280" y="500" name="top"/>
  <outline>
    <contour>
      <point x="280" y="-12" type="qcurve" smooth="yes"/>
      <point x="356" y="-12"/>
      <point x="474" y="56"/>
      <point x="536" y="178"/>
      <point x="536" y="250" type="qcurve" smooth="yes"/>
      <point x="536" y="322"/>
      <point x="474" y="444"/>
      <point x="356" y="512"/>
      <point x="280" y="512" type="qcurve" smooth="yes"/>
      <point x="204" y="512"/>
      <point x="86" y="444"/>
      <point x="24" y="322"/>
      <point x="24" y="250" type="qcurve" smooth="yes"/>
      <point x="24" y="178"/>
      <point x="86" y="56"/>
      <point x="204" y="-12"/>
    </contour>
    <contour>
      <point x="280" y="108" type="qcurve" smooth="yes"/>
      <point x="244" y="108"/>
      <point x="196" y="144"/>
      <point x="170" y="206"/>
      <point x="170" y="250" type="qcurve" smooth="yes"/>
      <point x="170" y="294"/>
      <point x="196" y="356"/>
      <point x="244" y="392"/>
      <point x="280" y="392" type="qcurve" smooth="yes"/>
      <point x="316" y="392"/>
      <point x="364" y="356"/>
      <point x="390" y="294"/>
      <point x="390" y="250" type="qcurve" smooth="yes"/>
      <point x="390" y="206"/>
      <point x="364" y="144"/>
      <point x="316" y="108"/>
    </contour>
  </outline>
</glyph>
<glyph name="r" format="2">
  <advance width="370"/>
  <unicode hex="0072"/>
  <anchor x="126" y="0" name="bottom"/>
  <anchor x="198" y="500" name="top"/>
  <outline>
    <contour>
      <point x="56" y="0" type="line"/>
      <point x="198" y="0" type="line"/>
      <point x="198" y="250" type="line" smooth="yes"/>
      <point x="198" y="306"/>
      <point x="258" y="366"/>
      <point x="314" y="366" type="qcurve" smooth="yes"/>
      <point x="350" y="366" type="line"/>
      <point x="350" y="500" type="line"/>
      <point x="328" y="500" type="line" smooth="yes"/>
      <point x="281" y="500"/>
      <point x="211" y="446"/>
      <point x="198" y="400" type="qcurve"/>
      <point x="198" y="500" type="line"/>
      <point x="56" y="500" type="line"/>
    </contour>
  </outline>
</glyph>
<glyph name="v" format="2">
  <advance width="500"/>
  <unicode hex="0076"/>
  <anchor x="256" y="0" name="bottom"/>
  <anchor x="256" y="500" name="top"/>
  <outline>
    <contour>
      <point x="181" y="0" type="line"/>
      <point x="323" y="0" type="line"/>
      <point x="484" y="500" type="line"/>
      <point x="342" y="500" type="line"/>
      <point x="256" y="180" type="line"/>
      <point x="166" y="500" type="line"/>
      <point x="16" y="500" type="line"/>
    </contour>
  </outline>
</glyph>
<glyph name="w" format="2">
  <advance width="740"/>
  <unicode hex="0077"/>
  <anchor x="370" y="0" name="bottom"/>
  <anchor x="370" y="500" name="top"/>
  <outline>
    <contour>
      <point x="148" y="0" type="line"/>
      <point x="287" y="0" type="line"/>
      <point x="367" y="290" type="line"/>
      <point x="443" y="0" type="line"/>
      <point x="592" y="0" type="line"/>
      <point x="724" y="500" type="line"/>
      <point x="594" y="500" type="line"/>
      <point x="518" y="180" type="line"/>
      <point x="435" y="500" type="line"/>
      <point x="319" y="500" type="line"/>
      <point x="234" y="180" type="line"/>
      <point x="162" y="500" type="line"/>
      <point x="16" y="500" type="line"/>
    </contour>
  </outline>
</glyph>
<glyph name="y" format="2">
  <advance width="500"/>
  <unicode hex="0079"/>
  <anchor x="245" y="-200" name="bottom"/>
  <anchor x="250" y="500" name="top"/>
  <outline>
    <contour>
      <point x="52" y="-200" type="line"/>
      <point x="117" y="-200" type="line" smooth="yes"/>
      <point x="209" y="-200"/>
      <point x="296" y="-119"/>
      <point x="323" y="-30" type="qcurve" smooth="yes"/>
      <point x="484" y="500" type="line"/>
      <point x="342" y="500" type="line"/>
      <point x="260" y="181" type="line"/>
      <point x="166" y="500" type="line"/>
      <point x="16" y="500" type="line"/>
      <point x="194" y="0" type="line"/>
      <point x="188" y="-18" type="line" smooth="yes"/>
      <point x="176" y="-53"/>
      <point x="140" y="-80"/>
      <point x="100" y="-80" type="qcurve" smooth="yes"/>
      <point x="52" y="-80" type="line"/>
    </contour>
  </outline>
</glyph>
<glyph name="braceleft" format="2">
  <advance width="400"/>
  <unicode hex="007B"/>
  <outline>
    <contour>
      <point x="360" y="-240" type="qcurve"/>
      <point x="360" y="-120" type="line"/>
      <point x="324" y="-120"/>
      <point x="280" y="-84"/>
      <point x="264" y="-4"/>
      <point x="264" y="52" type="qcurve" smooth="yes"/>
      <point x="264" y="142" type="line" smooth="yes"/>
      <point x="264" y="194"/>
      <point x="242" y="254"/>
      <point x="196" y="290"/>
      <point x="152" y="300" type="qcurve"/>
      <point x="196" y="310"/>
      <point x="242" y="346"/>
      <point x="264" y="406"/>
      <point x="264" y="458" type="qcurve" smooth="yes"/>
      <point x="264" y="548" type="line" smooth="yes"/>
      <point x="264" y="604"/>
      <point x="280" y="684"/>
      <point x="324" y="720"/>
      <point x="360" y="720" type="qcurve"/>
      <point x="360" y="840" type="line"/>
      <point x="300" y="840"/>
      <point x="196" y="792"/>
      <point x="122" y="676"/>
      <point x="122" y="556" type="qcurve" smooth="yes"/>
      <point x="122" y="486" type="line" smooth="yes"/>
      <point x="122" y="422"/>
      <point x="96" y="374"/>
      <point x="44" y="356"/>
      <point x="12" y="356" type="qcurve"/>
      <point x="12" y="244" type="line"/>
      <point x="44" y="244"/>
      <point x="96" y="226"/>
      <point x="122" y="178"/>
      <point x="122" y="114" type="qcurve" smooth="yes"/>
      <point x="122" y="44" type="line" smooth="yes"/>
      <point x="122" y="-76"/>
      <point x="196" y="-192"/>
      <point x="300" y="-240"/>
    </contour>
  </outline>
</glyph>
<glyph name="sterling" format="2">
  <advance width="600"/>
  <unicode hex="00A3"/>
  <outline>
    <contour>
      <point x="84" y="0" type="line"/>
      <point x="570" y="0" type="line"/>
      <point x="570" y="120" type="line"/>
      <point x="294" y="120" type="line"/>
      <point x="306" y="128"/>
      <point x="328" y="166"/>
      <point x="338" y="207"/>
      <point x="338" y="227" type="qcurve" smooth="yes"/>
      <point x="338" y="279"/>
      <point x="308" y="364"/>
      <point x="263" y="447"/>
      <point x="247" y="494"/>
      <point x="247" y="522" type="qcurve" smooth="yes"/>
      <point x="247" y="552"/>
      <point x="267" y="590"/>
      <point x="302" y="612"/>
      <point x="330" y="612" type="qcurve" smooth="yes"/>
      <point x="358" y="612"/>
      <point x="396" y="590"/>
      <point x="416" y="546"/>
      <point x="416" y="510" type="qcurve"/>
      <point x="554" y="510" type="line"/>
      <point x="554" y="590"/>
      <point x="498" y="682"/>
      <point x="400" y="732"/>
      <point x="330" y="732" type="qcurve" smooth="yes"/>
      <point x="258" y="732"/>
      <point x="160" y="678"/>
      <point x="105" y="586"/>
      <point x="105" y="522" type="qcurve" smooth="yes"/>
      <point x="105" y="474"/>
      <point x="137" y="396"/>
      <point x="169" y="334"/>
      <point x="200" y="259"/>
      <point x="200" y="223" type="qcurve" smooth="yes"/>
      <point x="200" y="187"/>
      <point x="176" y="128"/>
      <point x="124" y="71"/>
      <point x="84" y="55" type="qcurve"/>
    </contour>
    <contour>
      <point x="74" y="260" type="line"/>
      <point x="482" y="260" type="line"/>
      <point x="482" y="340" type="line"/>
      <point x="74" y="340" type="line"/>
    </contour>
  </outline>
</glyph>
<glyph name="brokenbar" format="2">
  <advance width="260"/>
  <unicode hex="00A6"/>
  <outline>
    <contour>
      <point x="60" y="400" type="line"/>
      <point x="200" y="400" type="line"/>
      <point x="200" y="800" type="line"/>
      <point x="60" y="800" type="line"/>
    </contour>
    <contour>
      <point x="60" y="-240" type="line"/>
      <point x="200" y="-240" type="line"/>
      <point x="200" y="160" type="line"/>
      <point x="60" y="160" type="line"/>
    </contour>
  </outline>
</glyph>
<glyph name="copyright" format="2">
  <advance width="860"/>
  <unicode hex="00A9"/>
  <anchor x="430" y="360" name="center"/>
  <outline>
    <contour>
      <point x="430" y="160" type="qcurve" smooth="yes"/>
      <point x="506" y="160"/>
      <point x="596" y="231"/>
      <point x="598" y="292" type="qcurve"/>
      <point x="472" y="292" type="line"/>
      <point x="472" y="276"/>
      <point x="452" y="257"/>
      <point x="432" y="257" type="qcurve" smooth="yes"/>
      <point x="404" y="257"/>
      <point x="372" y="305"/>
      <point x="372" y="361" type="qcurve" smooth="yes"/>
      <point x="372" y="417"/>
      <point x="404" y="463"/>
      <point x="432" y="463" type="qcurve" smooth="yes"/>
      <point x="452" y="463"/>
      <point x="472" y="444"/>
      <point x="472" y="428" type="qcurve"/>
      <point x="598" y="428" type="line"/>
      <point x="596" y="489"/>
      <point x="506" y="560"/>
      <point x="430" y="560" type="qcurve" smooth="yes"/>
      <point x="345" y="560"/>
      <point x="246" y="454"/>
      <point x="246" y="361" type="qcurve" smooth="yes"/>
      <point x="246" y="268"/>
      <point x="346" y="160"/>
    </contour>
    <component base="numCircle"/>
  </outline>
</glyph>
<glyph name="logicalnot" format="2">
  <advance width="600"/>
  <unicode hex="00AC"/>
  <outline>
    <contour>
      <point x="430" y="60" type="line"/>
      <point x="560" y="60" type="line"/>
      <point x="560" y="420" type="line"/>
      <point x="60" y="420" type="line"/>
      <point x="60" y="290" type="line"/>
      <point x="430" y="290" type="line"/>
    </contour>
  </outline>
</glyph>
<glyph name="registered" format="2">
  <advance width="860"/>
  <unicode hex="00AE"/>
  <anchor x="430" y="360" name="center"/>
  <outline>
    <contour>
      <point x="279" y="170" type="line"/>
      <point x="395" y="170" type="line"/>
      <point x="395" y="301" type="line"/>
      <point x="417" y="301" type="line"/>
      <point x="485" y="170" type="line"/>
      <point x="609" y="170" type="line"/>
      <point x="534" y="311" type="line"/>
      <point x="564" y="326"/>
      <point x="598" y="384"/>
      <point x="598" y="423" type="qcurve" smooth="yes"/>
      <point x="598" y="482"/>
      <point x="523" y="550"/>
      <point x="448" y="550" type="qcurve" smooth="yes"/>
      <point x="279" y="550" type="line"/>
    </contour>
    <contour>
      <point x="395" y="386" type="line"/>
      <point x="395" y="464" type="line"/>
      <point x="436" y="464" type="line" smooth="yes"/>
      <point x="456" y="464"/>
      <point x="478" y="445"/>
      <point x="478" y="425" type="qcurve" smooth="yes"/>
      <point x="478" y="405"/>
      <point x="456" y="386"/>
      <point x="436" y="386" type="qcurve" smooth="yes"/>
    </contour>
    <component base="numCircle"/>
  </outline>
</glyph>
<glyph name="micro" format="2">
  <advance width="560"/>
  <unicode hex="00B5"/>
  <anchor x="280" y="500" name="top"/>
  <anchor x="280" y="0" name="bottom"/>
  <anchor x="470" y="0" name="ogonek"/>
  <outline>
    <contour>
      <point x="54" y="-200" type="line"/>
      <point x="196" y="-200" type="line"/>
      <point x="196" y="222" type="line"/>
      <point x="54" y="222" type="line"/>
    </contour>
    <component base="u"/>
  </outline>
</glyph>
<glyph name="paragraph" format="2">
  <advance width="480"/>
  <unicode hex="00B6"/>
  <outline>
    <contour>
      <point x="260" y="-200" type="line"/>
      <point x="400" y="-200" type="line"/>
      <point x="400" y="720" type="line"/>
      <point x="290" y="720" type="line" smooth="yes"/>
      <point x="174" y="720"/>
      <point x="40" y="590"/>
      <point x="40" y="480" type="qcurve" smooth="yes"/>
      <point x="40" y="370"/>
      <point x="174" y="240"/>
      <point x="260" y="240" type="qcurve"/>
    </contour>
  </outline>
</glyph>
<glyph name="AE" format="2">
  <advance width="960"/>
  <unicode hex="00C6"/>
  <anchor x="682" y="0" name="bottom"/>
  <anchor x="904" y="0" name="ogonek"/>
  <anchor x="480" y="720" name="top"/>
  <outline>
    <contour>
      <point x="20" y="0" type="line"/>
      <point x="172" y="0" type="line"/>
      <point x="444" y="602" type="line"/>
      <point x="480" y="602" type="line"/>
      <point x="480" y="720" type="line"/>
      <point x="346" y="720" type="line"/>
    </contour>
    <contour>
      <point x="193" y="160" type="line"/>
      <point x="486" y="160" type="line"/>
      <point x="486" y="280" type="line"/>
      <point x="193" y="280" type="line"/>
    </contour>
    <component base="E" xOffset="392"/>
  </outline>
</glyph>
<glyph name="Oslash" format="2">
  <advance width="760"/>
  <unicode hex="00D8"/>
  <anchor x="380" y="0" name="bottom"/>
  <anchor x="464" y="10" name="ogonek"/>
  <anchor x="380" y="720" name="top"/>
  <anchor x="30" y="720" name="topleft"/>
  <outline>
    <contour>
      <point x="67" y="0" type="line"/>
      <point x="205" y="0" type="line"/>
      <point x="718" y="720" type="line"/>
      <point x="580" y="720" type="line"/>
    </contour>
    <component base="O"/>
  </outline>
</glyph>
<glyph name="germandbls" format="2">
  <advance width="620"/>
  <unicode hex="00DF"/>
  <outline>
    <contour>
      <point x="397" y="0" type="line"/>
      <point x="465" y="0"/>
      <point x="545" y="26"/>
      <point x="596" y="98"/>
      <point x="596" y="158" type="qcurve" smooth="yes"/>
      <point x="596" y="206"/>
      <point x="551" y="284"/>
      <point x="493" y="329" type="qcurve" smooth="yes"/>
      <point x="464" y="351"/>
      <point x="442" y="374"/>
      <point x="442" y="394" type="qcurve" smooth="yes"/>
      <point x="442" y="414"/>
      <point x="486" y="476"/>
      <point x="500" y="526"/>
      <point x="500" y="558" type="qcurve" smooth="yes"/>
      <point x="500" y="608"/>
      <point x="438" y="689"/>
      <point x="344" y="726"/>
      <point x="284" y="726" type="qcurve" smooth="yes"/>
      <point x="224" y="726"/>
      <point x="118" y="678"/>
      <point x="56" y="570"/>
      <point x="56" y="470" type="qcurve" smooth="yes"/>
      <point x="56" y="0" type="line"/>
      <point x="198" y="0" type="line"/>
      <point x="198" y="458" type="line" smooth="yes"/>
      <point x="198" y="532"/>
      <point x="222" y="586"/>
      <point x="260" y="608"/>
      <point x="284" y="608" type="qcurve" smooth="yes"/>
      <point x="304" y="608"/>
      <point x="336" y="596"/>
      <point x="358" y="564"/>
      <point x="358" y="536" type="qcurve" smooth="yes"/>
      <point x="358" y="514"/>
      <point x="338" y="472"/>
      <point x="300" y="404"/>
      <point x="300" y="366" type="qcurve" smooth="yes"/>
      <point x="300" y="333"/>
      <point x="334" y="268"/>
      <point x="391" y="234" type="qcurve" smooth="yes"/>
      <point x="431" y="210"/>
      <point x="456" y="176"/>
      <point x="456" y="160" type="qcurve" smooth="yes"/>
      <point x="456" y="146"/>
      <point x="444" y="128"/>
      <point x="423" y="116"/>
      <point x="387" y="116" type="qcurve"/>
      <point x="298" y="116" type="line"/>
      <point x="298" y="0" type="line"/>
    </contour>
  </outline>
</glyph>
<glyph name="ae" format="2">
  <advance width="820"/>
  <unicode hex="00E6"/>
  <anchor x="409" y="500" name="top"/>
  <outline>
    <contour>
      <point x="216" y="-12" type="qcurve" smooth="yes"/>
      <point x="266" y="-12"/>
      <point x="342" y="22"/>
      <point x="382" y="66"/>
      <point x="392" y="92" type="qcurve"/>
      <point x="404" y="64"/>
      <point x="456" y="20"/>
      <point x="531" y="-12"/>
      <point x="585" y="-12" type="qcurve" smooth="yes"/>
      <point x="641" y="-12"/>
      <point x="735" y="34"/>
      <point x="790" y="120"/>
      <point x="792" y="160" type="qcurve"/>
      <point x="660" y="160" type="line"/>
      <point x="660" y="144"/>
      <point x="642" y="115"/>
      <point x="607" y="94"/>
      <point x="577" y="94" type="qcurve" smooth="yes"/>
      <point x="547" y="94"/>
      <point x="495" y="122"/>
      <point x="468" y="174"/>
      <point x="468" y="210" type="qcurve"/>
      <point x="794" y="210" type="line"/>
      <point x="794" y="260" type="line" smooth="yes"/>
      <point x="794" y="335"/>
      <point x="738" y="450"/>
      <point x="640" y="512"/>
      <point x="578" y="512" type="qcurve" smooth="yes"/>
      <point x="530" y="512"/>
      <point x="464" y="486"/>
      <point x="420" y="446"/>
      <point x="406" y="426" type="qcurve"/>
      <point x="396" y="448"/>
      <point x="352" y="488"/>
      <point x="285" y="512"/>
      <point x="239" y="512" type="qcurve" smooth="yes"/>
      <point x="187" y="512"/>
      <point x="95" y="466"/>
      <point x="46" y="380"/>
      <point x="44" y="340" type="qcurve"/>
      <point x="176" y="340" type="line"/>
      <point x="174" y="364"/>
      <point x="194" y="396"/>
      <point x="225" y="412"/>
      <point x="249" y="412" type="qcurve" smooth="yes"/>
      <point x="273" y="412"/>
      <point x="307" y="394"/>
      <point x="328" y="359"/>
      <point x="328" y="298" type="qcurve"/>
      <point x="274" y="298" type="line" smooth="yes"/>
      <point x="184" y="298"/>
      <point x="80" y="266"/>
      <point x="26" y="190"/>
      <point x="26" y="136" type="qcurve" smooth="yes"/>
      <point x="26" y="90"/>
      <point x="76" y="21"/>
      <point x="156" y="-12"/>
    </contour>
    <contour>
      <point x="227" y="94" type="qcurve" smooth="yes"/>
      <point x="201" y="94"/>
      <point x="175" y="108"/>
      <point x="160" y="132"/>
      <point x="160" y="150" type="qcurve" smooth="yes"/>
      <point x="160" y="170"/>
      <point x="182" y="198"/>
      <point x="240" y="210"/>
      <point x="280" y="210" type="qcurve" smooth="yes"/>
      <point x="328" y="210" type="line"/>
      <point x="326" y="168"/>
      <point x="298" y="118"/>
      <point x="255" y="94"/>
    </contour>
    <contour>
      <point x="470" y="298" type="line"/>
      <point x="472" y="336"/>
      <point x="502" y="388"/>
      <point x="544" y="412"/>
      <point x="572" y="412" type="qcurve" smooth="yes"/>
      <point x="604" y="412"/>
      <point x="642" y="386"/>
      <point x="664" y="338"/>
      <point x="664" y="298" type="qcurve"/>
    </contour>
  </outline>
</glyph>
<glyph name="Hbar" format="2">
  <advance width="744"/>
  <unicode hex="0126"/>
  <anchor x="374" y="0" name="bottom"/>
  <anchor x="374" y="720" name="top"/>
  <outline>
    <contour>
      <point x="16" y="520" type="line"/>
      <point x="728" y="520" type="line"/>
      <point x="728" y="620" type="line"/>
      <point x="16" y="620" type="line"/>
    </contour>
    <component base="H" xOffset="34"/>
  </outline>
</glyph>
<glyph name="idotless" format="2">
  <advance width="256"/>
  <unicode hex="0131"/>
  <anchor x="128" y="0" name="bottom"/>
  <anchor x="187" y="0" name="ogonek"/>
  <anchor x="128" y="500" name="top"/>
  <outline>
    <contour>
      <point x="57" y="0" type="line"/>
      <point x="199" y="0" type="line"/>
      <point x="199" y="500" type="line"/>
      <point x="57" y="500" type="line"/>
    </contour>
  </outline>
</glyph>
<glyph name="ldot" format="2">
  <advance width="382"/>
  <unicode hex="0140"/>
  <anchor x="128" y="0" name="bottom"/>
  <anchor x="373.482" y="361.322" name="top"/>
  <anchor x="210" y="720" name="topright"/>
  <outline>
    <contour>
      <point x="212" y="359" type="qcurve"/>
      <point x="212" y="319"/>
      <point x="258" y="268"/>
      <point x="294" y="268" type="qcurve" smooth="yes"/>
      <point x="302" y="268" type="line" smooth="yes"/>
      <point x="338" y="268"/>
      <point x="381" y="321"/>
      <point x="381" y="361" type="qcurve"/>
      <point x="381" y="401"/>
      <point x="335" y="452"/>
      <point x="299" y="452" type="qcurve" smooth="yes"/>
      <point x="291" y="452" type="line" smooth="yes"/>
      <point x="255" y="452"/>
      <point x="212" y="399"/>
    </contour>
    <component base="l"/>
  </outline>
</glyph>
<glyph name="Lslash" format="2">
  <advance width="526"/>
  <unicode hex="0141"/>
  <anchor x="290" y="0" name="bottom"/>
  <anchor x="396" y="360" name="dot"/>
  <anchor x="133" y="720" name="top"/>
  <anchor x="356" y="720" name="topright"/>
  <outline>
    <contour>
      <point x="0" y="240" type="line"/>
      <point x="440" y="400" type="line"/>
      <point x="440" y="500" type="line"/>
      <point x="0" y="340" type="line"/>
    </contour>
    <component base="L" xOffset="6"/>
  </outline>
</glyph>
<glyph name="lslash" format="2">
  <advance width="300"/>
  <unicode hex="0142"/>
  <anchor x="149" y="0" name="bottom"/>
  <anchor x="148" y="720" name="top"/>
  <anchor x="231" y="720" name="topright"/>
  <outline>
    <contour>
      <point x="0" y="238" type="line"/>
      <point x="300" y="368" type="line"/>
      <point x="300" y="482" type="line"/>
      <point x="0" y="352" type="line"/>
    </contour>
    <component base="l" xOffset="21"/>
  </outline>
</glyph>
<glyph name="Eng" format="2">
  <advance width="694"/>
  <unicode hex="014A"/>
  <outline>
    <contour>
      <point x="58" y="0" type="line"/>
      <point x="204" y="0" type="line"/>
      <point x="204" y="490" type="line"/>
      <point x="486" y="0" type="line"/>
      <point x="636" y="0" type="line"/>
      <point x="636" y="720" type="line"/>
      <point x="490" y="720" type="line"/>
      <point x="490" y="250" type="line"/>
      <point x="216" y="720" type="line"/>
      <point x="58" y="720" type="line"/>
    </contour>
    <component base="hook-1" xOffset="363"/>
  </outline>
</glyph>
<glyph name="florin" format="2">
  <advance width="460"/>
  <unicode hex="0192"/>
  <outline>
    <contour>
      <point x="8" y="-200" type="line"/>
      <point x="154" y="-200" type="line"/>
      <point x="253" y="320" type="line"/>
      <point x="412" y="320" type="line"/>
      <point x="412" y="440" type="line"/>
      <point x="276" y="440" type="line"/>
      <point x="293" y="532" type="line" smooth="yes"/>
      <point x="300" y="568"/>
      <point x="337" y="600"/>
      <point x="373" y="600" type="qcurve" smooth="yes"/>
      <point x="452" y="600" type="line"/>
      <point x="452" y="720" type="line"/>
      <point x="353" y="720" type="line" smooth="yes"/>
      <point x="264" y="720"/>
      <point x="168" y="645"/>
      <point x="153" y="566" type="qcurve" smooth="yes"/>
      <point x="129" y="440" type="line"/>
      <point x="20" y="440" type="line"/>
      <point x="20" y="320" type="line"/>
      <point x="106" y="320" type="line"/>
    </contour>
  </outline>
</glyph>
<glyph name="apostrophemod" format="2">
  <advance width="300"/>
  <unicode hex="02BC"/>
  <outline>
    <contour>
      <point x="66" y="415" type="line"/>
      <point x="178" y="415" type="line"/>
      <point x="232" y="720" type="line"/>
      <point x="116" y="720" type="line"/>
    </contour>
  </outline>
</glyph>
<glyph name="circumflexcomb" format="2">
  <unicode hex="0302"/>
  <anchor x="200" y="500" name="_top"/>
  <anchor x="200" y="720" name="top"/>
  <outline>
    <contour>
      <point x="40" y="560" type="line"/>
      <point x="154" y="560" type="line"/>
      <point x="198" y="651" type="line"/>
      <point x="242" y="560" type="line"/>
      <point x="360" y="560" type="line"/>
      <point x="284" y="720" type="line"/>
      <point x="116" y="720" type="line"/>
    </contour>
  </outline>
</glyph>
<glyph name="dotaccentcomb" format="2">
  <unicode hex="0307"/>
  <anchor x="100" y="500" name="_top"/>
  <anchor x="100" y="720" name="top"/>
  <outline>
    <contour>
      <point x="100" y="558" type="qcurve"/>
      <point x="142" y="558"/>
      <point x="192" y="602"/>
      <point x="192" y="639" type="qcurve" smooth="yes"/>
      <point x="192" y="647" type="line" smooth="yes"/>
      <point x="192" y="684"/>
      <point x="142" y="728"/>
      <point x="100" y="728" type="qcurve"/>
      <point x="58" y="728"/>
      <point x="8" y="684"/>
      <point x="8" y="647" type="qcurve" smooth="yes"/>
      <point x="8" y="639" type="line" smooth="yes"/>
      <point x="8" y="602"/>
      <point x="58" y="558"/>
    </contour>
  </outline>
</glyph>
<glyph name="commaaccentcomb" format="2">
  <unicode hex="0326"/>
  <anchor x="100" y="0" name="_bottom"/>
  <anchor x="100" y="-200" name="bottom"/>
  <outline>
    <contour>
      <point x="10" y="-200" type="line"/>
      <point x="130" y="-200" type="line"/>
      <point x="160" y="-60" type="line"/>
      <point x="36" y="-60" type="line"/>
    </contour>
  </outline>
</glyph>
<glyph name="cedillacomb" format="2">
  <unicode hex="0327"/>
  <anchor x="150" y="0" name="_bottom"/>
  <anchor x="164" y="-200" name="bottom"/>
  <outline>
    <contour>
      <point x="123" y="-228" type="qcurve" smooth="yes"/>
      <point x="191" y="-228"/>
      <point x="260" y="-176"/>
      <point x="260" y="-132" type="qcurve" smooth="yes"/>
      <point x="260" y="-100"/>
      <point x="222" y="-57"/>
      <point x="190" y="-49" type="qcurve"/>
      <point x="222" y="0" type="line"/>
      <point x="112" y="10" type="line"/>
      <point x="66" y="-59" type="line"/>
      <point x="66" y="-89" type="line"/>
      <point x="100" y="-89"/>
      <point x="130" y="-104"/>
      <point x="130" y="-120" type="qcurve" smooth="yes"/>
      <point x="130" y="-130"/>
      <point x="113" y="-144"/>
      <point x="89" y="-144" type="qcurve" smooth="yes"/>
      <point x="64" y="-144"/>
      <point x="40" y="-136" type="qcurve"/>
      <point x="40" y="-216" type="line"/>
      <point x="79" y="-228"/>
    </contour>
  </outline>
</glyph>
<glyph name="strokeshortcomb" format="2">
  <unicode hex="0335"/>
  <anchor x="200" y="240" name="_center"/>
  <outline>
    <contour>
      <point x="20" y="200" type="line"/>
      <point x="380" y="200" type="line"/>
      <point x="380" y="280" type="line"/>
      <point x="20" y="280" type="line"/>
    </contour>
  </outline>
</glyph>
<glyph name="Xi" format="2">
  <advance width="520"/>
  <unicode hex="039E"/>
  <outline>
    <contour>
      <point x="24" y="590" type="line"/>
      <point x="496" y="590" type="line"/>
      <point x="496" y="720" type="line"/>
      <point x="24" y="720" type="line"/>
    </contour>
    <contour>
      <point x="24" y="0" type="line"/>
      <point x="496" y="0" type="line"/>
      <point x="496" y="130" type="line"/>
      <point x="24" y="130" type="line"/>
    </contour>
    <contour>
      <point x="84" y="295" type="line"/>
      <point x="436" y="295" type="line"/>
      <point x="436" y="425" type="line"/>
      <point x="84" y="425" type="line"/>
    </contour>
  </outline>
</glyph>
<glyph name="Omega" format="2">
  <advance width="770"/>
  <unicode hex="03A9"/>
  <outline>
    <contour>
      <point x="40" y="0" type="line"/>
      <point x="330" y="0" type="line"/>
      <point x="330" y="120" type="line"/>
      <point x="294" y="132"/>
      <point x="232" y="204"/>
      <point x="194" y="310"/>
      <point x="194" y="374" type="qcurve" smooth="yes"/>
      <point x="194" y="456"/>
      <point x="251" y="558"/>
      <point x="333" y="604"/>
      <point x="385" y="604" type="qcurve" smooth="yes"/>
      <point x="437" y="604"/>
      <point x="519" y="558"/>
      <point x="576" y="456"/>
      <point x="576" y="374" type="qcurve" smooth="yes"/>
      <point x="576" y="310"/>
      <point x="540" y="204"/>
      <point x="476" y="132"/>
      <point x="440" y="120" type="qcurve"/>
      <point x="440" y="0" type="line"/>
      <point x="730" y="0" type="line"/>
      <point x="730" y="120" type="line"/>
      <point x="610" y="120" type="line"/>
      <point x="638" y="136"/>
      <point x="698" y="221"/>
      <point x="728" y="328"/>
      <point x="728" y="388" type="qcurve" smooth="yes"/>
      <point x="728" y="508"/>
      <point x="633" y="654"/>
      <point x="485" y="732"/>
      <point x="385" y="732" type="qcurve" smooth="yes"/>
      <point x="285" y="732"/>
      <point x="137" y="654"/>
      <point x="42" y="508"/>
      <point x="42" y="388" type="qcurve" smooth="yes"/>
      <point x="42" y="328"/>
      <point x="72" y="221"/>
      <point x="132" y="136"/>
      <point x="160" y="120" type="qcurve"/>
      <point x="40" y="120" type="line"/>
    </contour>
  </outline>
</glyph>
<glyph name="xi" format="2">
  <advance width="520"/>
  <unicode hex="03BE"/>
  <outline>
    <contour>
      <point x="428" y="-200" type="line"/>
      <point x="451" y="-167"/>
      <point x="476" y="-88"/>
      <point x="476" y="-48" type="qcurve" smooth="yes"/>
      <point x="476" y="-17"/>
      <point x="454" y="45"/>
      <point x="391" y="105"/>
      <point x="328" y="135" type="qcurve" smooth="yes"/>
      <point x="290" y="153" type="line" smooth="yes"/>
      <point x="264" y="165"/>
      <point x="233" y="193"/>
      <point x="218" y="222"/>
      <point x="218" y="244" type="qcurve" smooth="yes"/>
      <point x="218" y="270"/>
      <point x="248" y="315"/>
      <point x="314" y="340"/>
      <point x="362" y="340" type="qcurve" smooth="yes"/>
      <point x="428" y="340" type="line"/>
      <point x="428" y="439" type="line"/>
      <point x="363" y="439" type="line" smooth="yes"/>
      <point x="318" y="439"/>
      <point x="269" y="459"/>
      <point x="248" y="493"/>
      <point x="248" y="516" type="qcurve" smooth="yes"/>
      <point x="248" y="542"/>
      <point x="295" y="588"/>
      <point x="392" y="616"/>
      <point x="417" y="620" type="qcurve" smooth="yes"/>
      <point x="463" y="628" type="line"/>
      <point x="463" y="720" type="line"/>
      <point x="91" y="720" type="line"/>
      <point x="91" y="620" type="line"/>
      <point x="210" y="620" type="line"/>
      <point x="179" y="610"/>
      <point x="135" y="577"/>
      <point x="108" y="528"/>
      <point x="108" y="500" type="qcurve" smooth="yes"/>
      <point x="108" y="455"/>
      <point x="171" y="394"/>
      <point x="222" y="386" type="qcurve"/>
      <point x="159" y="370"/>
      <point x="78" y="288"/>
      <point x="78" y="225" type="qcurve" smooth="yes"/>
      <point x="78" y="184"/>
      <point x="112" y="115"/>
      <point x="190" y="57"/>
      <point x="244" y="30" type="qcurve" smooth="yes"/>
      <point x="284" y="10" type="line" smooth="yes"/>
      <point x="306" y="-1"/>
      <point x="331" y="-27"/>
      <point x="342" y="-59"/>
      <point x="342" y="-87" type="qcurve" smooth="yes"/>
      <point x="342" y="-111"/>
      <point x="323" y="-158"/>
      <point x="297" y="-200" type="qcurve"/>
    </contour>
  </outline>
</glyph>
<glyph name="pi" format="2">
  <advance width="660"/>
  <unicode hex="03C0"/>
  <outline>
    <contour>
      <point x="104" y="0" type="line"/>
      <point x="246" y="0" type="line"/>
      <point x="246" y="380" type="line"/>
      <point x="413" y="380" type="line"/>
      <point x="413" y="0" type="line"/>
      <point x="555" y="0" type="line"/>
      <point x="555" y="380" type="line"/>
      <point x="644" y="380" type="line"/>
      <point x="644" y="500" type="line"/>
      <point x="16" y="500" type="line"/>
      <point x="16" y="380" type="line"/>
      <point x="104" y="380" type="line"/>
    </contour>
  </outline>
</glyph>
<glyph name="Lje-cy" format="2">
  <advance width="1030"/>
  <unicode hex="0409"/>
  <outline>
    <contour>
      <point x="616" y="124" type="line"/>
      <point x="616" y="352" type="line"/>
      <point x="714" y="352" type="line" smooth="yes"/>
      <point x="764" y="352"/>
      <point x="820" y="326"/>
      <point x="850" y="274"/>
      <point x="850" y="238" type="qcurve" smooth="yes"/>
      <point x="850" y="202"/>
      <point x="820" y="150"/>
      <point x="764" y="124"/>
      <point x="714" y="124" type="qcurve" smooth="yes"/>
    </contour>
    <contour>
      <point x="616" y="720" type="line"/>
      <point x="142" y="720" type="line"/>
      <point x="142" y="468" type="line" smooth="yes"/>
      <point x="142" y="285"/>
      <point x="127" y="197"/>
      <point x="98" y="152"/>
      <point x="58" y="134"/>
      <point x="20" y="134" type="qcurve"/>
      <point x="20" y="0" type="line"/>
      <point x="90" y="0"/>
      <point x="186" y="20"/>
      <point x="258" y="100"/>
      <point x="280" y="258"/>
      <point x="280" y="452" type="qcurve" smooth="yes"/>
      <point x="280" y="590" type="line"/>
      <point x="466" y="590" type="line"/>
      <point x="466" y="0" type="line"/>
      <point x="736" y="0" type="line" smooth="yes"/>
      <point x="816" y="0"/>
      <point x="938" y="58"/>
      <point x="1000" y="166"/>
      <point x="1000" y="238" type="qcurve" smooth="yes"/>
      <point x="1000" y="310"/>
      <point x="938" y="418"/>
      <point x="816" y="476"/>
      <point x="736" y="476" type="qcurve" smooth="yes"/>
      <point x="616" y="476" type="line"/>
    </contour>
  </outline>
</glyph>
<glyph name="Nje-cy" format="2">
  <advance width="1060"/>
  <unicode hex="040A"/>
  <anchor x="340" y="0" name="bottom"/>
  <anchor x="340" y="720" name="top"/>
  <outline>
    <contour>
      <point x="542" y="435" type="line"/>
      <point x="542" y="305" type="line"/>
      <point x="752" y="305" type="line" smooth="yes"/>
      <point x="800" y="305"/>
      <point x="848" y="287"/>
      <point x="878" y="243"/>
      <point x="878" y="215" type="qcurve" smooth="yes"/>
      <point x="878" y="187"/>
      <point x="848" y="146"/>
      <point x="800" y="126"/>
      <point x="752" y="126" type="qcurve" smooth="yes"/>
      <point x="542" y="126" type="line"/>
      <point x="542" y="0" type="line"/>
      <point x="770" y="0" type="line" smooth="yes"/>
      <point x="850" y="0"/>
      <point x="966" y="51"/>
      <point x="1030" y="151"/>
      <point x="1030" y="215" type="qcurve" smooth="yes"/>
      <point x="1030" y="279"/>
      <point x="966" y="383"/>
      <point x="850" y="435"/>
      <point x="770" y="435" type="qcurve" smooth="yes"/>
    </contour>
    <component base="H"/>
  </outline>
</glyph>
<glyph name="Tshe-cy" format="2">
  <advance width="776"/>
  <unicode hex="040B"/>
  <anchor x="269" y="0" name="bottom"/>
  <anchor x="269" y="720" name="top"/>
  <outline>
    <contour>
      <point x="19" y="592" type="line"/>
      <point x="519" y="592" type="line"/>
      <point x="519" y="720" type="line"/>
      <point x="19" y="720" type="line"/>
    </contour>
    <component base="Che-cy" xScale="-1.0" yScale="-1.0" xOffset="776" yOffset="720"/>
  </outline>
</glyph>
<glyph name="Zhe-cy" format="2">
  <advance width="1000"/>
  <unicode hex="0416"/>
  <anchor x="500" y="0" name="bottom"/>
  <anchor x="500" y="720" name="top"/>
  <outline>
    <contour>
      <point x="348" y="300" type="line"/>
      <point x="652" y="300" type="line"/>
      <point x="818" y="0" type="line"/>
      <point x="980" y="0" type="line"/>
      <point x="781" y="357" type="line"/>
      <point x="974" y="720" type="line"/>
      <point x="822" y="720" type="line"/>
      <point x="668" y="428" type="line"/>
      <point x="332" y="428" type="line"/>
      <point x="178" y="720" type="line"/>
      <point x="26" y="720" type="line"/>
      <point x="219" y="357" type="line"/>
      <point x="20" y="0" type="line"/>
      <point x="182" y="0" type="line"/>
    </contour>
    <contour>
      <point x="573" y="0" type="line"/>
      <point x="573" y="720" type="line"/>
      <point x="427" y="720" type="line"/>
      <point x="427" y="0" type="line"/>
    </contour>
  </outline>
</glyph>
<glyph name="Pe-cy" format="2">
  <advance width="680"/>
  <unicode hex="041F"/>
  <outline>
    <contour>
      <point x="58" y="0" type="line"/>
      <point x="208" y="0" type="line"/>
      <point x="208" y="590" type="line"/>
      <point x="472" y="590" type="line"/>
      <point x="472" y="0" type="line"/>
      <point x="622" y="0" type="line"/>
      <point x="622" y="720" type="line"/>
      <point x="58" y="720" type="line"/>
    </contour>
  </outline>
</glyph>
<glyph name="U-cy" format="2">
  <advance width="660"/>
  <unicode hex="0423"/>
  <anchor x="334" y="720" name="top"/>
  <outline>
    <contour>
      <point x="95" y="0" type="line"/>
      <point x="216" y="0" type="line" smooth="yes"/>
      <point x="264" y="0"/>
      <point x="332" y="26"/>
      <point x="390" y="94"/>
      <point x="415" y="156" type="qcurve" smooth="yes"/>
      <point x="644" y="720" type="line"/>
      <point x="498" y="720" type="line"/>
      <point x="342" y="328" type="line"/>
      <point x="176" y="720" type="line"/>
      <point x="16" y="720" type="line"/>
      <point x="258" y="180" type="line"/>
      <point x="252" y="166"/>
      <point x="238" y="144"/>
      <point x="214" y="130"/>
      <point x="190" y="130" type="qcurve" smooth="yes"/>
      <point x="95" y="130" type="line"/>
    </contour>
  </outline>
</glyph>
<glyph name="Tse-cy" format="2">
  <advance width="740"/>
  <unicode hex="0426"/>
  <outline>
    <contour>
      <point x="582" y="-160" type="line"/>
      <point x="716" y="-160" type="line"/>
      <point x="716" y="130" type="line"/>
      <point x="620" y="130" type="line"/>
      <point x="620" y="720" type="line"/>
      <point x="470" y="720" type="line"/>
      <point x="470" y="130" type="line"/>
      <point x="208" y="130" type="line"/>
      <point x="208" y="720" type="line"/>
      <point x="58" y="720" type="line"/>
      <point x="58" y="0" type="line"/>
      <point x="582" y="0" type="line"/>
    </contour>
  </outline>
</glyph>
<glyph name="Che-cy" format="2">
  <advance width="640"/>
  <unicode hex="0427"/>
  <anchor x="322" y="720" name="top"/>
  <outline>
    <contour>
      <point x="432" y="0" type="line"/>
      <point x="582" y="0" type="line"/>
      <point x="582" y="720" type="line"/>
      <point x="432" y="720" type="line"/>
      <point x="432" y="378" type="line"/>
      <point x="397" y="366"/>
      <point x="340" y="359"/>
      <point x="309" y="359" type="qcurve" smooth="yes"/>
      <point x="250" y="359"/>
      <point x="190" y="419"/>
      <point x="190" y="475" type="qcurve" smooth="yes"/>
      <point x="190" y="720" type="line"/>
      <point x="40" y="720" type="line"/>
      <point x="40" y="450" type="line" smooth="yes"/>
      <point x="40" y="342"/>
      <point x="169" y="226"/>
      <point x="291" y="226" type="qcurve" smooth="yes"/>
      <point x="337" y="226"/>
      <point x="396" y="236"/>
      <point x="432" y="248" type="qcurve"/>
    </contour>
  </outline>
</glyph>
<glyph name="Shcha-cy" format="2">
  <advance width="1036"/>
  <unicode hex="0429"/>
  <outline>
    <contour>
      <point x="878" y="-160" type="line"/>
      <point x="1012" y="-160" type="line"/>
      <point x="1012" y="130" type="line"/>
      <point x="916" y="130" type="line"/>
      <point x="916" y="720" type="line"/>
      <point x="766" y="720" type="line"/>
      <point x="766" y="130" type="line"/>
      <point x="562" y="130" type="line"/>
      <point x="562" y="720" type="line"/>
      <point x="412" y="720" type="line"/>
      <point x="412" y="130" type="line"/>
      <point x="208" y="130" type="line"/>
      <point x="208" y="720" type="line"/>
      <point x="58" y="720" type="line"/>
      <point x="58" y="0" type="line"/>
      <point x="878" y="0" type="line"/>
    </contour>
  </outline>
</glyph>
<glyph name="Yu-cy" format="2">
  <advance width="1000"/>
  <unicode hex="042E"/>
  <anchor x="620" y="0" name="bottom"/>
  <anchor x="704" y="10" name="ogonek"/>
  <anchor x="497" y="720" name="top"/>
  <anchor x="270" y="720" name="topleft"/>
  <outline>
    <contour>
      <point x="58" y="0" type="line"/>
      <point x="204" y="0" type="line"/>
      <point x="204" y="300" type="line"/>
      <point x="354" y="300" type="line"/>
      <point x="354" y="430" type="line"/>
      <point x="204" y="430" type="line"/>
      <point x="204" y="720" type="line"/>
      <point x="58" y="720" type="line"/>
    </contour>
    <component base="O" xOffset="240"/>
  </outline>
</glyph>
<glyph name="be-cy" format="2">
  <advance width="560"/>
  <unicode hex="0431"/>
  <outline>
    <contour>
      <point x="280" y="-12" type="qcurve" smooth="yes"/>
      <point x="358" y="-12"/>
      <point x="474" y="52"/>
      <point x="536" y="166"/>
      <point x="536" y="244" type="qcurve" smooth="yes"/>
      <point x="536" y="318"/>
      <point x="486" y="432"/>
      <point x="384" y="496"/>
      <point x="324" y="496" type="qcurve" smooth="yes"/>
      <point x="280" y="496"/>
      <point x="220" y="472"/>
      <point x="174" y="434"/>
      <point x="162" y="410" type="qcurve"/>
      <point x="166" y="480"/>
      <point x="192" y="552"/>
      <point x="247" y="593"/>
      <point x="299" y="597" type="qcurve" smooth="yes"/>
      <point x="362" y="602" type="line" smooth="yes"/>
      <point x="415" y="606"/>
      <point x="482" y="620"/>
      <point x="504" y="632" type="qcurve"/>
      <point x="504" y="764" type="line"/>
      <point x="474" y="746"/>
      <point x="395" y="726"/>
      <point x="356" y="723" type="qcurve" smooth="yes"/>
      <point x="295" y="718" type="line" smooth="yes"/>
      <point x="217" y="712"/>
      <point x="109" y="656"/>
      <point x="51" y="564"/>
      <point x="24" y="443"/>
      <point x="24" y="320" type="qcurve" smooth="yes"/>
      <point x="24" y="180"/>
      <point x="90" y="52"/>
      <point x="204" y="-12"/>
    </contour>
    <contour>
      <point x="280" y="108" type="qcurve" smooth="yes"/>
      <point x="244" y="108"/>
      <point x="196" y="144"/>
      <point x="170" y="204"/>
      <point x="170" y="244" type="qcurve" smooth="yes"/>
      <point x="170" y="284"/>
      <point x="196" y="344"/>
      <point x="244" y="380"/>
      <point x="280" y="380" type="qcurve" smooth="yes"/>
      <point x="316" y="380"/>
      <point x="364" y="344"/>
      <point x="390" y="284"/>
      <point x="390" y="244" type="qcurve" smooth="yes"/>
      <point x="390" y="204"/>
      <point x="364" y="144"/>
      <point x="316" y="108"/>
    </contour>
  </outline>
</glyph>
<glyph name="ve-cy" format="2">
  <advance width="540"/>
  <unicode hex="0432"/>
  <outline>
    <contour>
      <point x="56" y="0" type="line"/>
      <point x="316" y="0" type="line" smooth="yes"/>
      <point x="409" y="0"/>
      <point x="508" y="72"/>
      <point x="508" y="138" type="qcurve" smooth="yes"/>
      <point x="508" y="184"/>
      <point x="458" y="248"/>
      <point x="412" y="260" type="qcurve"/>
      <point x="456" y="272"/>
      <point x="497" y="328"/>
      <point x="497" y="368" type="qcurve" smooth="yes"/>
      <point x="497" y="429"/>
      <point x="405" y="500"/>
      <point x="316" y="500" type="qcurve" smooth="yes"/>
      <point x="56" y="500" type="line"/>
    </contour>
    <contour>
      <point x="194" y="102" type="line"/>
      <point x="194" y="206" type="line"/>
      <point x="304" y="206" type="line" smooth="yes"/>
      <point x="334" y="206"/>
      <point x="370" y="178"/>
      <point x="370" y="154" type="qcurve" smooth="yes"/>
      <point x="370" y="130"/>
      <point x="334" y="102"/>
      <point x="304" y="102" type="qcurve" smooth="yes"/>
    </contour>
    <contour>
      <point x="194" y="298" type="line"/>
      <point x="194" y="398" type="line"/>
      <point x="295" y="398" type="line" smooth="yes"/>
      <point x="325" y="398"/>
      <point x="359" y="372"/>
      <point x="359" y="348" type="qcurve" smooth="yes"/>
      <point x="359" y="324"/>
      <point x="325" y="298"/>
      <point x="295" y="298" type="qcurve" smooth="yes"/>
    </contour>
  </outline>
</glyph>
<glyph name="ge-cy" format="2">
  <advance width="420"/>
  <unicode hex="0433"/>
  <anchor x="170" y="240" name="center"/>
  <anchor x="240" y="500" name="top"/>
  <outline>
    <contour>
      <point x="56" y="0" type="line"/>
      <point x="198" y="0" type="line"/>
      <point x="198" y="380" type="line"/>
      <point x="400" y="380" type="line"/>
      <point x="400" y="500" type="line"/>
      <point x="56" y="500" type="line"/>
    </contour>
  </outline>
</glyph>
<glyph name="de-cy" format="2">
  <advance width="620"/>
  <unicode hex="0434"/>
  <outline>
    <contour>
      <point x="20" y="-160" type="line"/>
      <point x="150" y="-160" type="line"/>
      <point x="150" y="0" type="line"/>
      <point x="466" y="0" type="line"/>
      <point x="466" y="-160" type="line"/>
      <point x="596" y="-160" type="line"/>
      <point x="596" y="120" type="line"/>
      <point x="516" y="120" type="line"/>
      <point x="516" y="500" type="line"/>
      <point x="120" y="500" type="line"/>
      <point x="118" y="318" type="line" smooth="yes"/>
      <point x="117" y="239"/>
      <point x="107" y="173"/>
      <point x="90" y="128"/>
      <point x="82" y="120" type="qcurve"/>
      <point x="20" y="120" type="line"/>
    </contour>
    <contour>
      <point x="214" y="120" type="line"/>
      <point x="220" y="128"/>
      <point x="234" y="172"/>
      <point x="242" y="228"/>
      <point x="244" y="306" type="qcurve" smooth="yes"/>
      <point x="246" y="380" type="line"/>
      <point x="374" y="380" type="line"/>
      <point x="374" y="120" type="line"/>
    </contour>
  </outline>
</glyph>
<glyph name="ka-cy" format="2">
  <advance width="540"/>
  <unicode hex="043A"/>
  <anchor x="170" y="400" name="center"/>
  <anchor x="264" y="500" name="top"/>
  <outline>
    <contour>
      <point x="56" y="0" type="line"/>
      <point x="196" y="0" type="line"/>
      <point x="196" y="500" type="line"/>
      <point x="56" y="500" type="line"/>
    </contour>
    <contour>
      <point x="362" y="0" type="line"/>
      <point x="524" y="0" type="line"/>
      <point x="360" y="282" type="line"/>
      <point x="200" y="282" type="line"/>
    </contour>
    <contour>
      <point x="202" y="238" type="line"/>
      <point x="348" y="238" type="line"/>
      <point x="516" y="500" type="line"/>
      <point x="368" y="500" type="line"/>
    </contour>
    <contour>
      <point x="120" y="310" type="line"/>
      <point x="120" y="196" type="line"/>
      <point x="278" y="196" type="line"/>
      <point x="278" y="310" type="line"/>
    </contour>
  </outline>
</glyph>
<glyph name="el-cy" format="2">
  <advance width="550"/>
  <unicode hex="043B"/>
  <outline>
    <contour>
      <point x="10" y="0" type="line"/>
      <point x="120" y="0"/>
      <point x="194" y="64"/>
      <point x="228" y="188"/>
      <point x="228" y="318" type="qcurve" smooth="yes"/>
      <point x="228" y="372" type="line"/>
      <point x="352" y="372" type="line"/>
      <point x="352" y="0" type="line"/>
      <point x="494" y="0" type="line"/>
      <point x="494" y="500" type="line"/>
      <point x="105" y="500" type="line"/>
      <point x="105" y="328" type="line" smooth="yes"/>
      <point x="105" y="218"/>
      <point x="83" y="151"/>
      <point x="48" y="120"/>
      <point x="10" y="120" type="qcurve"/>
    </contour>
  </outline>
</glyph>
<glyph name="en-cy" format="2">
  <advance width="560"/>
  <unicode hex="043D"/>
  <outline>
    <contour>
      <point x="56" y="0" type="line"/>
      <point x="198" y="0" type="line"/>
      <point x="198" y="196" type="line"/>
      <point x="362" y="196" type="line"/>
      <point x="362" y="0" type="line"/>
      <point x="504" y="0" type="line"/>
      <point x="504" y="500" type="line"/>
      <point x="362" y="500" type="line"/>
      <point x="362" y="316" type="line"/>
      <point x="198" y="316" type="line"/>
      <point x="198" y="500" type="line"/>
      <point x="56" y="500" type="line"/>
    </contour>
  </outline>
</glyph>
<glyph name="pe-cy" format="2">
  <advance width="560"/>
  <unicode hex="043F"/>
  <anchor x="507" y="0" name="bottomright"/>
  <outline>
    <contour>
      <point x="56" y="0" type="line"/>
      <point x="198" y="0" type="line"/>
      <point x="198" y="380" type="line"/>
      <point x="362" y="380" type="line"/>
      <point x="362" y="0" type="line"/>
      <point x="504" y="0" type="line"/>
      <point x="504" y="500" type="line"/>
      <point x="56" y="500" type="line"/>
    </contour>
  </outline>
</glyph>
<glyph name="ef-cy" format="2">
  <advance width="780"/>
  <unicode hex="0444"/>
  <outline>
    <contour>
      <point x="322" y="-200" type="line"/>
      <point x="458" y="-200" type="line"/>
      <point x="458" y="0" type="line"/>
      <point x="514" y="0" type="line" smooth="yes"/>
      <point x="624" y="0"/>
      <point x="730" y="102"/>
      <point x="730" y="210" type="qcurve" smooth="yes"/>
      <point x="730" y="290" type="line" smooth="yes"/>
      <point x="730" y="398"/>
      <point x="624" y="500"/>
      <point x="514" y="500" type="qcurve" smooth="yes"/>
      <point x="458" y="500" type="line"/>
      <point x="458" y="680" type="line"/>
      <point x="322" y="680" type="line"/>
      <point x="322" y="500" type="line"/>
      <point x="266" y="500" type="line" smooth="yes"/>
      <point x="156" y="500"/>
      <point x="50" y="398"/>
      <point x="50" y="290" type="qcurve" smooth="yes"/>
      <point x="50" y="210" type="line" smooth="yes"/>
      <point x="50" y="102"/>
      <point x="156" y="0"/>
      <point x="266" y="0" type="qcurve" smooth="yes"/>
      <point x="322" y="0" type="line"/>
    </contour>
    <contour>
      <point x="272" y="116" type="line" smooth="yes"/>
      <point x="226" y="116"/>
      <point x="186" y="154"/>
      <point x="186" y="196" type="qcurve" smooth="yes"/>
      <point x="186" y="304" type="line" smooth="yes"/>
      <point x="186" y="346"/>
      <point x="226" y="384"/>
      <point x="272" y="384" type="qcurve" smooth="yes"/>
      <point x="322" y="384" type="line"/>
      <point x="322" y="116" type="line"/>
    </contour>
    <contour>
      <point x="458" y="116" type="line"/>
      <point x="458" y="384" type="line"/>
      <point x="508" y="384" type="line" smooth="yes"/>
      <point x="554" y="384"/>
      <point x="594" y="346"/>
      <point x="594" y="304" type="qcurve" smooth="yes"/>
      <point x="594" y="196" type="line" smooth="yes"/>
      <point x="594" y="154"/>
      <point x="554" y="116"/>
      <point x="508" y="116" type="qcurve" smooth="yes"/>
    </contour>
  </outline>
</glyph>
<glyph name="che-cy" format="2">
  <advance width="520"/>
  <unicode hex="0447"/>
  <anchor x="250" y="500" name="top"/>
  <outline>
    <contour>
      <point x="322" y="0" type="line"/>
      <point x="464" y="0" type="line"/>
      <point x="464" y="500" type="line"/>
      <point x="322" y="500" type="line"/>
      <point x="322" y="287" type="line"/>
      <point x="306" y="281"/>
      <point x="273" y="274"/>
      <point x="255" y="274" type="qcurve" smooth="yes"/>
      <point x="212" y="274"/>
      <point x="178" y="320"/>
      <point x="178" y="377" type="qcurve" smooth="yes"/>
      <point x="178" y="500" type="line"/>
      <point x="36" y="500" type="line"/>
      <point x="36" y="330" type="line" smooth="yes"/>
      <point x="36" y="237"/>
      <point x="127" y="146"/>
      <point x="220" y="146" type="qcurve" smooth="yes"/>
      <point x="260" y="146"/>
      <point x="306" y="158"/>
      <point x="322" y="166" type="qcurve"/>
    </contour>
  </outline>
</glyph>
<glyph name="shcha-cy" format="2">
  <advance width="844"/>
  <unicode hex="0449"/>
  <outline>
    <contour>
      <point x="690" y="-160" type="line"/>
      <point x="820" y="-160" type="line"/>
      <point x="820" y="120" type="line"/>
      <point x="740" y="120" type="line"/>
      <point x="740" y="500" type="line"/>
      <point x="612" y="500" type="line"/>
      <point x="612" y="120" type="line"/>
      <point x="462" y="120" type="line"/>
      <point x="462" y="500" type="line"/>
      <point x="334" y="500" type="line"/>
      <point x="334" y="120" type="line"/>
      <point x="184" y="120" type="line"/>
      <point x="184" y="500" type="line"/>
      <point x="56" y="500" type="line"/>
      <point x="56" y="0" type="line"/>
      <point x="690" y="0" type="line"/>
    </contour>
  </outline>
</glyph>
<glyph name="lje-cy" format="2">
  <advance width="800"/>
  <unicode hex="0459"/>
  <outline>
    <contour>
      <point x="480" y="500" type="line"/>
      <point x="101" y="500" type="line"/>
      <point x="101" y="348" type="line" smooth="yes"/>
      <point x="101" y="238"/>
      <point x="84" y="160"/>
      <point x="48" y="120"/>
      <point x="10" y="120" type="qcurve"/>
      <point x="10" y="0" type="line"/>
      <point x="120" y="0"/>
      <point x="194" y="64"/>
      <point x="228" y="188"/>
      <point x="228" y="318" type="qcurve" smooth="yes"/>
      <point x="228" y="372" type="line"/>
      <point x="340" y="372" type="line"/>
      <point x="340" y="0" type="line"/>
      <point x="571" y="0" type="line" smooth="yes"/>
      <point x="667" y="0"/>
      <point x="776" y="95"/>
      <point x="776" y="177" type="qcurve" smooth="yes"/>
      <point x="776" y="258"/>
      <point x="668" y="349"/>
      <point x="571" y="349" type="qcurve" smooth="yes"/>
      <point x="480" y="349" type="line"/>
    </contour>
    <contour>
      <point x="480" y="116" type="line"/>
      <point x="480" y="233" type="line"/>
      <point x="564" y="233" type="line" smooth="yes"/>
      <point x="597" y="233"/>
      <point x="634" y="203"/>
      <point x="634" y="175" type="qcurve" smooth="yes"/>
      <point x="634" y="147"/>
      <point x="596" y="116"/>
      <point x="564" y="116" type="qcurve" smooth="yes"/>
    </contour>
  </outline>
</glyph>
<glyph name="nje-cy" format="2">
  <advance width="820"/>
  <unicode hex="045A"/>
  <outline>
    <contour>
      <point x="56" y="0" type="line"/>
      <point x="196" y="0" type="line"/>
      <point x="196" y="224" type="line"/>
      <point x="368" y="224" type="line"/>
      <point x="368" y="0" type="line"/>
      <point x="602" y="0" type="line" smooth="yes"/>
      <point x="662" y="0"/>
      <point x="744" y="38"/>
      <point x="796" y="114"/>
      <point x="796" y="168" type="qcurve" smooth="yes"/>
      <point x="796" y="222"/>
      <point x="744" y="298"/>
      <point x="662" y="336"/>
      <point x="602" y="336" type="qcurve" smooth="yes"/>
      <point x="504" y="336" type="line"/>
      <point x="504" y="500" type="line"/>
      <point x="368" y="500" type="line"/>
      <point x="368" y="336" type="line"/>
      <point x="196" y="336" type="line"/>
      <point x="196" y="500" type="line"/>
      <point x="56" y="500" type="line"/>
    </contour>
    <contour>
      <point x="504" y="112" type="line"/>
      <point x="504" y="224" type="line"/>
      <point x="592" y="224" type="line" smooth="yes"/>
      <point x="614" y="224"/>
      <point x="642" y="210"/>
      <point x="656" y="184"/>
      <point x="656" y="168" type="qcurve" smooth="yes"/>
      <point x="656" y="152"/>
      <point x="642" y="126"/>
      <point x="614" y="112"/>
      <point x="592" y="112" type="qcurve" smooth="yes"/>
    </contour>
  </outline>
</glyph>
<glyph name="yat-cy" format="2">
  <advance width="580"/>
  <unicode hex="0463"/>
  <outline>
    <contour>
      <point x="152" y="0" type="line"/>
      <point x="382" y="0" type="line" smooth="yes"/>
      <point x="463" y="0"/>
      <point x="556" y="79"/>
      <point x="556" y="150" type="qcurve" smooth="yes"/>
      <point x="556" y="288"/>
      <point x="366" y="330" type="qcurve" smooth="yes"/>
      <point x="292" y="346" type="line"/>
      <point x="292" y="386" type="line"/>
      <point x="442" y="386" type="line"/>
      <point x="442" y="500" type="line"/>
      <point x="292" y="500" type="line"/>
      <point x="292" y="720" type="line"/>
      <point x="152" y="720" type="line"/>
      <point x="152" y="500" type="line"/>
      <point x="20" y="500" type="line"/>
      <point x="20" y="386" type="line"/>
      <point x="152" y="386" type="line"/>
    </contour>
    <contour>
      <point x="292" y="114" type="line"/>
      <point x="292" y="226" type="line"/>
      <point x="354" y="212" type="line" smooth="yes"/>
      <point x="384" y="205"/>
      <point x="410" y="179"/>
      <point x="410" y="156" type="qcurve" smooth="yes"/>
      <point x="410" y="138"/>
      <point x="385" y="114"/>
      <point x="367" y="114" type="qcurve" smooth="yes"/>
    </contour>
  </outline>
</glyph>
<glyph name="fita-cy" format="2">
  <advance width="560"/>
  <unicode hex="0473"/>
  <anchor x="280" y="0" name="bottom"/>
  <anchor x="364" y="10" name="ogonek"/>
  <anchor x="280" y="500" name="top"/>
  <outline>
    <contour>
      <point x="331" y="180" type="qcurve" smooth="yes"/>
      <point x="351" y="180"/>
      <point x="384" y="198"/>
      <point x="392" y="212" type="qcurve"/>
      <point x="392" y="293" type="line"/>
      <point x="386" y="277"/>
      <point x="364" y="260"/>
      <point x="351" y="260" type="qcurve" smooth="yes"/>
      <point x="335" y="260"/>
      <point x="311" y="276"/>
      <point x="277" y="304"/>
      <point x="249" y="320"/>
      <point x="229" y="320" type="qcurve" smooth="yes"/>
      <point x="209" y="320"/>
      <point x="176" y="302"/>
      <point x="168" y="288" type="qcurve"/>
      <point x="168" y="208" type="line"/>
      <point x="174" y="224"/>
      <point x="195" y="240"/>
      <point x="209" y="240" type="qcurve" smooth="yes"/>
      <point x="225" y="240"/>
      <point x="249" y="224"/>
      <point x="283" y="196"/>
      <point x="311" y="180"/>
    </contour>
    <component base="o"/>
  </outline>
</glyph>
<glyph name="izhitsa-cy" format="2">
  <advance width="560"/>
  <unicode hex="0475"/>
  <outline>
    <contour>
      <point x="181" y="0" type="line"/>
      <point x="323" y="0" type="line"/>
      <point x="412" y="314" type="line" smooth="yes"/>
      <point x="432" y="380"/>
      <point x="505" y="380" type="qcurve" smooth="yes"/>
      <point x="554" y="380" type="line"/>
      <point x="554" y="500" type="line"/>
      <point x="472" y="500" type="line" smooth="yes"/>
      <point x="340" y="500"/>
      <point x="303" y="359" type="qcurve" smooth="yes"/>
      <point x="256" y="180" type="line"/>
      <point x="166" y="500" type="line"/>
      <point x="16" y="500" type="line"/>
    </contour>
  </outline>
</glyph>
<glyph name="Geupturn-cy" format="2">
  <advance width="540"/>
  <unicode hex="0490"/>
  <outline>
    <contour>
      <point x="58" y="0" type="line"/>
      <point x="208" y="0" type="line"/>
      <point x="208" y="590" type="line"/>
      <point x="320" y="590" type="line" smooth="yes"/>
      <point x="404" y="590"/>
      <point x="482" y="624"/>
      <point x="520" y="695"/>
      <point x="520" y="760" type="qcurve" smooth="yes"/>
      <point x="520" y="800" type="line"/>
      <point x="400" y="800" type="line"/>
      <point x="400" y="780" type="line" smooth="yes"/>
      <point x="400" y="755"/>
      <point x="383" y="730"/>
      <point x="342" y="720"/>
      <point x="304" y="720" type="qcurve" smooth="yes"/>
      <point x="58" y="720" type="line"/>
    </contour>
  </outline>
</glyph>
<glyph name="geupturn-cy" format="2">
  <advance width="444"/>
  <unicode hex="0491"/>
  <outline>
    <contour>
      <point x="56" y="0" type="line"/>
      <point x="208" y="0" type="line"/>
      <point x="208" y="380" type="line"/>
      <point x="284" y="380" type="line" smooth="yes"/>
      <point x="424" y="380"/>
      <point x="424" y="550" type="qcurve" smooth="yes"/>
      <point x="424" y="640" type="line"/>
      <point x="304" y="640" type="line"/>
      <point x="304" y="560" type="line" smooth="yes"/>
      <point x="304" y="500"/>
      <point x="244" y="500" type="qcurve" smooth="yes"/>
      <point x="56" y="500" type="line"/>
    </contour>
  </outline>
</glyph>
<glyph name="Kadescender-cy" format="2">
  <advance width="730"/>
  <unicode hex="049A"/>
  <anchor x="160" y="580" name="center"/>
  <anchor x="317" y="720" name="top"/>
  <outline>
    <contour>
      <point x="572" y="-160" type="line"/>
      <point x="706" y="-160" type="line"/>
      <point x="706" y="120" type="line"/>
      <point x="534" y="120" type="line"/>
      <point x="534" y="0" type="line"/>
      <point x="572" y="0" type="line"/>
    </contour>
    <component base="Ka-cy"/>
  </outline>
</glyph>
<glyph name="Kaverticalstroke-cy" format="2">
  <advance width="750"/>
  <unicode hex="049C"/>
  <outline>
    <contour>
      <point x="569" y="0" type="line"/>
      <point x="730" y="0" type="line"/>
      <point x="503" y="370" type="line"/>
      <point x="716" y="720" type="line"/>
      <point x="565" y="720" type="line"/>
      <point x="386" y="425" type="line"/>
      <point x="178" y="425" type="line"/>
      <point x="178" y="307" type="line"/>
      <point x="385" y="307" type="line"/>
    </contour>
    <contour>
      <point x="58" y="0" type="line"/>
      <point x="202" y="0" type="line"/>
      <point x="202" y="720" type="line"/>
      <point x="58" y="720" type="line"/>
    </contour>
    <contour>
      <point x="260" y="150" type="line"/>
      <point x="360" y="150" type="line"/>
      <point x="360" y="590" type="line"/>
      <point x="260" y="590" type="line"/>
    </contour>
  </outline>
</glyph>
<glyph name="kaverticalstroke-cy" format="2">
  <advance width="600"/>
  <unicode hex="049D"/>
  <outline>
    <contour>
      <point x="56" y="0" type="line"/>
      <point x="194" y="0" type="line"/>
      <point x="194" y="194" type="line"/>
      <point x="231" y="194" type="line"/>
      <point x="231" y="100" type="line"/>
      <point x="311" y="100" type="line"/>
      <point x="311" y="194" type="line"/>
      <point x="330" y="194" type="line"/>
      <point x="426" y="0" type="line"/>
      <point x="584" y="0" type="line"/>
      <point x="446" y="261" type="line"/>
      <point x="572" y="500" type="line"/>
      <point x="422" y="500" type="line"/>
      <point x="330" y="314" type="line"/>
      <point x="311" y="314" type="line"/>
      <point x="311" y="420" type="line"/>
      <point x="231" y="420" type="line"/>
      <point x="231" y="314" type="line"/>
      <point x="194" y="314" type="line"/>
      <point x="194" y="500" type="line"/>
      <point x="56" y="500" type="line"/>
    </contour>
  </outline>
</glyph>
<glyph name="Kabashkir-cy" format="2">
  <advance width="810"/>
  <unicode hex="04A0"/>
  <anchor x="447" y="720" name="top"/>
  <outline>
    <contour>
      <point x="20" y="600" type="line"/>
      <point x="188" y="600" type="line"/>
      <point x="188" y="0" type="line"/>
      <point x="334" y="0" type="line"/>
      <point x="334" y="300" type="line"/>
      <point x="520" y="300" type="line"/>
      <point x="520" y="428" type="line"/>
      <point x="334" y="428" type="line"/>
      <point x="334" y="720" type="line"/>
      <point x="20" y="720" type="line"/>
    </contour>
    <contour>
      <point x="618" y="0" type="line"/>
      <point x="790" y="0" type="line"/>
      <point x="572" y="372" type="line"/>
      <point x="402" y="372" type="line"/>
    </contour>
    <contour>
      <point x="410" y="348" type="line"/>
      <point x="562" y="348" type="line"/>
      <point x="780" y="720" type="line"/>
      <point x="626" y="720" type="line"/>
    </contour>
  </outline>
</glyph>
<glyph name="kabashkir-cy" format="2">
  <advance width="620"/>
  <unicode hex="04A1"/>
  <anchor x="334" y="500" name="top"/>
  <outline>
    <contour>
      <point x="136" y="0" type="line"/>
      <point x="276" y="0" type="line"/>
      <point x="276" y="500" type="line"/>
      <point x="16" y="500" type="line"/>
      <point x="16" y="380" type="line"/>
      <point x="136" y="380" type="line"/>
    </contour>
    <contour>
      <point x="442" y="0" type="line"/>
      <point x="604" y="0" type="line"/>
      <point x="440" y="282" type="line"/>
      <point x="280" y="282" type="line"/>
    </contour>
    <contour>
      <point x="282" y="238" type="line"/>
      <point x="428" y="238" type="line"/>
      <point x="596" y="500" type="line"/>
      <point x="448" y="500" type="line"/>
    </contour>
    <contour>
      <point x="200" y="310" type="line"/>
      <point x="200" y="196" type="line"/>
      <point x="358" y="196" type="line"/>
      <point x="358" y="310" type="line"/>
    </contour>
  </outline>
</glyph>
<glyph name="Endescender-cy" format="2">
  <advance width="740"/>
  <unicode hex="04A2"/>
  <anchor x="340" y="0" name="bottom"/>
  <anchor x="340" y="720" name="top"/>
  <outline>
    <contour>
      <point x="582" y="-160" type="line"/>
      <point x="716" y="-160" type="line"/>
      <point x="716" y="120" type="line"/>
      <point x="544" y="120" type="line"/>
      <point x="544" y="0" type="line"/>
      <point x="582" y="0" type="line"/>
    </contour>
    <component base="H"/>
  </outline>
</glyph>
<glyph name="EnGe-cy" format="2">
  <advance width="940"/>
  <unicode hex="04A4"/>
  <anchor x="700" y="720" name="top"/>
  <anchor x="810" y="360" name="dot"/>
  <anchor x="547" y="0" name="bottom"/>
  <anchor x="770" y="0" name="bottomright"/>
  <anchor x="600" y="360" name="center"/>
  <outline>
    <contour>
      <point x="58" y="0" type="line"/>
      <point x="208" y="0" type="line"/>
      <point x="208" y="305" type="line"/>
      <point x="538" y="305" type="line"/>
      <point x="538" y="435" type="line"/>
      <point x="208" y="435" type="line"/>
      <point x="208" y="720" type="line"/>
      <point x="58" y="720" type="line"/>
    </contour>
    <component base="Ge-cy" xOffset="420"/>
  </outline>
</glyph>
<glyph name="Pemiddlehook-cy" format="2">
  <advance width="1034"/>
  <unicode hex="04A6"/>
  <outline>
    <contour>
      <point x="58" y="0" type="line"/>
      <point x="208" y="0" type="line"/>
      <point x="208" y="590" type="line"/>
      <point x="462" y="590" type="line"/>
      <point x="462" y="0" type="line"/>
      <point x="612" y="0" type="line"/>
      <point x="612" y="720" type="line"/>
      <point x="58" y="720" type="line"/>
    </contour>
    <component base="paunch-1" xOffset="592"/>
  </outline>
</glyph>
<glyph name="pemiddlehook-cy" format="2">
  <advance width="846"/>
  <unicode hex="04A7"/>
  <outline>
    <contour>
      <point x="56" y="0" type="line"/>
      <point x="198" y="0" type="line"/>
      <point x="198" y="372" type="line"/>
      <point x="356" y="372" type="line"/>
      <point x="356" y="0" type="line"/>
      <point x="498" y="0" type="line"/>
      <point x="498" y="500" type="line"/>
      <point x="56" y="500" type="line"/>
    </contour>
    <component base="paunch-2" xOffset="480"/>
  </outline>
</glyph>
<glyph name="Haabkhasian-cy" format="2">
  <advance width="940"/>
  <unicode hex="04A8"/>
  <outline>
    <contour>
      <point x="419" y="-10" type="qcurve" smooth="yes"/>
      <point x="545" y="-10"/>
      <point x="740" y="83"/>
      <point x="860" y="260"/>
      <point x="860" y="380" type="qcurve" smooth="yes"/>
      <point x="860" y="462"/>
      <point x="798" y="586"/>
      <point x="688" y="652"/>
      <point x="616" y="652" type="qcurve" smooth="yes"/>
      <point x="544" y="652"/>
      <point x="434" y="586"/>
      <point x="373" y="462"/>
      <point x="373" y="380" type="qcurve" smooth="yes"/>
      <point x="373" y="248"/>
      <point x="491" y="74"/>
      <point x="691" y="0"/>
      <point x="833" y="0" type="qcurve" smooth="yes"/>
      <point x="920" y="0" type="line"/>
      <point x="920" y="120" type="line"/>
      <point x="853" y="120" type="line" smooth="yes"/>
      <point x="732" y="120"/>
      <point x="596" y="169"/>
      <point x="519" y="296"/>
      <point x="519" y="370" type="qcurve" smooth="yes"/>
      <point x="519" y="422"/>
      <point x="542" y="488"/>
      <point x="586" y="524"/>
      <point x="616" y="524" type="qcurve" smooth="yes"/>
      <point x="646" y="524"/>
      <point x="689" y="488"/>
      <point x="714" y="422"/>
      <point x="714" y="370" type="qcurve" smooth="yes"/>
      <point x="714" y="296"/>
      <point x="628" y="169"/>
      <point x="485" y="118"/>
      <point x="419" y="118" type="qcurve" smooth="yes"/>
      <point x="353" y="118"/>
      <point x="246" y="176"/>
      <point x="190" y="287"/>
      <point x="190" y="360" type="qcurve" smooth="yes"/>
      <point x="190" y="440"/>
      <point x="239" y="548"/>
      <point x="333" y="602"/>
      <point x="399" y="602" type="qcurve"/>
      <point x="399" y="732" type="line"/>
      <point x="293" y="732"/>
      <point x="133" y="646"/>
      <point x="40" y="480"/>
      <point x="40" y="360" type="qcurve" smooth="yes"/>
      <point x="40" y="240"/>
      <point x="138" y="78"/>
      <point x="313" y="-10"/>
    </contour>
  </outline>
</glyph>
<glyph name="haabkhasian-cy" format="2">
  <advance width="800"/>
  <unicode hex="04A9"/>
  <outline>
    <contour>
      <point x="360" y="-12" type="qcurve" smooth="yes"/>
      <point x="460" y="-12"/>
      <point x="629" y="70"/>
      <point x="728" y="212"/>
      <point x="728" y="298" type="qcurve" smooth="yes"/>
      <point x="728" y="357"/>
      <point x="674" y="455"/>
      <point x="576" y="512"/>
      <point x="513" y="512" type="qcurve" smooth="yes"/>
      <point x="449" y="512"/>
      <point x="350" y="458"/>
      <point x="296" y="361"/>
      <point x="296" y="298" type="qcurve" smooth="yes"/>
      <point x="296" y="198"/>
      <point x="395" y="64"/>
      <point x="564" y="-1"/>
      <point x="671" y="-1" type="qcurve" smooth="yes"/>
      <point x="786" y="-1" type="line"/>
      <point x="786" y="113" type="line"/>
      <point x="671" y="113" type="line" smooth="yes"/>
      <point x="586" y="113"/>
      <point x="483" y="146"/>
      <point x="434" y="230"/>
      <point x="434" y="288" type="qcurve" smooth="yes"/>
      <point x="434" y="320"/>
      <point x="452" y="366"/>
      <point x="489" y="392"/>
      <point x="513" y="392" type="qcurve" smooth="yes"/>
      <point x="537" y="392"/>
      <point x="570" y="366"/>
      <point x="590" y="320"/>
      <point x="590" y="288" type="qcurve"/>
      <point x="590" y="230"/>
      <point x="543" y="146"/>
      <point x="444" y="104"/>
      <point x="360" y="104" type="qcurve" smooth="yes"/>
      <point x="292" y="104"/>
      <point x="208" y="146"/>
      <point x="166" y="217"/>
      <point x="166" y="269" type="qcurve" smooth="yes"/>
      <point x="166" y="303"/>
      <point x="186" y="353"/>
      <point x="232" y="382"/>
      <point x="268" y="382" type="qcurve"/>
      <point x="268" y="512" type="line"/>
      <point x="200" y="512"/>
      <point x="88" y="458"/>
      <point x="24" y="347"/>
      <point x="24" y="269" type="qcurve" smooth="yes"/>
      <point x="24" y="185"/>
      <point x="109" y="53"/>
      <point x="258" y="-12"/>
    </contour>
  </outline>
</glyph>
<glyph name="ustraight-cy" format="2">
  <advance width="508"/>
  <unicode hex="04AF"/>
  <outline>
    <contour>
      <point x="184" y="-200" type="line"/>
      <point x="326" y="-200" type="line"/>
      <point x="326" y="-34" type="line"/>
      <point x="492" y="500" type="line"/>
      <point x="350" y="500" type="line"/>
      <point x="260" y="140" type="line"/>
      <point x="166" y="500" type="line"/>
      <point x="16" y="500" type="line"/>
      <point x="184" y="-34" type="line"/>
    </contour>
  </outline>
</glyph>
<glyph name="Ustraightstroke-cy" format="2">
  <advance width="660"/>
  <unicode hex="04B0"/>
  <anchor x="330" y="0" name="bottom"/>
  <anchor x="330" y="720" name="top"/>
  <outline>
    <contour>
      <point x="99" y="190" type="line"/>
      <point x="565" y="190" type="line"/>
      <point x="565" y="290" type="line"/>
      <point x="99" y="290" type="line"/>
    </contour>
    <component base="Y"/>
  </outline>
</glyph>
<glyph name="ustraightstroke-cy" format="2">
  <advance width="508"/>
  <unicode hex="04B1"/>
  <outline>
    <contour>
      <point x="184" y="-200" type="line"/>
      <point x="326" y="-200" type="line"/>
      <point x="326" y="-34" type="line"/>
      <point x="486" y="-34" type="line"/>
      <point x="486" y="66" type="line"/>
      <point x="357" y="66" type="line"/>
      <point x="492" y="500" type="line"/>
      <point x="350" y="500" type="line"/>
      <point x="260" y="132" type="line"/>
      <point x="166" y="500" type="line"/>
      <point x="16" y="500" type="line"/>
      <point x="153" y="66" type="line"/>
      <point x="21" y="66" type="line"/>
      <point x="21" y="-34" type="line"/>
      <point x="184" y="-34" type="line"/>
    </contour>
  </outline>
</glyph>
<glyph name="Hadescender-cy" format="2">
  <advance width="710"/>
  <unicode hex="04B2"/>
  <anchor x="326" y="0" name="bottom"/>
  <anchor x="326" y="720" name="top"/>
  <outline>
    <contour>
      <point x="552" y="-160" type="line"/>
      <point x="686" y="-160" type="line"/>
      <point x="686" y="120" type="line"/>
      <point x="514" y="120" type="line"/>
      <point x="514" y="0" type="line"/>
      <point x="552" y="0" type="line"/>
    </contour>
    <component base="X"/>
  </outline>
</glyph>
<glyph name="tetse-cy" format="2">
  <advance width="680"/>
  <unicode hex="04B5"/>
  <outline>
    <contour>
      <point x="20" y="380" type="line"/>
      <point x="380" y="380" type="line"/>
      <point x="380" y="500" type="line"/>
      <point x="20" y="500" type="line"/>
    </contour>
    <component base="tse-cy" xOffset="80"/>
  </outline>
</glyph>
<glyph name="chedescender-cy" format="2">
  <advance width="560"/>
  <unicode hex="04B7"/>
  <anchor x="250" y="500" name="top"/>
  <outline>
    <contour>
      <point x="406" y="-160" type="line"/>
      <point x="536" y="-160" type="line"/>
      <point x="536" y="110" type="line"/>
      <point x="370" y="110" type="line"/>
      <point x="370" y="0" type="line"/>
      <point x="406" y="0" type="line"/>
    </contour>
    <component base="che-cy"/>
  </outline>
</glyph>
<glyph name="chedescenderabkhasian-cy" format="2">
  <advance width="640"/>
  <unicode hex="04BF"/>
  <anchor x="381" y="0" name="bottom"/>
  <anchor x="453" y="0" name="ogonek"/>
  <anchor x="381" y="500" name="top"/>
  <outline>
    <contour>
      <point x="327" y="-160" type="line"/>
      <point x="447" y="-160" type="line"/>
      <point x="447" y="42" type="line"/>
      <point x="327" y="42" type="line"/>
    </contour>
    <component base="cheabkhasian-cy"/>
  </outline>
</glyph>
<glyph name="kahook-cy" format="2">
  <advance width="560"/>
  <unicode hex="04C4"/>
  <outline>
    <contour>
      <point x="242" y="-200" type="line"/>
      <point x="286" y="-200" type="line" smooth="yes"/>
      <point x="397" y="-200"/>
      <point x="520" y="-74"/>
      <point x="520" y="38" type="qcurve" smooth="yes"/>
      <point x="520" y="132"/>
      <point x="447" y="260"/>
      <point x="378" y="286" type="qcurve"/>
      <point x="536" y="500" type="line"/>
      <point x="380" y="500" type="line"/>
      <point x="241" y="304" type="line"/>
      <point x="194" y="304" type="line"/>
      <point x="194" y="500" type="line"/>
      <point x="56" y="500" type="line"/>
      <point x="56" y="0" type="line"/>
      <point x="194" y="0" type="line"/>
      <point x="194" y="184" type="line"/>
      <point x="263" y="184" type="line" smooth="yes"/>
      <point x="320" y="184"/>
      <point x="378" y="110"/>
      <point x="378" y="38" type="qcurve" smooth="yes"/>
      <point x="378" y="-18"/>
      <point x="319" y="-88"/>
      <point x="271" y="-88" type="qcurve" smooth="yes"/>
      <point x="242" y="-88" type="line"/>
    </contour>
  </outline>
</glyph>
<glyph name="Obarred-cy" format="2">
  <advance width="760"/>
  <unicode hex="04E8"/>
  <anchor x="380" y="0" name="bottom"/>
  <anchor x="464" y="10" name="ogonek"/>
  <anchor x="380" y="720" name="top"/>
  <anchor x="30" y="720" name="topleft"/>
  <outline>
    <contour>
      <point x="128" y="299" type="line"/>
      <point x="628" y="299" type="line"/>
      <point x="628" y="421" type="line"/>
      <point x="128" y="421" type="line"/>
    </contour>
    <component base="O"/>
  </outline>
</glyph>
<glyph name="hahook-cy" format="2">
  <advance width="520"/>
  <unicode hex="04FD"/>
  <anchor x="260" y="0" name="bottom"/>
  <anchor x="260" y="500" name="top"/>
  <outline>
    <contour>
      <point x="273" y="-200" type="line"/>
      <point x="354" y="-200" type="line" smooth="yes"/>
      <point x="434" y="-200"/>
      <point x="516" y="-123"/>
      <point x="516" y="-50" type="qcurve" smooth="yes"/>
      <point x="516" y="-17"/>
      <point x="493" y="58"/>
      <point x="466" y="100" type="qcurve" smooth="yes"/>
      <point x="368" y="252" type="line"/>
      <point x="490" y="500" type="line"/>
      <point x="340" y="500" type="line"/>
      <point x="268" y="336" type="line"/>
      <point x="194" y="500" type="line"/>
      <point x="24" y="500" type="line"/>
      <point x="159" y="251" type="line"/>
      <point x="16" y="0" type="line"/>
      <point x="166" y="0" type="line"/>
      <point x="260" y="178" type="line"/>
      <point x="337" y="44" type="line" smooth="yes"/>
      <point x="358" y="7"/>
      <point x="372" y="-30"/>
      <point x="372" y="-46" type="qcurve" smooth="yes"/>
      <point x="372" y="-65"/>
      <point x="347" y="-88"/>
      <point x="328" y="-88" type="qcurve" smooth="yes"/>
      <point x="273" y="-88" type="line"/>
    </contour>
  </outline>
</glyph>
<glyph name="Germandbls" format="2">
  <advance width="680"/>
  <unicode hex="1E9E"/>
  <outline>
    <contour>
      <point x="432" y="0" type="line"/>
      <point x="496" y="0"/>
      <point x="586" y="28"/>
      <point x="650" y="122"/>
      <point x="650" y="188" type="qcurve" smooth="yes"/>
      <point x="650" y="238"/>
      <point x="608" y="313"/>
      <point x="565" y="340" type="qcurve" smooth="yes"/>
      <point x="504" y="379" type="line" smooth="yes"/>
      <point x="486" y="390"/>
      <point x="460" y="412"/>
      <point x="460" y="434" type="qcurve" smooth="yes"/>
      <point x="460" y="449"/>
      <point x="473" y="474"/>
      <point x="484" y="487" type="qcurve" smooth="yes"/>
      <point x="606" y="632" type="line"/>
      <point x="606" y="720" type="line"/>
      <point x="58" y="720" type="line"/>
      <point x="58" y="0" type="line"/>
      <point x="208" y="0" type="line"/>
      <point x="208" y="596" type="line"/>
      <point x="426" y="596" type="line"/>
      <point x="359" y="515" type="line" smooth="yes"/>
      <point x="341" y="493"/>
      <point x="308" y="436"/>
      <point x="308" y="404" type="qcurve" smooth="yes"/>
      <point x="308" y="352"/>
      <point x="358" y="298"/>
      <point x="400" y="274" type="qcurve" smooth="yes"/>
      <point x="460" y="240" type="line" smooth="yes"/>
      <point x="482" y="228"/>
      <point x="500" y="198"/>
      <point x="500" y="182" type="qcurve" smooth="yes"/>
      <point x="500" y="162"/>
      <point x="484" y="134"/>
      <point x="454" y="120"/>
      <point x="430" y="120" type="qcurve"/>
      <point x="308" y="120" type="line"/>
      <point x="308" y="0" type="line"/>
    </contour>
  </outline>
</glyph>
<glyph name="endash" format="2">
  <advance width="620"/>
  <unicode hex="2013"/>
  <outline>
    <contour>
      <point x="50" y="200" type="line"/>
      <point x="570" y="200" type="line"/>
      <point x="570" y="320" type="line"/>
      <point x="50" y="320" type="line"/>
    </contour>
  </outline>
</glyph>
<glyph name="daggerdbl" format="2">
  <advance width="520"/>
  <unicode hex="2021"/>
  <outline>
    <contour>
      <point x="190" y="100" type="line"/>
      <point x="330" y="100" type="line"/>
      <point x="330" y="222" type="line"/>
      <point x="500" y="222" type="line"/>
      <point x="500" y="342" type="line"/>
      <point x="330" y="342" type="line"/>
      <point x="330" y="478" type="line"/>
      <point x="500" y="478" type="line"/>
      <point x="500" y="598" type="line"/>
      <point x="330" y="598" type="line"/>
      <point x="330" y="720" type="line"/>
      <point x="190" y="720" type="line"/>
      <point x="190" y="598" type="line"/>
      <point x="20" y="598" type="line"/>
      <point x="20" y="478" type="line"/>
      <point x="190" y="478" type="line"/>
      <point x="190" y="342" type="line"/>
      <point x="20" y="342" type="line"/>
      <point x="20" y="222" type="line"/>
      <point x="190" y="222" type="line"/>
    </contour>
  </outline>
</glyph>
<glyph name="bullet" format="2">
  <advance width="400"/>
  <unicode hex="2022"/>
  <outline>
    <contour>
      <point x="200" y="100" type="qcurve" smooth="yes"/>
      <point x="268" y="100"/>
      <point x="360" y="192"/>
      <point x="360" y="260" type="qcurve" smooth="yes"/>
      <point x="360" y="328"/>
      <point x="268" y="420"/>
      <point x="200" y="420" type="qcurve" smooth="yes"/>
      <point x="132" y="420"/>
      <point x="40" y="328"/>
      <point x="40" y="260" type="qcurve" smooth="yes"/>
      <point x="40" y="192"/>
      <point x="132" y="100"/>
    </contour>
  </outline>
</glyph>
<glyph name="guilsinglleft" format="2">
  <advance width="400"/>
  <unicode hex="2039"/>
  <outline>
    <contour>
      <point x="194" y="60" type="line"/>
      <point x="348" y="60" type="line"/>
      <point x="192" y="260" type="line"/>
      <point x="348" y="460" type="line"/>
      <point x="194" y="460" type="line"/>
      <point x="42" y="260" type="line"/>
    </contour>
  </outline>
</glyph>
<glyph name="hryvnia" format="2">
  <advance width="600"/>
  <unicode hex="20B4"/>
  <outline>
    <contour>
      <point x="296" y="-12" type="qcurve" smooth="yes"/>
      <point x="363" y="-12"/>
      <point x="470" y="38"/>
      <point x="522" y="138"/>
      <point x="522" y="210" type="qcurve"/>
      <point x="386" y="210" type="line"/>
      <point x="386" y="167"/>
      <point x="367" y="122"/>
      <point x="323" y="102"/>
      <point x="295" y="102" type="qcurve" smooth="yes"/>
      <point x="267" y="102"/>
      <point x="233" y="118"/>
      <point x="214" y="148"/>
      <point x="214" y="168" type="qcurve" smooth="yes"/>
      <point x="214" y="180"/>
      <point x="219" y="205"/>
      <point x="241" y="235"/>
      <point x="264" y="255" type="qcurve" smooth="yes"/>
      <point x="437" y="401" type="line" smooth="yes"/>
      <point x="473" y="431"/>
      <point x="502" y="483"/>
      <point x="512" y="529"/>
      <point x="512" y="561" type="qcurve" smooth="yes"/>
      <point x="512" y="605"/>
      <point x="459" y="688"/>
      <point x="363" y="732"/>
      <point x="296" y="732" type="qcurve" smooth="yes"/>
      <point x="224" y="732"/>
      <point x="124" y="676"/>
      <point x="76" y="582"/>
      <point x="76" y="510" type="qcurve"/>
      <point x="212" y="510" type="line"/>
      <point x="212" y="558"/>
      <point x="233" y="598"/>
      <point x="269" y="618"/>
      <point x="297" y="618" type="qcurve" smooth="yes"/>
      <point x="321" y="618"/>
      <point x="355" y="606"/>
      <point x="376" y="579"/>
      <point x="376" y="559" type="qcurve" smooth="yes"/>
      <point x="376" y="543"/>
      <point x="364" y="519"/>
      <point x="344" y="499"/>
      <point x="337" y="493" type="qcurve" smooth="yes"/>
      <point x="168" y="349" type="line" smooth="yes"/>
      <point x="124" y="311"/>
      <point x="91" y="256"/>
      <point x="78" y="202"/>
      <point x="78" y="166" type="qcurve" smooth="yes"/>
      <point x="78" y="118"/>
      <point x="130" y="34"/>
      <point x="225" y="-12"/>
    </contour>
    <contour>
      <point x="20" y="330" type="line"/>
      <point x="580" y="330" type="line"/>
      <point x="580" y="410" type="line"/>
      <point x="20" y="410" type="line"/>
    </contour>
  </outline>
</glyph>
<glyph name="tenge" format="2">
  <advance width="600"/>
  <unicode hex="20B8"/>
  <outline>
    <contour>
      <point x="229" y="0" type="line"/>
      <point x="371" y="0" type="line"/>
      <point x="371" y="460" type="line"/>
      <point x="560" y="460" type="line"/>
      <point x="560" y="580" type="line"/>
      <point x="40" y="580" type="line"/>
      <point x="40" y="460" type="line"/>
      <point x="229" y="460" type="line"/>
    </contour>
    <contour>
      <point x="40" y="640" type="line"/>
      <point x="560" y="640" type="line"/>
      <point x="560" y="720" type="line"/>
      <point x="40" y="720" type="line"/>
    </contour>
  </outline>
</glyph>
<glyph name="asteriskabovecomb" format="2">
  <unicode hex="20F0"/>
  <outline>
    <contour>
      <point x="126" y="566" type="line"/>
      <point x="176" y="566" type="line"/>
      <point x="176" y="640" type="line"/>
      <point x="240" y="604" type="line"/>
      <point x="264" y="646" type="line"/>
      <point x="200" y="684" type="line"/>
      <point x="264" y="720" type="line"/>
      <point x="240" y="762" type="line"/>
      <point x="176" y="726" type="line"/>
      <point x="176" y="800" type="line"/>
      <point x="126" y="800" type="line"/>
      <point x="126" y="726" type="line"/>
      <point x="60" y="762" type="line"/>
      <point x="36" y="720" type="line"/>
      <point x="100" y="682" type="line"/>
      <point x="36" y="646" type="line"/>
      <point x="60" y="604" type="line"/>
      <point x="126" y="640" type="line"/>
    </contour>
  </outline>
</glyph>
<glyph name="literSign" format="2">
  <advance width="420"/>
  <unicode hex="2113"/>
  <outline>
    <contour>
      <point x="224" y="0" type="qcurve" smooth="yes"/>
      <point x="380" y="0" type="line"/>
      <point x="380" y="114" type="line"/>
      <point x="264" y="114" type="line" smooth="yes"/>
      <point x="240" y="114"/>
      <point x="216" y="138"/>
      <point x="216" y="162" type="qcurve" smooth="yes"/>
      <point x="216" y="281" type="line"/>
      <point x="318" y="355"/>
      <point x="410" y="489"/>
      <point x="410" y="564" type="qcurve" smooth="yes"/>
      <point x="410" y="642"/>
      <point x="319" y="732"/>
      <point x="243" y="732" type="qcurve" smooth="yes"/>
      <point x="166" y="732"/>
      <point x="76" y="643"/>
      <point x="76" y="564" type="qcurve" smooth="yes"/>
      <point x="76" y="333" type="line"/>
      <point x="10" y="283" type="line"/>
      <point x="10" y="153" type="line"/>
      <point x="76" y="199" type="line"/>
      <point x="76" y="140" type="line" smooth="yes"/>
      <point x="76" y="68"/>
      <point x="150" y="0"/>
    </contour>
    <contour>
      <point x="216" y="427" type="qcurve"/>
      <point x="216" y="567" type="line" smooth="yes"/>
      <point x="216" y="591"/>
      <point x="229" y="612"/>
      <point x="243" y="612" type="qcurve" smooth="yes"/>
      <point x="257" y="612"/>
      <point x="270" y="591"/>
      <point x="270" y="567" type="qcurve" smooth="yes"/>
      <point x="270" y="519"/>
      <point x="247" y="454"/>
    </contour>
  </outline>
</glyph>
<glyph name="numero" format="2">
  <advance width="1100"/>
  <unicode hex="2116"/>
  <anchor x="870" y="520" name="_center"/>
  <outline>
    <contour>
      <point x="60" y="0" type="line"/>
      <point x="210" y="0" type="line"/>
      <point x="210" y="462" type="line"/>
      <point x="471" y="0" type="line"/>
      <point x="622" y="0" type="line"/>
      <point x="622" y="720" type="line"/>
      <point x="472" y="720" type="line"/>
      <point x="472" y="258" type="line"/>
      <point x="211" y="720" type="line"/>
      <point x="60" y="720" type="line"/>
    </contour>
    <contour>
      <point x="716" y="150" type="line"/>
      <point x="1025" y="150" type="line"/>
      <point x="1025" y="250" type="line"/>
      <point x="716" y="250" type="line"/>
    </contour>
    <component base="zero.numr" xOffset="700"/>
  </outline>
</glyph>
<glyph name="servicemark" format="2">
  <advance width="860"/>
  <unicode hex="2120"/>
  <outline>
    <contour>
      <point x="379" y="360" type="line"/>
      <point x="491" y="360" type="line"/>
      <point x="491" y="580" type="line"/>
      <point x="555" y="360" type="line"/>
      <point x="641" y="360" type="line"/>
      <point x="706" y="580" type="line"/>
      <point x="706" y="360" type="line"/>
      <point x="828" y="360" type="line"/>
      <point x="828" y="720" type="line"/>
      <point x="672" y="720" type="line"/>
      <point x="602" y="500" type="line"/>
      <point x="541" y="720" type="line"/>
      <point x="379" y="720" type="line"/>
    </contour>
    <contour>
      <point x="178" y="352" type="qcurve" smooth="yes"/>
      <point x="251" y="352"/>
      <point x="333" y="413"/>
      <point x="333" y="468" type="qcurve" smooth="yes"/>
      <point x="333" y="513"/>
      <point x="287" y="570"/>
      <point x="226" y="582" type="qcurve" smooth="yes"/>
      <point x="184" y="590" type="line" smooth="yes"/>
      <point x="159" y="595"/>
      <point x="143" y="612"/>
      <point x="143" y="624" type="qcurve" smooth="yes"/>
      <point x="143" y="636"/>
      <point x="161" y="649"/>
      <point x="175" y="649" type="qcurve" smooth="yes"/>
      <point x="189" y="649"/>
      <point x="206" y="636"/>
      <point x="206" y="618" type="qcurve"/>
      <point x="322" y="618" type="line"/>
      <point x="319" y="675"/>
      <point x="240" y="729"/>
      <point x="175" y="729" type="qcurve" smooth="yes"/>
      <point x="106" y="729"/>
      <point x="24" y="664"/>
      <point x="24" y="611" type="qcurve" smooth="yes"/>
      <point x="24" y="569"/>
      <point x="74" y="511"/>
      <point x="122" y="500" type="qcurve" smooth="yes"/>
      <point x="176" y="488" type="line" smooth="yes"/>
      <point x="196" y="484"/>
      <point x="214" y="470"/>
      <point x="214" y="458" type="qcurve" smooth="yes"/>
      <point x="214" y="446"/>
      <point x="194" y="431"/>
      <point x="178" y="431" type="qcurve" smooth="yes"/>
      <point x="160" y="431"/>
      <point x="140" y="444"/>
      <point x="140" y="462" type="qcurve"/>
      <point x="24" y="462" type="line"/>
      <point x="26" y="406"/>
      <point x="98" y="352"/>
    </contour>
  </outline>
</glyph>
<glyph name="trademark" format="2">
  <advance width="860"/>
  <unicode hex="2122"/>
  <outline>
    <contour>
      <point x="379" y="360" type="line"/>
      <point x="491" y="360" type="line"/>
      <point x="491" y="580" type="line"/>
      <point x="555" y="360" type="line"/>
      <point x="641" y="360" type="line"/>
      <point x="706" y="580" type="line"/>
      <point x="706" y="360" type="line"/>
      <point x="828" y="360" type="line"/>
      <point x="828" y="720" type="line"/>
      <point x="672" y="720" type="line"/>
      <point x="602" y="500" type="line"/>
      <point x="541" y="720" type="line"/>
      <point x="379" y="720" type="line"/>
    </contour>
    <contour>
      <point x="114" y="360" type="line"/>
      <point x="240" y="360" type="line"/>
      <point x="240" y="623" type="line"/>
      <point x="342" y="623" type="line"/>
      <point x="342" y="720" type="line"/>
      <point x="12" y="720" type="line"/>
      <point x="12" y="623" type="line"/>
      <point x="114" y="623" type="line"/>
    </contour>
  </outline>
</glyph>
<glyph name="estimated" format="2">
  <advance width="860"/>
  <unicode hex="212E"/>
  <anchor x="430" y="360" name="center"/>
  <outline>
    <contour>
      <point x="437" y="160" type="qcurve" smooth="yes"/>
      <point x="503" y="160"/>
      <point x="601" y="227"/>
      <point x="621" y="286" type="qcurve"/>
      <point x="531" y="286" type="line"/>
      <point x="523" y="260"/>
      <point x="473" y="230"/>
      <point x="437" y="230" type="qcurve" smooth="yes"/>
      <point x="415" y="230"/>
      <point x="376" y="240"/>
      <point x="362" y="252" type="qcurve"/>
      <point x="362" y="331" type="line"/>
      <point x="628" y="331" type="line"/>
      <point x="628" y="360" type="line" smooth="yes"/>
      <point x="628" y="421"/>
      <point x="576" y="510"/>
      <point x="486" y="560"/>
      <point x="430" y="560" type="qcurve" smooth="yes"/>
      <point x="373" y="560"/>
      <point x="284" y="508"/>
      <point x="232" y="418"/>
      <point x="232" y="360" type="qcurve" smooth="yes"/>
      <point x="232" y="303"/>
      <point x="285" y="212"/>
      <point x="378" y="160"/>
    </contour>
    <contour>
      <point x="362" y="399" type="line"/>
      <point x="362" y="471" type="line"/>
      <point x="372" y="481"/>
      <point x="406" y="492"/>
      <point x="430" y="492" type="qcurve" smooth="yes"/>
      <point x="454" y="492"/>
      <point x="488" y="481"/>
      <point x="498" y="471" type="qcurve"/>
      <point x="498" y="399" type="line"/>
    </contour>
    <component base="numCircle"/>
  </outline>
</glyph>
<glyph name="northEastArrow" format="2">
  <advance width="800"/>
  <unicode hex="2197"/>
  <outline>
    <contour>
      <point x="259" y="160" type="line"/>
      <point x="590" y="491" type="line"/>
      <point x="590" y="282" type="line"/>
      <point x="720" y="282" type="line"/>
      <point x="720" y="720" type="line"/>
      <point x="282" y="720" type="line"/>
      <point x="282" y="590" type="line"/>
      <point x="491" y="590" type="line"/>
      <point x="160" y="259" type="line"/>
    </contour>
  </outline>
</glyph>
<glyph name="partialdiff" format="2">
  <advance width="560"/>
  <unicode hex="2202"/>
  <outline>
    <contour>
      <point x="276" y="-12" type="qcurve" smooth="yes"/>
      <point x="350" y="-12"/>
      <point x="464" y="48"/>
      <point x="536" y="172"/>
      <point x="536" y="292" type="qcurve" smooth="yes"/>
      <point x="536" y="402"/>
      <point x="509" y="549"/>
      <point x="431" y="661"/>
      <point x="274" y="726"/>
      <point x="174" y="726" type="qcurve"/>
      <point x="97" y="726"/>
      <point x="48" y="720" type="qcurve"/>
      <point x="48" y="604" type="line"/>
      <point x="104" y="610"/>
      <point x="168" y="610" type="qcurve" smooth="yes"/>
      <point x="248" y="610"/>
      <point x="342" y="570"/>
      <point x="390" y="494"/>
      <point x="396" y="410" type="qcurve"/>
      <point x="384" y="434"/>
      <point x="338" y="472"/>
      <point x="280" y="496"/>
      <point x="236" y="496" type="qcurve" smooth="yes"/>
      <point x="176" y="496"/>
      <point x="74" y="432"/>
      <point x="24" y="318"/>
      <point x="24" y="244" type="qcurve" smooth="yes"/>
      <point x="24" y="169"/>
      <point x="88" y="48"/>
      <point x="202" y="-12"/>
    </contour>
    <contour>
      <point x="280" y="108" type="qcurve" smooth="yes"/>
      <point x="244" y="108"/>
      <point x="196" y="144"/>
      <point x="170" y="204"/>
      <point x="170" y="244" type="qcurve" smooth="yes"/>
      <point x="170" y="284"/>
      <point x="196" y="344"/>
      <point x="244" y="380"/>
      <point x="280" y="380" type="qcurve" smooth="yes"/>
      <point x="316" y="380"/>
      <point x="364" y="344"/>
      <point x="390" y="284"/>
      <point x="390" y="244" type="qcurve" smooth="yes"/>
      <point x="390" y="204"/>
      <point x="364" y="144"/>
      <point x="316" y="108"/>
    </contour>
  </outline>
</glyph>
<glyph name="increment" format="2">
  <advance width="680"/>
  <unicode hex="2206"/>
  <outline>
    <contour>
      <point x="20" y="0" type="line"/>
      <point x="660" y="0" type="line"/>
      <point x="660" y="36" type="line"/>
      <point x="418" y="720" type="line"/>
      <point x="260" y="720" type="line"/>
      <point x="20" y="36" type="line"/>
    </contour>
    <contour>
      <point x="200" y="130" type="line"/>
      <point x="331" y="560" type="line"/>
      <point x="470" y="130" type="line"/>
    </contour>
  </outline>
</glyph>
<glyph name="minus" format="2">
  <advance width="600"/>
  <unicode hex="2212"/>
  <outline>
    <contour>
      <point x="40" y="261" type="line"/>
      <point x="560" y="261" type="line"/>
      <point x="560" y="379" type="line"/>
      <point x="40" y="379" type="line"/>
    </contour>
  </outline>
</glyph>
<glyph name="bulletoperator" format="2">
  <advance width="350"/>
  <unicode hex="2219"/>
  <outline>
    <contour>
      <point x="175" y="150" type="qcurve" smooth="yes"/>
      <point x="222" y="150"/>
      <point x="285" y="213"/>
      <point x="285" y="260" type="qcurve" smooth="yes"/>
      <point x="285" y="307"/>
      <point x="222" y="370"/>
      <point x="175" y="370" type="qcurve" smooth="yes"/>
      <point x="128" y="370"/>
      <point x="65" y="307"/>
      <point x="65" y="260" type="qcurve" smooth="yes"/>
      <point x="65" y="213"/>
      <point x="128" y="150"/>
    </contour>
  </outline>
</glyph>
<glyph name="radical" format="2">
  <advance width="780"/>
  <unicode hex="221A"/>
  <outline>
    <contour>
      <point x="154" y="-200" type="line"/>
      <point x="338" y="-200" type="line"/>
      <point x="651" y="820" type="line"/>
      <point x="860" y="820" type="line"/>
      <point x="860" y="930" type="line"/>
      <point x="539" y="930" type="line"/>
      <point x="244" y="-59" type="line"/>
      <point x="162" y="200" type="line"/>
      <point x="10" y="200" type="line"/>
    </contour>
  </outline>
</glyph>
<glyph name="infinity" format="2">
  <advance width="700"/>
  <unicode hex="221E"/>
  <outline>
    <contour>
      <point x="495" y="131" type="qcurve" smooth="yes"/>
      <point x="550" y="131"/>
      <point x="636" y="179"/>
      <point x="684" y="265"/>
      <point x="684" y="320" type="qcurve" smooth="yes"/>
      <point x="684" y="375"/>
      <point x="636" y="461"/>
      <point x="550" y="509"/>
      <point x="495" y="509" type="qcurve" smooth="yes"/>
      <point x="440" y="509"/>
      <point x="354" y="461"/>
      <point x="306" y="375"/>
      <point x="306" y="320" type="qcurve" smooth="yes"/>
      <point x="306" y="265"/>
      <point x="354" y="179"/>
      <point x="440" y="131"/>
    </contour>
    <contour>
      <point x="205" y="131" type="qcurve" smooth="yes"/>
      <point x="260" y="131"/>
      <point x="346" y="179"/>
      <point x="394" y="265"/>
      <point x="394" y="320" type="qcurve" smooth="yes"/>
      <point x="394" y="375"/>
      <point x="346" y="461"/>
      <point x="260" y="509"/>
      <point x="205" y="509" type="qcurve" smooth="yes"/>
      <point x="150" y="509"/>
      <point x="64" y="461"/>
      <point x="16" y="375"/>
      <point x="16" y="320" type="qcurve" smooth="yes"/>
      <point x="16" y="265"/>
      <point x="64" y="179"/>
      <point x="150" y="131"/>
    </contour>
    <contour>
      <point x="205" y="241" type="qcurve" smooth="yes"/>
      <point x="173" y="241"/>
      <point x="136" y="284"/>
      <point x="136" y="320" type="qcurve" smooth="yes"/>
      <point x="136" y="356"/>
      <point x="173" y="399"/>
      <point x="205" y="399" type="qcurve" smooth="yes"/>
      <point x="237" y="399"/>
      <point x="274" y="356"/>
      <point x="274" y="320" type="qcurve" smooth="yes"/>
      <point x="274" y="284"/>
      <point x="237" y="241"/>
    </contour>
    <contour>
      <point x="495" y="241" type="qcurve" smooth="yes"/>
      <point x="463" y="241"/>
      <point x="426" y="284"/>
      <point x="426" y="320" type="qcurve" smooth="yes"/>
      <point x="426" y="356"/>
      <point x="463" y="399"/>
      <point x="495" y="399" type="qcurve" smooth="yes"/>
      <point x="527" y="399"/>
      <point x="564" y="356"/>
      <point x="564" y="320" type="qcurve" smooth="yes"/>
      <point x="564" y="284"/>
      <point x="527" y="241"/>
    </contour>
  </outline>
</glyph>
<glyph name="union" format="2">
  <advance width="820"/>
  <unicode hex="222A"/>
  <outline>
    <contour>
      <point x="410" y="-12" type="qcurve" smooth="yes"/>
      <point x="510" y="-12"/>
      <point x="680" y="80"/>
      <point x="770" y="242"/>
      <point x="770" y="348" type="qcurve" smooth="yes"/>
      <point x="770" y="720" type="line"/>
      <point x="630" y="720" type="line"/>
      <point x="630" y="358" type="line" smooth="yes"/>
      <point x="630" y="278"/>
      <point x="578" y="186"/>
      <point x="482" y="128"/>
      <point x="410" y="128" type="qcurve" smooth="yes"/>
      <point x="338" y="128"/>
      <point x="242" y="186"/>
      <point x="190" y="278"/>
      <point x="190" y="358" type="qcurve" smooth="yes"/>
      <point x="190" y="720" type="line"/>
      <point x="50" y="720" type="line"/>
      <point x="50" y="348" type="line" smooth="yes"/>
      <point x="50" y="242"/>
      <point x="140" y="80"/>
      <point x="310" y="-12"/>
    </contour>
  </outline>
</glyph>
<glyph name="notequal" format="2">
  <advance width="600"/>
  <unicode hex="2260"/>
  <outline>
    <contour>
      <point x="120" y="0" type="line"/>
      <point x="220" y="0" type="line"/>
      <point x="480" y="640" type="line"/>
      <point x="380" y="640" type="line"/>
    </contour>
    <component base="equal"/>
  </outline>
</glyph>
<glyph name="angleLeft" format="2">
  <advance width="400"/>
  <unicode hex="2329"/>
  <outline>
    <contour>
      <point x="215" y="-120" type="line"/>
      <point x="358" y="-120" type="line"/>
      <point x="196" y="300" type="line"/>
      <point x="358" y="720" type="line"/>
      <point x="215" y="720" type="line"/>
      <point x="50" y="300" type="line"/>
    </contour>
  </outline>
</glyph>
<glyph name="blackSquare" format="2">
  <advance width="920"/>
  <unicode hex="25A0"/>
  <outline>
    <contour>
      <point x="100" y="0" type="line"/>
      <point x="820" y="0" type="line"/>
      <point x="820" y="720" type="line"/>
      <point x="100" y="720" type="line"/>
    </contour>
  </outline>
</glyph>
<glyph name="whiteSquare" format="2">
  <advance width="920"/>
  <unicode hex="25A1"/>
  <outline>
    <contour>
      <point x="100" y="0" type="line"/>
      <point x="820" y="0" type="line"/>
      <point x="820" y="720" type="line"/>
      <point x="100" y="720" type="line"/>
    </contour>
    <contour>
      <point x="220" y="110" type="line"/>
      <point x="220" y="610" type="line"/>
      <point x="700" y="610" type="line"/>
      <point x="700" y="110" type="line"/>
    </contour>
  </outline>
</glyph>
<glyph name="blackSmallSquare" format="2">
  <advance width="400"/>
  <unicode hex="25AA"/>
  <outline>
    <contour>
      <point x="46" y="106" type="line"/>
      <point x="354" y="106" type="line"/>
      <point x="354" y="414" type="line"/>
      <point x="46" y="414" type="line"/>
    </contour>
  </outline>
</glyph>
<glyph name="whiteSmallSquare" format="2">
  <advance width="400"/>
  <unicode hex="25AB"/>
  <outline>
    <contour>
      <point x="46" y="106" type="line"/>
      <point x="354" y="106" type="line"/>
      <point x="354" y="414" type="line"/>
      <point x="46" y="414" type="line"/>
    </contour>
    <contour>
      <point x="135" y="189" type="line"/>
      <point x="135" y="331" type="line"/>
      <point x="265" y="331" type="line"/>
      <point x="265" y="189" type="line"/>
    </contour>
  </outline>
</glyph>
<glyph name="blackDiamond" format="2">
  <advance width="920"/>
  <unicode hex="25C6"/>
  <outline>
    <contour>
      <point x="460" y="0" type="line"/>
      <point x="820" y="360" type="line"/>
      <point x="460" y="720" type="line"/>
      <point x="100" y="360" type="line"/>
    </contour>
  </outline>
</glyph>
<glyph name="lozenge" format="2">
  <advance width="650"/>
  <unicode hex="25CA"/>
  <outline>
    <contour>
      <point x="286" y="0" type="line"/>
      <point x="364" y="0" type="line"/>
      <point x="624" y="360" type="line"/>
      <point x="364" y="720" type="line"/>
      <point x="286" y="720" type="line"/>
      <point x="26" y="360" type="line"/>
    </contour>
    <contour>
      <point x="327" y="150" type="line"/>
      <point x="172" y="364" type="line"/>
      <point x="323" y="570" type="line"/>
      <point x="478" y="356" type="line"/>
    </contour>
  </outline>
</glyph>
<glyph name="dottedCircle" format="2">
  <advance width="820"/>
  <unicode hex="25CC"/>
  <anchor x="410" y="0" name="bottom"/>
  <anchor x="410" y="360" name="center"/>
  <anchor x="410" y="0" name="ogonek"/>
  <anchor x="410" y="720" name="top"/>
  <outline>
    <contour>
      <point x="410" y="-12" type="qcurve" smooth="yes"/>
      <point x="434" y="-12"/>
      <point x="467" y="21"/>
      <point x="467" y="45" type="qcurve" smooth="yes"/>
      <point x="467" y="69"/>
      <point x="434" y="102"/>
      <point x="410" y="102" type="qcurve" smooth="yes"/>
      <point x="386" y="102"/>
      <point x="353" y="69"/>
      <point x="353" y="45" type="qcurve" smooth="yes"/>
      <point x="353" y="21"/>
      <point x="386" y="-12"/>
    </contour>
    <contour>
      <point x="410" y="618" type="qcurve" smooth="yes"/>
      <point x="434" y="618"/>
      <point x="467" y="651"/>
      <point x="467" y="675" type="qcurve" smooth="yes"/>
      <point x="467" y="699"/>
      <point x="434" y="732"/>
      <point x="410" y="732" type="qcurve" smooth="yes"/>
      <point x="386" y="732"/>
      <point x="353" y="699"/>
      <point x="353" y="675" type="qcurve" smooth="yes"/>
      <point x="353" y="651"/>
      <point x="386" y="618"/>
    </contour>
    <contour>
      <point x="251" y="29" type="qcurve" smooth="yes"/>
      <point x="275" y="29"/>
      <point x="308" y="62"/>
      <point x="308" y="86" type="qcurve" smooth="yes"/>
      <point x="308" y="110"/>
      <point x="275" y="143"/>
      <point x="251" y="143" type="qcurve" smooth="yes"/>
      <point x="227" y="143"/>
      <point x="194" y="110"/>
      <point x="194" y="86" type="qcurve" smooth="yes"/>
      <point x="194" y="62"/>
      <point x="227" y="29"/>
    </contour>
    <contour>
      <point x="565" y="575" type="qcurve" smooth="yes"/>
      <point x="589" y="575"/>
      <point x="622" y="608"/>
      <point x="622" y="632" type="qcurve" smooth="yes"/>
      <point x="622" y="656"/>
      <point x="589" y="689"/>
      <point x="565" y="689" type="qcurve" smooth="yes"/>
      <point x="541" y="689"/>
      <point x="508" y="656"/>
      <point x="508" y="632" type="qcurve" smooth="yes"/>
      <point x="508" y="608"/>
      <point x="541" y="575"/>
    </contour>
    <contour>
      <point x="80" y="202" type="qcurve" smooth="yes"/>
      <point x="80" y="178"/>
      <point x="113" y="145"/>
      <point x="137" y="145" type="qcurve" smooth="yes"/>
      <point x="161" y="145"/>
      <point x="194" y="178"/>
      <point x="194" y="202" type="qcurve" smooth="yes"/>
      <point x="194" y="226"/>
      <point x="161" y="259"/>
      <point x="137" y="259" type="qcurve" smooth="yes"/>
      <point x="113" y="259"/>
      <point x="80" y="226"/>
    </contour>
    <contour>
      <point x="623" y="517" type="qcurve" smooth="yes"/>
      <point x="623" y="493"/>
      <point x="656" y="460"/>
      <point x="680" y="460" type="qcurve" smooth="yes"/>
      <point x="704" y="460"/>
      <point x="737" y="493"/>
      <point x="737" y="517" type="qcurve" smooth="yes"/>
      <point x="737" y="541"/>
      <point x="704" y="574"/>
      <point x="680" y="574" type="qcurve" smooth="yes"/>
      <point x="656" y="574"/>
      <point x="623" y="541"/>
    </contour>
    <contour>
      <point x="41" y="361" type="qcurve" smooth="yes"/>
      <point x="41" y="337"/>
      <point x="75" y="304"/>
      <point x="99" y="305" type="qcurve" smooth="yes"/>
      <point x="123" y="305"/>
      <point x="155" y="339"/>
      <point x="155" y="363" type="qcurve" smooth="yes"/>
      <point x="155" y="387"/>
      <point x="121" y="419"/>
      <point x="97" y="419" type="qcurve" smooth="yes"/>
      <point x="73" y="418"/>
      <point x="41" y="385"/>
    </contour>
    <contour>
      <point x="667" y="360" type="qcurve" smooth="yes"/>
      <point x="667" y="336"/>
      <point x="701" y="303"/>
      <point x="725" y="304" type="qcurve" smooth="yes"/>
      <point x="749" y="304"/>
      <point x="781" y="338"/>
      <point x="781" y="362" type="qcurve" smooth="yes"/>
      <point x="781" y="386"/>
      <point x="747" y="418"/>
      <point x="723" y="418" type="qcurve" smooth="yes"/>
      <point x="699" y="417"/>
      <point x="667" y="384"/>
    </contour>
    <contour>
      <point x="83" y="519" type="qcurve" smooth="yes"/>
      <point x="83" y="495"/>
      <point x="117" y="462"/>
      <point x="141" y="463" type="qcurve" smooth="yes"/>
      <point x="165" y="463"/>
      <point x="197" y="497"/>
      <point x="197" y="521" type="qcurve" smooth="yes"/>
      <point x="197" y="545"/>
      <point x="163" y="577"/>
      <point x="139" y="577" type="qcurve" smooth="yes"/>
      <point x="115" y="576"/>
      <point x="83" y="543"/>
    </contour>
    <contour>
      <point x="625" y="202" type="qcurve" smooth="yes"/>
      <point x="625" y="178"/>
      <point x="659" y="145"/>
      <point x="683" y="146" type="qcurve" smooth="yes"/>
      <point x="707" y="146"/>
      <point x="739" y="180"/>
      <point x="739" y="204" type="qcurve" smooth="yes"/>
      <point x="739" y="228"/>
      <point x="705" y="260"/>
      <point x="681" y="260" type="qcurve" smooth="yes"/>
      <point x="657" y="259"/>
      <point x="625" y="226"/>
    </contour>
    <contour>
      <point x="255" y="690" type="qcurve" smooth="yes"/>
      <point x="231" y="690"/>
      <point x="198" y="656"/>
      <point x="199" y="632" type="qcurve" smooth="yes"/>
      <point x="199" y="608"/>
      <point x="233" y="576"/>
      <point x="257" y="576" type="qcurve" smooth="yes"/>
      <point x="281" y="576"/>
      <point x="313" y="610"/>
      <point x="313" y="634" type="qcurve" smooth="yes"/>
      <point x="312" y="658"/>
      <point x="279" y="690"/>
    </contour>
    <contour>
      <point x="566" y="142" type="qcurve" smooth="yes"/>
      <point x="542" y="142"/>
      <point x="509" y="108"/>
      <point x="510" y="84" type="qcurve" smooth="yes"/>
      <point x="510" y="60"/>
      <point x="544" y="28"/>
      <point x="568" y="28" type="qcurve" smooth="yes"/>
      <point x="592" y="28"/>
      <point x="624" y="62"/>
      <point x="624" y="86" type="qcurve" smooth="yes"/>
      <point x="623" y="110"/>
      <point x="590" y="142"/>
    </contour>
  </outline>
</glyph>
<glyph name="leftHalfBlackWhiteCircle" format="2">
  <advance width="860"/>
  <unicode hex="25D0"/>
  <outline>
    <contour>
      <point x="430" y="-30" type="qcurve" smooth="yes"/>
      <point x="540" y="-30"/>
      <point x="719" y="74"/>
      <point x="820" y="252"/>
      <point x="820" y="360" type="qcurve" smooth="yes"/>
      <point x="820" y="471"/>
      <point x="717" y="649"/>
      <point x="539" y="750"/>
      <point x="430" y="750" type="qcurve" smooth="yes"/>
      <point x="317" y="750"/>
      <point x="139" y="643"/>
      <point x="40" y="464"/>
      <point x="40" y="360" type="qcurve" smooth="yes"/>
      <point x="40" y="247"/>
      <point x="147" y="69"/>
      <point x="326" y="-30"/>
    </contour>
    <contour>
      <point x="430" y="90" type="qcurve"/>
      <point x="430" y="630" type="line"/>
      <point x="510" y="630"/>
      <point x="632" y="562"/>
      <point x="700" y="440"/>
      <point x="700" y="360" type="qcurve" smooth="yes"/>
      <point x="700" y="280"/>
      <point x="632" y="158"/>
      <point x="510" y="90"/>
    </contour>
  </outline>
</glyph>
<glyph name="whiteBullet" format="2">
  <advance width="400"/>
  <unicode hex="25E6"/>
  <outline>
    <contour>
      <point x="200" y="99" type="qcurve"/>
      <point x="269" y="99"/>
      <point x="361" y="191"/>
      <point x="361" y="260" type="qcurve"/>
      <point x="361" y="329"/>
      <point x="269" y="421"/>
      <point x="200" y="421" type="qcurve"/>
      <point x="131" y="421"/>
      <point x="39" y="329"/>
      <point x="39" y="260" type="qcurve"/>
      <point x="39" y="191"/>
      <point x="131" y="99"/>
    </contour>
    <contour>
      <point x="200" y="201" type="qcurve"/>
      <point x="175" y="201"/>
      <point x="141" y="235"/>
      <point x="141" y="260" type="qcurve"/>
      <point x="141" y="286"/>
      <point x="175" y="319"/>
      <point x="200" y="319" type="qcurve"/>
      <point x="224" y="319"/>
      <point x="259" y="285"/>
      <point x="259" y="260" type="qcurve"/>
      <point x="259" y="235"/>
      <point x="226" y="201"/>
    </contour>
  </outline>
</glyph>
<glyph name="blackStar" format="2">
  <advance width="800"/>
  <unicode hex="2605"/>
  <outline>
    <contour>
      <point x="157" y="-12" type="line"/>
      <point x="400" y="163" type="line"/>
      <point x="642" y="-12" type="line"/>
      <point x="549" y="272" type="line"/>
      <point x="790" y="448" type="line"/>
      <point x="493" y="448" type="line"/>
      <point x="400" y="732" type="line"/>
      <point x="306" y="448" type="line"/>
      <point x="10" y="448" type="line"/>
      <point x="251" y="272" type="line"/>
    </contour>
  </outline>
</glyph>
<glyph name="checkmark" format="2">
  <advance width="500"/>
  <unicode hex="2713"/>
  <outline>
    <contour>
      <point x="153" y="0" type="line"/>
      <point x="297" y="0" type="line"/>
      <point x="490" y="720" type="line"/>
      <point x="363" y="720" type="line"/>
      <point x="221" y="160" type="line"/>
      <point x="155" y="364" type="line"/>
      <point x="20" y="364" type="line"/>
    </contour>
  </outline>
</glyph>
<glyph name="De-cy.loclBGR" format="2">
  <advance width="790"/>
  <outline>
    <contour>
      <point x="68" y="0" type="line"/>
      <point x="216" y="0" type="line"/>
      <point x="388" y="549" type="line"/>
      <point x="558" y="0" type="line"/>
      <point x="713" y="0" type="line"/>
      <point x="465" y="720" type="line"/>
      <point x="314" y="720" type="line"/>
    </contour>
    <contour>
      <point x="20" y="-160" type="line"/>
      <point x="154" y="-160" type="line"/>
      <point x="154" y="0" type="line"/>
      <point x="632" y="0" type="line"/>
      <point x="632" y="-160" type="line"/>
      <point x="766" y="-160" type="line"/>
      <point x="766" y="120" type="line"/>
      <point x="20" y="120" type="line"/>
    </contour>
  </outline>
</glyph>
<glyph name="Geupturn-cy.ss02" format="2">
  <advance width="540"/>
  <outline>
    <contour>
      <point x="58" y="0" type="line"/>
      <point x="208" y="0" type="line"/>
      <point x="208" y="532" type="line" smooth="yes"/>
      <point x="208" y="567"/>
      <point x="237" y="592"/>
      <point x="277" y="592" type="qcurve" smooth="yes"/>
      <point x="350" y="592" type="line" smooth="yes"/>
      <point x="443" y="592"/>
      <point x="520" y="669"/>
      <point x="520" y="760" type="qcurve" smooth="yes"/>
      <point x="520" y="800" type="line"/>
      <point x="400" y="800" type="line"/>
      <point x="400" y="770" type="line" smooth="yes"/>
      <point x="400" y="744"/>
      <point x="379" y="720"/>
      <point x="354" y="720" type="qcurve" smooth="yes"/>
      <point x="228" y="720" type="line" smooth="yes"/>
      <point x="136" y="720"/>
      <point x="58" y="639"/>
      <point x="58" y="550" type="qcurve" smooth="yes"/>
    </contour>
  </outline>
</glyph>
<glyph name="I_J" format="2">
  <advance width="590"/>
  <anchor x="307" y="0" name="bottom_1"/>
  <anchor x="461" y="720" name="top_1"/>
  <outline>
    <contour>
      <point x="66" y="280" type="line"/>
      <point x="216" y="280" type="line"/>
      <point x="216" y="720" type="line"/>
      <point x="66" y="720" type="line"/>
    </contour>
    <component base="J" xOffset="44"/>
  </outline>
</glyph>
<glyph name="Kabashkir-cy.ss01" format="2">
  <advance width="830"/>
  <anchor x="453" y="720" name="top"/>
  <outline>
    <contour>
      <point x="194" y="0" type="line"/>
      <point x="340" y="0" type="line"/>
      <point x="340" y="720" type="line"/>
      <point x="20" y="720" type="line"/>
      <point x="20" y="600" type="line"/>
      <point x="194" y="600" type="line"/>
    </contour>
    <contour>
      <point x="250" y="428" type="line"/>
      <point x="250" y="300" type="line"/>
      <point x="472" y="300" type="line" smooth="yes"/>
      <point x="525" y="300"/>
      <point x="568" y="258"/>
      <point x="568" y="210" type="qcurve" smooth="yes"/>
      <point x="568" y="100" type="line" smooth="yes"/>
      <point x="568" y="0"/>
      <point x="688" y="0" type="qcurve" smooth="yes"/>
      <point x="814" y="0" type="line"/>
      <point x="814" y="110" type="line"/>
      <point x="750" y="110" type="line" smooth="yes"/>
      <point x="714" y="110"/>
      <point x="714" y="140" type="qcurve" smooth="yes"/>
      <point x="714" y="240" type="line" smooth="yes"/>
      <point x="714" y="294"/>
      <point x="668" y="359"/>
      <point x="635" y="367" type="qcurve"/>
      <point x="665" y="374"/>
      <point x="710" y="432"/>
      <point x="710" y="480" type="qcurve" smooth="yes"/>
      <point x="710" y="580" type="line" smooth="yes"/>
      <point x="710" y="610"/>
      <point x="746" y="610" type="qcurve" smooth="yes"/>
      <point x="810" y="610" type="line"/>
      <point x="810" y="720" type="line"/>
      <point x="686" y="720" type="line" smooth="yes"/>
      <point x="564" y="720"/>
      <point x="564" y="610" type="qcurve" smooth="yes"/>
      <point x="564" y="501" type="line" smooth="yes"/>
      <point x="564" y="463"/>
      <point x="522" y="428"/>
      <point x="478" y="428" type="qcurve" smooth="yes"/>
    </contour>
  </outline>
</glyph>
<glyph name="Kahook-cy.ss01" format="2">
  <advance width="670"/>
  <outline>
    <contour>
      <point x="289" y="-180" type="line"/>
      <point x="338" y="-180" type="line" smooth="yes"/>
      <point x="430" y="-180"/>
      <point x="550" y="-108"/>
      <point x="610" y="34"/>
      <point x="610" y="120" type="qcurve" smooth="yes"/>
      <point x="610" y="224"/>
      <point x="538" y="351"/>
      <point x="476" y="379" type="qcurve"/>
      <point x="514" y="393"/>
      <point x="550" y="444"/>
      <point x="550" y="480" type="qcurve" smooth="yes"/>
      <point x="550" y="560" type="line" smooth="yes"/>
      <point x="550" y="582"/>
      <point x="566" y="600"/>
      <point x="586" y="600" type="qcurve" smooth="yes"/>
      <point x="630" y="600" type="line"/>
      <point x="630" y="720" type="line"/>
      <point x="526" y="720" type="line" smooth="yes"/>
      <point x="460" y="720"/>
      <point x="404" y="659"/>
      <point x="404" y="590" type="qcurve" smooth="yes"/>
      <point x="404" y="501" type="line" smooth="yes"/>
      <point x="404" y="463"/>
      <point x="362" y="428"/>
      <point x="318" y="428" type="qcurve" smooth="yes"/>
      <point x="204" y="428" type="line"/>
      <point x="204" y="720" type="line"/>
      <point x="58" y="720" type="line"/>
      <point x="58" y="0" type="line"/>
      <point x="204" y="0" type="line"/>
      <point x="204" y="304" type="line"/>
      <point x="294" y="304" type="line" smooth="yes"/>
      <point x="380" y="304"/>
      <point x="460" y="215"/>
      <point x="460" y="120" type="qcurve" smooth="yes"/>
      <point x="460" y="64"/>
      <point x="436" y="-10"/>
      <point x="376" y="-60"/>
      <point x="326" y="-60" type="qcurve" smooth="yes"/>
      <point x="289" y="-60" type="line"/>
    </contour>
  </outline>
</glyph>
<glyph name="L.ss02" format="2">
  <advance width="520"/>
  <anchor x="284" y="0" name="bottom"/>
  <anchor x="390" y="360" name="dot"/>
  <anchor x="127" y="720" name="top"/>
  <anchor x="350" y="720" name="topright"/>
  <outline>
    <contour>
      <point x="208" y="0" type="qcurve" smooth="yes"/>
      <point x="500" y="0" type="line"/>
      <point x="500" y="128" type="line"/>
      <point x="258" y="128" type="line" smooth="yes"/>
      <point x="232" y="128"/>
      <point x="208" y="152"/>
      <point x="208" y="178" type="qcurve" smooth="yes"/>
      <point x="208" y="720" type="line"/>
      <point x="58" y="720" type="line"/>
      <point x="58" y="150" type="line" smooth="yes"/>
      <point x="58" y="80"/>
      <point x="138" y="0"/>
    </contour>
  </outline>
</glyph>
<glyph name="Zhedescender-cy.ss01" format="2">
  <advance width="1130"/>
  <anchor x="540" y="0" name="bottom"/>
  <anchor x="540" y="720" name="top"/>
  <outline>
    <contour>
      <point x="940" y="-160" type="line"/>
      <point x="1074" y="-160" type="line"/>
      <point x="1074" y="120" type="line"/>
      <point x="932" y="120" type="line"/>
      <point x="932" y="0" type="line"/>
      <point x="940" y="0" type="line"/>
    </contour>
    <component base="Zhe-cy.ss01"/>
  </outline>
</glyph>
<glyph name=".notdef" format="2">
  <advance width="666"/>
  <outline>
    <contour>
      <point x="24" y="0" type="line"/>
      <point x="642" y="0" type="line"/>
      <point x="642" y="720" type="line"/>
      <point x="24" y="720" type="line"/>
    </contour>
    <contour>
      <point x="150" y="120" type="line"/>
      <point x="150" y="600" type="line"/>
      <point x="516" y="600" type="line"/>
      <point x="516" y="120" type="line"/>
    </contour>
    <contour>
      <point x="190" y="160" type="line"/>
      <point x="276" y="160" type="line"/>
      <point x="333" y="249" type="line"/>
      <point x="390" y="160" type="line"/>
      <point x="476" y="160" type="line"/>
      <point x="476" y="246" type="line"/>
      <point x="403" y="360" type="line"/>
      <point x="476" y="474" type="line"/>
      <point x="476" y="560" type="line"/>
      <point x="390" y="560" type="line"/>
      <point x="333" y="471" type="line"/>
      <point x="276" y="560" type="line"/>
      <point x="190" y="560" type="line"/>
      <point x="190" y="474" type="line"/>
      <point x="263" y="360" type="line"/>
      <point x="190" y="246" type="line"/>
    </contour>
  </outline>
</glyph>
<glyph name="a.cv01" format="2">
  <advance width="584"/>
  <anchor x="280" y="0" name="bottom"/>
  <anchor x="516" y="0" name="ogonek"/>
  <anchor x="280" y="500" name="top"/>
  <outline>
    <contour>
      <point x="240" y="-12" type="qcurve" smooth="yes"/>
      <point x="270" y="-12"/>
      <point x="324" y="6"/>
      <point x="374" y="46"/>
      <point x="386" y="76" type="qcurve"/>
      <point x="386" y="0" type="line"/>
      <point x="528" y="0" type="line"/>
      <point x="528" y="500" type="line"/>
      <point x="386" y="500" type="line"/>
      <point x="386" y="424" type="line"/>
      <point x="374" y="454"/>
      <point x="324" y="494"/>
      <point x="270" y="512"/>
      <point x="240" y="512" type="qcurve" smooth="yes"/>
      <point x="176" y="512"/>
      <point x="76" y="444"/>
      <point x="24" y="330"/>
      <point x="24" y="250" type="qcurve" smooth="yes"/>
      <point x="24" y="170"/>
      <point x="76" y="56"/>
      <point x="176" y="-12"/>
    </contour>
    <contour>
      <point x="280" y="108" type="qcurve" smooth="yes"/>
      <point x="244" y="108"/>
      <point x="196" y="144"/>
      <point x="170" y="206"/>
      <point x="170" y="250" type="qcurve" smooth="yes"/>
      <point x="170" y="294"/>
      <point x="196" y="356"/>
      <point x="244" y="392"/>
      <point x="280" y="392" type="qcurve" smooth="yes"/>
      <point x="316" y="392"/>
      <point x="364" y="356"/>
      <point x="390" y="294"/>
      <point x="390" y="250" type="qcurve" smooth="yes"/>
      <point x="390" y="206"/>
      <point x="364" y="144"/>
      <point x="316" y="108"/>
    </contour>
  </outline>
</glyph>
<glyph name="a.ss01" format="2">
  <advance width="540"/>
  <anchor x="260" y="0" name="bottom"/>
  <anchor x="504" y="0" name="ogonek"/>
  <anchor x="260" y="500" name="top"/>
  <outline>
    <contour>
      <point x="180" y="-8" type="qcurve" smooth="yes"/>
      <point x="216" y="-8"/>
      <point x="268" y="8"/>
      <point x="314" y="48"/>
      <point x="330" y="84" type="qcurve"/>
      <point x="330" y="64" type="line" smooth="yes"/>
      <point x="330" y="38"/>
      <point x="360" y="0"/>
      <point x="404" y="0" type="qcurve" smooth="yes"/>
      <point x="514" y="0" type="line"/>
      <point x="514" y="114" type="line"/>
      <point x="486" y="114" type="line" smooth="yes"/>
      <point x="475" y="114"/>
      <point x="466" y="123"/>
      <point x="466" y="134" type="qcurve" smooth="yes"/>
      <point x="466" y="320" type="line" smooth="yes"/>
      <point x="466" y="392"/>
      <point x="412" y="470"/>
      <point x="322" y="512"/>
      <point x="262" y="512" type="qcurve" smooth="yes"/>
      <point x="194" y="512"/>
      <point x="96" y="464"/>
      <point x="48" y="386"/>
      <point x="48" y="340" type="qcurve"/>
      <point x="182" y="340" type="line"/>
      <point x="180" y="360"/>
      <point x="196" y="390"/>
      <point x="232" y="406"/>
      <point x="254" y="406" type="qcurve" smooth="yes"/>
      <point x="276" y="406"/>
      <point x="310" y="392"/>
      <point x="328" y="358"/>
      <point x="328" y="326" type="qcurve" smooth="yes"/>
      <point x="328" y="190" type="line" smooth="yes"/>
      <point x="328" y="158"/>
      <point x="298" y="118"/>
      <point x="257" y="100"/>
      <point x="229" y="100" type="qcurve" smooth="yes"/>
      <point x="205" y="100"/>
      <point x="175" y="116"/>
      <point x="164" y="138"/>
      <point x="164" y="152" type="qcurve" smooth="yes"/>
      <point x="164" y="172"/>
      <point x="186" y="201"/>
      <point x="236" y="214"/>
      <point x="296" y="214" type="qcurve" smooth="yes"/>
      <point x="358" y="214" type="line"/>
      <point x="358" y="306" type="line"/>
      <point x="282" y="306" type="line" smooth="yes"/>
      <point x="194" y="306"/>
      <point x="86" y="274"/>
      <point x="26" y="196"/>
      <point x="26" y="138" type="qcurve" smooth="yes"/>
      <point x="26" y="90"/>
      <point x="72" y="22"/>
      <point x="140" y="-8"/>
    </contour>
  </outline>
</glyph>
<glyph name="be-cy.loclSRB" format="2">
  <advance width="540"/>
  <outline>
    <contour>
      <point x="270" y="-12" type="qcurve"/>
      <point x="346" y="-12"/>
      <point x="458" y="52"/>
      <point x="516" y="164"/>
      <point x="516" y="236" type="qcurve" smooth="yes"/>
      <point x="516" y="308"/>
      <point x="462" y="411"/>
      <point x="372" y="473"/>
      <point x="304" y="500"/>
      <point x="250" y="520"/>
      <point x="212" y="539"/>
      <point x="197" y="558"/>
      <point x="197" y="570" type="qcurve" smooth="yes"/>
      <point x="197" y="580"/>
      <point x="209" y="596"/>
      <point x="232" y="605"/>
      <point x="258" y="605" type="qcurve" smooth="yes"/>
      <point x="274" y="605"/>
      <point x="358" y="592"/>
      <point x="392" y="592" type="qcurve" smooth="yes"/>
      <point x="455" y="592"/>
      <point x="491" y="610" type="qcurve"/>
      <point x="491" y="738" type="line"/>
      <point x="454" y="714"/>
      <point x="386" y="714" type="qcurve" smooth="yes"/>
      <point x="346" y="714"/>
      <point x="258" y="724"/>
      <point x="222" y="724" type="qcurve" smooth="yes"/>
      <point x="172" y="724"/>
      <point x="98" y="692"/>
      <point x="57" y="629"/>
      <point x="57" y="589" type="qcurve" smooth="yes"/>
      <point x="57" y="557"/>
      <point x="83" y="507"/>
      <point x="140" y="462"/>
      <point x="196" y="440" type="qcurve"/>
      <point x="166" y="440"/>
      <point x="84" y="401"/>
      <point x="24" y="308"/>
      <point x="24" y="236" type="qcurve" smooth="yes"/>
      <point x="24" y="164"/>
      <point x="82" y="52"/>
      <point x="194" y="-12"/>
    </contour>
    <contour>
      <point x="270" y="108" type="qcurve" smooth="yes"/>
      <point x="234" y="108"/>
      <point x="190" y="146"/>
      <point x="170" y="200"/>
      <point x="170" y="232" type="qcurve" smooth="yes"/>
      <point x="170" y="264"/>
      <point x="190" y="318"/>
      <point x="234" y="356"/>
      <point x="270" y="356" type="qcurve" smooth="yes"/>
      <point x="306" y="356"/>
      <point x="350" y="318"/>
      <point x="370" y="264"/>
      <point x="370" y="232" type="qcurve" smooth="yes"/>
      <point x="370" y="200"/>
      <point x="350" y="146"/>
      <point x="306" y="108"/>
    </contour>
  </outline>
</glyph>
<glyph name="be-cy.ss01" format="2">
  <advance width="560"/>
  <outline>
    <contour>
      <point x="280" y="-12" type="qcurve" smooth="yes"/>
      <point x="358" y="-12"/>
      <point x="474" y="52"/>
      <point x="536" y="166"/>
      <point x="536" y="244" type="qcurve" smooth="yes"/>
      <point x="536" y="318"/>
      <point x="486" y="432"/>
      <point x="384" y="496"/>
      <point x="324" y="496" type="qcurve" smooth="yes"/>
      <point x="280" y="496"/>
      <point x="220" y="472"/>
      <point x="174" y="434"/>
      <point x="162" y="410" type="qcurve"/>
      <point x="164" y="484"/>
      <point x="194" y="551"/>
      <point x="248" y="584"/>
      <point x="316" y="584" type="qcurve" smooth="yes"/>
      <point x="376" y="584" type="line" smooth="yes"/>
      <point x="446" y="584"/>
      <point x="512" y="646"/>
      <point x="512" y="716" type="qcurve" smooth="yes"/>
      <point x="512" y="760" type="line"/>
      <point x="402" y="760" type="line"/>
      <point x="402" y="746" type="line" smooth="yes"/>
      <point x="402" y="722"/>
      <point x="381" y="704"/>
      <point x="356" y="704" type="qcurve" smooth="yes"/>
      <point x="291" y="704" type="line" smooth="yes"/>
      <point x="225" y="704"/>
      <point x="123" y="666"/>
      <point x="57" y="588"/>
      <point x="24" y="443"/>
      <point x="24" y="320" type="qcurve" smooth="yes"/>
      <point x="24" y="180"/>
      <point x="90" y="52"/>
      <point x="204" y="-12"/>
    </contour>
    <contour>
      <point x="280" y="108" type="qcurve" smooth="yes"/>
      <point x="244" y="108"/>
      <point x="196" y="144"/>
      <point x="170" y="204"/>
      <point x="170" y="244" type="qcurve" smooth="yes"/>
      <point x="170" y="284"/>
      <point x="196" y="344"/>
      <point x="244" y="380"/>
      <point x="280" y="380" type="qcurve" smooth="yes"/>
      <point x="316" y="380"/>
      <point x="364" y="344"/>
      <point x="390" y="284"/>
      <point x="390" y="244" type="qcurve" smooth="yes"/>
      <point x="390" y="204"/>
      <point x="364" y="144"/>
      <point x="316" y="108"/>
    </contour>
  </outline>
</glyph>
<glyph name="bracketleft.case" format="2">
  <advance width="400"/>
  <outline>
    <contour>
      <point x="100" y="-180" type="line"/>
      <point x="380" y="-180" type="line"/>
      <point x="380" y="-60" type="line"/>
      <point x="242" y="-60" type="line"/>
      <point x="242" y="740" type="line"/>
      <point x="380" y="740" type="line"/>
      <point x="380" y="850" type="line"/>
      <point x="100" y="850" type="line"/>
    </contour>
  </outline>
</glyph>
<glyph name="brevecomb.narrow" format="2">
  <anchor x="200" y="500" name="_top"/>
  <anchor x="200" y="720" name="top"/>
  <outline>
    <contour>
      <point x="200" y="558" type="qcurve" smooth="yes"/>
      <point x="238" y="558"/>
      <point x="296" y="584"/>
      <point x="332" y="656"/>
      <point x="332" y="720" type="qcurve"/>
      <point x="224" y="720" type="line"/>
      <point x="224" y="688"/>
      <point x="220" y="660"/>
      <point x="210" y="648"/>
      <point x="200" y="648" type="qcurve" smooth="yes"/>
      <point x="190" y="648"/>
      <point x="180" y="660"/>
      <point x="176" y="688"/>
      <point x="176" y="720" type="qcurve"/>
      <point x="68" y="720" type="line"/>
      <point x="68" y="656"/>
      <point x="104" y="584"/>
      <point x="162" y="558"/>
    </contour>
  </outline>
</glyph>
<glyph name="dieresiscomb.narrow" format="2">
  <anchor x="150" y="500" name="_top"/>
  <anchor x="150" y="720" name="top"/>
  <outline>
    <contour>
      <point x="211" y="548" type="qcurve"/>
      <point x="236" y="548"/>
      <point x="266" y="595"/>
      <point x="266" y="638" type="qcurve" smooth="yes"/>
      <point x="266" y="648" type="line" smooth="yes"/>
      <point x="266" y="691"/>
      <point x="236" y="738"/>
      <point x="211" y="738" type="qcurve"/>
      <point x="186" y="738"/>
      <point x="156" y="691"/>
      <point x="156" y="648" type="qcurve" smooth="yes"/>
      <point x="156" y="638" type="line" smooth="yes"/>
      <point x="156" y="595"/>
      <point x="186" y="548"/>
    </contour>
    <contour>
      <point x="89" y="548" type="qcurve"/>
      <point x="114" y="548"/>
      <point x="144" y="595"/>
      <point x="144" y="638" type="qcurve" smooth="yes"/>
      <point x="144" y="648" type="line" smooth="yes"/>
      <point x="144" y="691"/>
      <point x="114" y="738"/>
      <point x="89" y="738" type="qcurve"/>
      <point x="64" y="738"/>
      <point x="34" y="691"/>
      <point x="34" y="648" type="qcurve" smooth="yes"/>
      <point x="34" y="638" type="line" smooth="yes"/>
      <point x="34" y="595"/>
      <point x="64" y="548"/>
    </contour>
  </outline>
</glyph>
<glyph name="f_f_i" format="2">
  <advance width="956"/>
  <anchor x="330" y="0" name="caret"/>
  <anchor x="680" y="0" name="caret_1"/>
  <outline>
    <contour>
      <point x="98" y="0" type="line"/>
      <point x="240" y="0" type="line"/>
      <point x="240" y="380" type="line"/>
      <point x="438" y="380" type="line"/>
      <point x="438" y="0" type="line"/>
      <point x="580" y="0" type="line"/>
      <point x="580" y="380" type="line"/>
      <point x="778" y="380" type="line"/>
      <point x="778" y="0" type="line"/>
      <point x="920" y="0" type="line"/>
      <point x="920" y="500" type="line"/>
      <point x="580" y="500" type="line"/>
      <point x="580" y="560" type="line" smooth="yes"/>
      <point x="580" y="584"/>
      <point x="604" y="608"/>
      <point x="628" y="608" type="qcurve" smooth="yes"/>
      <point x="798" y="608" type="line"/>
      <point x="798" y="720" type="line"/>
      <point x="586" y="720" type="line" smooth="yes"/>
      <point x="512" y="720"/>
      <point x="438" y="652"/>
      <point x="438" y="580" type="qcurve" smooth="yes"/>
      <point x="438" y="500" type="line"/>
      <point x="240" y="500" type="line"/>
      <point x="240" y="560" type="line" smooth="yes"/>
      <point x="240" y="584"/>
      <point x="264" y="608"/>
      <point x="288" y="608" type="qcurve" smooth="yes"/>
      <point x="344" y="608" type="line"/>
      <point x="344" y="720" type="line"/>
      <point x="246" y="720" type="line" smooth="yes"/>
      <point x="172" y="720"/>
      <point x="98" y="652"/>
      <point x="98" y="580" type="qcurve" smooth="yes"/>
      <point x="98" y="500" type="line"/>
      <point x="20" y="500" type="line"/>
      <point x="20" y="380" type="line"/>
      <point x="98" y="380" type="line"/>
    </contour>
  </outline>
</glyph>
<glyph name="f_j" format="2">
  <advance width="616"/>
  <outline>
    <contour>
      <point x="361" y="-200" type="line"/>
      <point x="432" y="-200" type="line" smooth="yes"/>
      <point x="506" y="-200"/>
      <point x="580" y="-132"/>
      <point x="580" y="-60" type="qcurve"/>
      <point x="580" y="500" type="line"/>
      <point x="240" y="500" type="line"/>
      <point x="240" y="560" type="line" smooth="yes"/>
      <point x="240" y="584"/>
      <point x="264" y="608"/>
      <point x="288" y="608" type="qcurve" smooth="yes"/>
      <point x="458" y="608" type="line"/>
      <point x="458" y="720" type="line"/>
      <point x="246" y="720" type="line" smooth="yes"/>
      <point x="172" y="720"/>
      <point x="98" y="652"/>
      <point x="98" y="580" type="qcurve" smooth="yes"/>
      <point x="98" y="500" type="line"/>
      <point x="20" y="500" type="line"/>
      <point x="20" y="380" type="line"/>
      <point x="98" y="380" type="line"/>
      <point x="98" y="0" type="line"/>
      <point x="240" y="0" type="line"/>
      <point x="240" y="380" type="line"/>
      <point x="438" y="380" type="line"/>
      <point x="438" y="-38" type="line" smooth="yes"/>
      <point x="438" y="-62"/>
      <point x="414" y="-86"/>
      <point x="390" y="-86" type="qcurve" smooth="yes"/>
      <point x="361" y="-86" type="line"/>
    </contour>
  </outline>
</glyph>
<glyph name="ge-cy.loclBGR" format="2">
  <advance width="500"/>
  <anchor x="255" y="0" name="bottom"/>
  <anchor x="255" y="500" name="top"/>
  <outline>
    <contour>
      <point x="245" y="-12" type="qcurve" smooth="yes"/>
      <point x="306" y="-12"/>
      <point x="396" y="12"/>
      <point x="460" y="88"/>
      <point x="460" y="160" type="qcurve"/>
      <point x="324" y="160" type="line"/>
      <point x="326" y="134"/>
      <point x="306" y="109"/>
      <point x="273" y="100"/>
      <point x="249" y="100" type="qcurve" smooth="yes"/>
      <point x="229" y="100"/>
      <point x="199" y="112"/>
      <point x="188" y="132"/>
      <point x="188" y="144" type="qcurve" smooth="yes"/>
      <point x="188" y="162"/>
      <point x="211" y="188"/>
      <point x="235" y="192" type="qcurve" smooth="yes"/>
      <point x="304" y="202" type="line" smooth="yes"/>
      <point x="384" y="214"/>
      <point x="460" y="281"/>
      <point x="460" y="348" type="qcurve" smooth="yes"/>
      <point x="460" y="398"/>
      <point x="412" y="470"/>
      <point x="318" y="512"/>
      <point x="258" y="512" type="qcurve" smooth="yes"/>
      <point x="194" y="512"/>
      <point x="102" y="474"/>
      <point x="47" y="400"/>
      <point x="47" y="340" type="qcurve"/>
      <point x="185" y="340" type="line"/>
      <point x="183" y="362"/>
      <point x="199" y="388"/>
      <point x="230" y="400"/>
      <point x="252" y="400" type="qcurve" smooth="yes"/>
      <point x="270" y="400"/>
      <point x="296" y="390"/>
      <point x="310" y="370"/>
      <point x="310" y="354" type="qcurve" smooth="yes"/>
      <point x="310" y="338"/>
      <point x="287" y="313"/>
      <point x="263" y="309" type="qcurve" smooth="yes"/>
      <point x="195" y="297" type="line" smooth="yes"/>
      <point x="114" y="283"/>
      <point x="38" y="221"/>
      <point x="38" y="158" type="qcurve" smooth="yes"/>
      <point x="38" y="98"/>
      <point x="93" y="22"/>
      <point x="185" y="-12"/>
    </contour>
  </outline>
</glyph>
<glyph name="geupturn-cy.ss02" format="2">
  <advance width="444"/>
  <outline>
    <contour>
      <point x="56" y="0" type="line"/>
      <point x="198" y="0" type="line"/>
      <point x="198" y="324" type="line" smooth="yes"/>
      <point x="198" y="351"/>
      <point x="221" y="376"/>
      <point x="248" y="376" type="qcurve" smooth="yes"/>
      <point x="284" y="376" type="line" smooth="yes"/>
      <point x="424" y="376"/>
      <point x="424" y="550" type="qcurve" smooth="yes"/>
      <point x="424" y="640" type="line"/>
      <point x="304" y="640" type="line"/>
      <point x="304" y="560" type="line" smooth="yes"/>
      <point x="304" y="500"/>
      <point x="244" y="500" type="qcurve" smooth="yes"/>
      <point x="210" y="500" type="line" smooth="yes"/>
      <point x="128" y="500"/>
      <point x="56" y="429"/>
      <point x="56" y="352" type="qcurve" smooth="yes"/>
    </contour>
  </outline>
</glyph>
<glyph name="hook-1" format="2">
  <advance width="280"/>
  <outline>
    <contour>
      <point x="13" y="-200" type="line"/>
      <point x="110" y="-200" type="line" smooth="yes"/>
      <point x="196" y="-200"/>
      <point x="273" y="-124"/>
      <point x="273" y="-48" type="qcurve" smooth="yes"/>
      <point x="273" y="40" type="line"/>
      <point x="123" y="0" type="line"/>
      <point x="123" y="-28" type="line" smooth="yes"/>
      <point x="123" y="-54"/>
      <point x="99" y="-76"/>
      <point x="75" y="-76" type="qcurve" smooth="yes"/>
      <point x="13" y="-76" type="line"/>
    </contour>
  </outline>
</glyph>
<glyph name="ka-cy.ss01" format="2">
  <advance width="570"/>
  <anchor x="264" y="500" name="top"/>
  <outline>
    <contour>
      <point x="56" y="0" type="line"/>
      <point x="196" y="0" type="line"/>
      <point x="196" y="500" type="line"/>
      <point x="56" y="500" type="line"/>
    </contour>
    <contour>
      <point x="120" y="310" type="line"/>
      <point x="120" y="196" type="line"/>
      <point x="280" y="196" type="line" smooth="yes"/>
      <point x="308" y="196"/>
      <point x="334" y="168"/>
      <point x="334" y="136" type="qcurve" smooth="yes"/>
      <point x="334" y="90" type="line" smooth="yes"/>
      <point x="334" y="0"/>
      <point x="434" y="0" type="qcurve" smooth="yes"/>
      <point x="530" y="0" type="line"/>
      <point x="530" y="102" type="line"/>
      <point x="488" y="102" type="line" smooth="yes"/>
      <point x="460" y="102"/>
      <point x="460" y="130" type="qcurve" smooth="yes"/>
      <point x="460" y="176" type="line" smooth="yes"/>
      <point x="460" y="208"/>
      <point x="430" y="242"/>
      <point x="406" y="250" type="qcurve"/>
      <point x="430" y="258"/>
      <point x="458" y="292"/>
      <point x="458" y="324" type="qcurve" smooth="yes"/>
      <point x="458" y="370" type="line" smooth="yes"/>
      <point x="458" y="398"/>
      <point x="486" y="398" type="qcurve" smooth="yes"/>
      <point x="530" y="398" type="line"/>
      <point x="530" y="500" type="line"/>
      <point x="432" y="500" type="line" smooth="yes"/>
      <point x="332" y="500"/>
      <point x="332" y="410" type="qcurve" smooth="yes"/>
      <point x="332" y="364" type="line" smooth="yes"/>
      <point x="332" y="336"/>
      <point x="308" y="310"/>
      <point x="282" y="310" type="qcurve" smooth="yes"/>
    </contour>
  </outline>
</glyph>
<glyph name="kadescender-cy.ss01" format="2">
  <advance width="600"/>
  <anchor x="264" y="500" name="top"/>
  <outline>
    <contour>
      <point x="446" y="-160" type="line"/>
      <point x="576" y="-160" type="line"/>
      <point x="576" y="112" type="line"/>
      <point x="480" y="112" type="line"/>
      <point x="480" y="0" type="line"/>
      <point x="446" y="0" type="line"/>
    </contour>
    <component base="ka-cy.ss01"/>
  </outline>
</glyph>
<glyph name="kaverticalstroke-cy.ss01" format="2">
  <advance width="600"/>
  <outline>
    <contour>
      <point x="56" y="0" type="line"/>
      <point x="194" y="0" type="line"/>
      <point x="194" y="196" type="line"/>
      <point x="260" y="196" type="line"/>
      <point x="260" y="100" type="line"/>
      <point x="340" y="100" type="line"/>
      <point x="340" y="196" type="line"/>
      <point x="344" y="196" type="line" smooth="yes"/>
      <point x="381" y="196"/>
      <point x="398" y="179"/>
      <point x="398" y="136" type="curve" smooth="yes"/>
      <point x="398" y="100" type="line" smooth="yes"/>
      <point x="398" y="33"/>
      <point x="431" y="0"/>
      <point x="498" y="0" type="curve" smooth="yes"/>
      <point x="584" y="0" type="line"/>
      <point x="584" y="112" type="line"/>
      <point x="552" y="112" type="line" smooth="yes"/>
      <point x="533" y="112"/>
      <point x="524" y="121"/>
      <point x="524" y="140" type="curve" smooth="yes"/>
      <point x="524" y="176" type="line" smooth="yes"/>
      <point x="524" y="219"/>
      <point x="507" y="238"/>
      <point x="462" y="250" type="curve"/>
      <point x="502" y="254"/>
      <point x="522" y="279"/>
      <point x="522" y="324" type="curve" smooth="yes"/>
      <point x="522" y="360" type="line" smooth="yes"/>
      <point x="522" y="379"/>
      <point x="531" y="388"/>
      <point x="550" y="388" type="curve" smooth="yes"/>
      <point x="584" y="388" type="line"/>
      <point x="584" y="500" type="line"/>
      <point x="496" y="500" type="line" smooth="yes"/>
      <point x="429" y="500"/>
      <point x="396" y="467"/>
      <point x="396" y="400" type="curve" smooth="yes"/>
      <point x="396" y="364" type="line" smooth="yes"/>
      <point x="396" y="328"/>
      <point x="379" y="310"/>
      <point x="346" y="310" type="curve" smooth="yes"/>
      <point x="340" y="310" type="line"/>
      <point x="340" y="420" type="line"/>
      <point x="260" y="420" type="line"/>
      <point x="260" y="310" type="line"/>
      <point x="194" y="310" type="line"/>
      <point x="194" y="500" type="line"/>
      <point x="56" y="500" type="line"/>
    </contour>
  </outline>
</glyph>
<glyph name="one.osf" format="2">
  <advance width="454"/>
  <outline>
    <contour>
      <point x="214" y="0" type="line"/>
      <point x="366" y="0" type="line"/>
      <point x="366" y="500" type="line"/>
      <point x="236" y="500" type="line"/>
      <point x="40" y="366" type="line"/>
      <point x="40" y="232" type="line"/>
      <point x="214" y="343" type="line"/>
    </contour>
  </outline>
</glyph>
<glyph name="parenleft.case" format="2">
  <advance width="400"/>
  <outline>
    <contour>
      <point x="400" y="-180" type="qcurve"/>
      <point x="400" y="-60" type="line"/>
      <point x="352" y="-60"/>
      <point x="258" y="14"/>
      <point x="202" y="139"/>
      <point x="182" y="268"/>
      <point x="182" y="338" type="qcurve" smooth="yes"/>
      <point x="182" y="342" type="line" smooth="yes"/>
      <point x="182" y="412"/>
      <point x="202" y="540"/>
      <point x="258" y="666"/>
      <point x="352" y="740"/>
      <point x="400" y="740" type="qcurve"/>
      <point x="400" y="860" type="line"/>
      <point x="300" y="860"/>
      <point x="138" y="734"/>
      <point x="64" y="574"/>
      <point x="40" y="422"/>
      <point x="40" y="342" type="qcurve" smooth="yes"/>
      <point x="40" y="338" type="line" smooth="yes"/>
      <point x="40" y="258"/>
      <point x="64" y="106"/>
      <point x="138" y="-54"/>
      <point x="300" y="-180"/>
    </contour>
  </outline>
</glyph>
<glyph name="paunch-1" format="2">
  <advance width="474"/>
  <outline>
    <contour>
      <point x="98" y="-180" type="line"/>
      <point x="143" y="-180" type="line" smooth="yes"/>
      <point x="237" y="-180"/>
      <point x="350" y="-106"/>
      <point x="404" y="34"/>
      <point x="404" y="126" type="qcurve" smooth="yes"/>
      <point x="404" y="220"/>
      <point x="348" y="354"/>
      <point x="236" y="420"/>
      <point x="166" y="420" type="qcurve" smooth="yes"/>
      <point x="118" y="420"/>
      <point x="40" y="400"/>
      <point x="20" y="390" type="qcurve"/>
      <point x="20" y="262" type="line"/>
      <point x="39" y="275"/>
      <point x="93" y="292"/>
      <point x="123" y="292" type="qcurve" smooth="yes"/>
      <point x="171" y="292"/>
      <point x="231" y="252"/>
      <point x="254" y="178"/>
      <point x="254" y="126" type="qcurve" smooth="yes"/>
      <point x="254" y="64"/>
      <point x="230" y="-16"/>
      <point x="170" y="-60"/>
      <point x="114" y="-60" type="qcurve" smooth="yes"/>
      <point x="98" y="-60" type="line"/>
    </contour>
  </outline>
</glyph>
<glyph name="paunch-2" format="2">
  <advance width="380"/>
  <outline>
    <contour>
      <point x="66" y="-160" type="line"/>
      <point x="98" y="-160" type="line" smooth="yes"/>
      <point x="185" y="-160"/>
      <point x="289" y="-107"/>
      <point x="342" y="0"/>
      <point x="342" y="68" type="qcurve" smooth="yes"/>
      <point x="342" y="136"/>
      <point x="294" y="238"/>
      <point x="194" y="296"/>
      <point x="120" y="296" type="qcurve" smooth="yes"/>
      <point x="93" y="296"/>
      <point x="34" y="281"/>
      <point x="18" y="273" type="qcurve"/>
      <point x="18" y="156" type="line"/>
      <point x="34" y="164"/>
      <point x="74" y="176"/>
      <point x="100" y="176" type="qcurve" smooth="yes"/>
      <point x="136" y="176"/>
      <point x="180" y="150"/>
      <point x="200" y="104"/>
      <point x="200" y="68" type="qcurve" smooth="yes"/>
      <point x="200" y="32"/>
      <point x="176" y="-18"/>
      <point x="126" y="-48"/>
      <point x="86" y="-48" type="qcurve" smooth="yes"/>
      <point x="66" y="-48" type="line"/>
    </contour>
  </outline>
</glyph>
<glyph name="shcha-cy.loclBGR" format="2">
  <advance width="912"/>
  <outline>
    <contour>
      <point x="219" y="-10" type="qcurve" smooth="yes"/>
      <point x="272" y="-10"/>
      <point x="346" y="35"/>
      <point x="371" y="84" type="qcurve"/>
      <point x="384" y="39"/>
      <point x="453" y="-10"/>
      <point x="506" y="-10" type="qcurve" smooth="yes"/>
      <point x="559" y="-10"/>
      <point x="637" y="40"/>
      <point x="652" y="90" type="qcurve"/>
      <point x="656" y="46"/>
      <point x="710" y="0"/>
      <point x="758" y="0" type="qcurve"/>
      <point x="758" y="-160" type="line"/>
      <point x="888" y="-160" type="line"/>
      <point x="888" y="128" type="line"/>
      <point x="833" y="128" type="line" smooth="yes"/>
      <point x="808" y="128"/>
      <point x="784" y="151"/>
      <point x="784" y="178" type="qcurve" smooth="yes"/>
      <point x="784" y="500" type="line"/>
      <point x="642" y="500" type="line"/>
      <point x="642" y="220" type="line" smooth="yes"/>
      <point x="642" y="171"/>
      <point x="591" y="113"/>
      <point x="549" y="113" type="qcurve" smooth="yes"/>
      <point x="521" y="113"/>
      <point x="490" y="150"/>
      <point x="490" y="194" type="qcurve" smooth="yes"/>
      <point x="490" y="500" type="line"/>
      <point x="348" y="500" type="line"/>
      <point x="348" y="220" type="line" smooth="yes"/>
      <point x="348" y="171"/>
      <point x="299" y="113"/>
      <point x="257" y="113" type="qcurve" smooth="yes"/>
      <point x="225" y="113"/>
      <point x="196" y="153"/>
      <point x="196" y="194" type="qcurve" smooth="yes"/>
      <point x="196" y="500" type="line"/>
      <point x="54" y="500" type="line"/>
      <point x="54" y="177" type="line" smooth="yes"/>
      <point x="54" y="85"/>
      <point x="137" y="-10"/>
    </contour>
  </outline>
</glyph>
<glyph name="t.ss02" format="2">
  <advance width="380"/>
  <anchor x="189" y="0" name="bottom"/>
  <anchor x="190" y="620" name="top"/>
  <anchor x="285" y="720" name="topright"/>
  <outline>
    <contour>
      <point x="119" y="0" type="line"/>
      <point x="261" y="0" type="line"/>
      <point x="261" y="380" type="line"/>
      <point x="360" y="380" type="line"/>
      <point x="360" y="500" type="line"/>
      <point x="261" y="500" type="line"/>
      <point x="261" y="620" type="line"/>
      <point x="119" y="620" type="line"/>
      <point x="119" y="500" type="line"/>
      <point x="20" y="500" type="line"/>
      <point x="20" y="380" type="line"/>
      <point x="119" y="380" type="line"/>
    </contour>
  </outline>
</glyph>
<glyph name="tbar.ss02" format="2">
  <advance width="380"/>
  <anchor x="189" y="0" name="bottom"/>
  <anchor x="190" y="620" name="top"/>
  <anchor x="285" y="720" name="topright"/>
  <outline>
    <contour>
      <point x="20" y="190" type="line"/>
      <point x="360" y="190" type="line"/>
      <point x="360" y="270" type="line"/>
      <point x="20" y="270" type="line"/>
    </contour>
    <component base="t.ss02"/>
  </outline>
</glyph>
<glyph name="tildecomb.narrow" format="2">
  <anchor x="200" y="500" name="_top"/>
  <anchor x="200" y="720" name="top"/>
  <outline>
    <contour>
      <point x="260" y="562" type="qcurve" smooth="yes"/>
      <point x="292" y="562"/>
      <point x="332" y="595"/>
      <point x="346" y="660"/>
      <point x="332" y="720" type="qcurve"/>
      <point x="248" y="720" type="line"/>
      <point x="254" y="704"/>
      <point x="260" y="678"/>
      <point x="258" y="660"/>
      <point x="246" y="660" type="qcurve" smooth="yes"/>
      <point x="234" y="660"/>
      <point x="206" y="703"/>
      <point x="168" y="728"/>
      <point x="140" y="728" type="qcurve" smooth="yes"/>
      <point x="108" y="728"/>
      <point x="67" y="695"/>
      <point x="54" y="630"/>
      <point x="68" y="570" type="qcurve"/>
      <point x="152" y="570" type="line"/>
      <point x="146" y="586"/>
      <point x="140" y="612"/>
      <point x="142" y="630"/>
      <point x="154" y="630" type="qcurve" smooth="yes"/>
      <point x="166" y="630"/>
      <point x="194" y="587"/>
      <point x="232" y="562"/>
    </contour>
  </outline>
</glyph>
<glyph name="tse-cy.loclBGR" format="2">
  <advance width="632"/>
  <outline>
    <contour>
      <point x="222" y="-10" type="qcurve"/>
      <point x="278" y="-10"/>
      <point x="358" y="35"/>
      <point x="384" y="87" type="qcurve"/>
      <point x="388" y="45"/>
      <point x="430" y="0"/>
      <point x="478" y="0" type="qcurve"/>
      <point x="478" y="-160" type="line"/>
      <point x="608" y="-160" type="line"/>
      <point x="608" y="128" type="line"/>
      <point x="553" y="128" type="line" smooth="yes"/>
      <point x="528" y="128"/>
      <point x="504" y="151"/>
      <point x="504" y="178" type="qcurve" smooth="yes"/>
      <point x="504" y="500" type="line"/>
      <point x="362" y="500" type="line"/>
      <point x="362" y="240" type="line" smooth="yes"/>
      <point x="362" y="180"/>
      <point x="310" y="118"/>
      <point x="266" y="118" type="qcurve"/>
      <point x="230" y="118"/>
      <point x="196" y="158"/>
      <point x="196" y="200" type="qcurve" smooth="yes"/>
      <point x="196" y="500" type="line"/>
      <point x="54" y="500" type="line"/>
      <point x="54" y="186" type="line" smooth="yes"/>
      <point x="54" y="90"/>
      <point x="134" y="-10"/>
    </contour>
  </outline>
</glyph>
<glyph name="ve-cy.loclBGR" format="2">
  <advance width="528"/>
  <outline>
    <contour>
      <point x="271" y="-8" type="qcurve" smooth="yes"/>
      <point x="378" y="-8"/>
      <point x="488" y="98"/>
      <point x="488" y="200" type="qcurve" smooth="yes"/>
      <point x="488" y="260"/>
      <point x="426" y="351"/>
      <point x="366" y="369" type="qcurve"/>
      <point x="414" y="385"/>
      <point x="465" y="472"/>
      <point x="465" y="530" type="qcurve" smooth="yes"/>
      <point x="465" y="623"/>
      <point x="358" y="726"/>
      <point x="264" y="726" type="qcurve" smooth="yes"/>
      <point x="164" y="726"/>
      <point x="54" y="623"/>
      <point x="54" y="502" type="qcurve" smooth="yes"/>
      <point x="54" y="220" type="line" smooth="yes"/>
      <point x="54" y="98"/>
      <point x="155" y="-8"/>
    </contour>
    <contour>
      <point x="268" y="112" type="qcurve" smooth="yes"/>
      <point x="227" y="112"/>
      <point x="194" y="156"/>
      <point x="194" y="210" type="qcurve" smooth="yes"/>
      <point x="194" y="305" type="line"/>
      <point x="249" y="305" type="line" smooth="yes"/>
      <point x="301" y="305"/>
      <point x="346" y="258"/>
      <point x="346" y="204" type="qcurve" smooth="yes"/>
      <point x="346" y="156"/>
      <point x="308" y="112"/>
    </contour>
    <contour>
      <point x="194" y="425" type="line"/>
      <point x="194" y="530" type="line" smooth="yes"/>
      <point x="194" y="566"/>
      <point x="227" y="606"/>
      <point x="256" y="606" type="qcurve" smooth="yes"/>
      <point x="291" y="606"/>
      <point x="323" y="561"/>
      <point x="323" y="515" type="qcurve" smooth="yes"/>
      <point x="323" y="467"/>
      <point x="286" y="425"/>
      <point x="244" y="425" type="qcurve" smooth="yes"/>
    </contour>
  </outline>
</glyph>
<glyph name="vertical.3" format="2">
  <advance width="240"/>
  <outline>
    <contour>
      <point x="100" y="-140" type="line"/>
      <point x="230" y="-140" type="line"/>
      <point x="230" y="128" type="line"/>
      <point x="175" y="128" type="line" smooth="yes"/>
      <point x="151" y="128"/>
      <point x="131" y="157"/>
      <point x="131" y="188" type="qcurve"/>
      <point x="10" y="188" type="line"/>
      <point x="10" y="108" type="line" smooth="yes"/>
      <point x="10" y="61"/>
      <point x="59" y="0"/>
      <point x="100" y="0" type="qcurve"/>
    </contour>
  </outline>
</glyph>
<glyph name="ze-cy.loclBGR" format="2">
  <advance width="520"/>
  <outline>
    <contour>
      <point x="256" y="-212" type="qcurve" smooth="yes"/>
      <point x="326" y="-212"/>
      <point x="434" y="-162"/>
      <point x="496" y="-68"/>
      <point x="496" y="-4" type="qcurve" smooth="yes"/>
      <point x="496" y="52"/>
      <point x="456" y="128"/>
      <point x="393" y="173"/>
      <point x="355" y="181" type="qcurve"/>
      <point x="393" y="193"/>
      <point x="441" y="230"/>
      <point x="470" y="285"/>
      <point x="470" y="328" type="qcurve" smooth="yes"/>
      <point x="470" y="383"/>
      <point x="421" y="463"/>
      <point x="323" y="512"/>
      <point x="257" y="512" type="qcurve" smooth="yes"/>
      <point x="193" y="512"/>
      <point x="93" y="472"/>
      <point x="33" y="388"/>
      <point x="31" y="340" type="qcurve"/>
      <point x="169" y="340" type="line"/>
      <point x="169" y="360"/>
      <point x="191" y="388"/>
      <point x="224" y="400"/>
      <point x="248" y="400" type="qcurve" smooth="yes"/>
      <point x="273" y="400"/>
      <point x="306" y="385"/>
      <point x="328" y="349"/>
      <point x="328" y="318" type="qcurve" smooth="yes"/>
      <point x="328" y="288"/>
      <point x="306" y="249"/>
      <point x="261" y="226"/>
      <point x="216" y="226" type="qcurve" smooth="yes"/>
      <point x="156" y="226" type="line"/>
      <point x="156" y="114" type="line"/>
      <point x="216" y="114" type="line" smooth="yes"/>
      <point x="261" y="114"/>
      <point x="323" y="89"/>
      <point x="354" y="36"/>
      <point x="354" y="4" type="qcurve" smooth="yes"/>
      <point x="354" y="-32"/>
      <point x="330" y="-77"/>
      <point x="284" y="-102"/>
      <point x="252" y="-102" type="qcurve" smooth="yes"/>
      <point x="221" y="-102"/>
      <point x="183" y="-90"/>
      <point x="160" y="-60"/>
      <point x="160" y="-40" type="qcurve"/>
      <point x="16" y="-40" type="line"/>
      <point x="18" y="-98"/>
      <point x="92" y="-182"/>
      <point x="194" y="-212"/>
    </contour>
  </outline>
</glyph>
<glyph name="zero.osf.cv02" format="2">
  <advance width="586"/>
  <outline>
    <contour>
      <point x="171" y="71" type="line"/>
      <point x="481" y="330" type="line"/>
      <point x="421" y="409" type="line"/>
      <point x="111" y="150" type="line"/>
    </contour>
    <component base="zero.osf"/>
  </outline>
</glyph>
<glyph name="zero.osf" format="2">
  <advance width="580"/>
  <outline>
    <contour>
      <point x="290" y="-12" type="qcurve" smooth="yes"/>
      <point x="410" y="-12"/>
      <point x="542" y="120"/>
      <point x="542" y="240" type="qcurve" smooth="yes"/>
      <point x="542" y="260" type="line" smooth="yes"/>
      <point x="542" y="380"/>
      <point x="410" y="512"/>
      <point x="290" y="512" type="qcurve" smooth="yes"/>
      <point x="170" y="512"/>
      <point x="38" y="380"/>
      <point x="38" y="260" type="qcurve" smooth="yes"/>
      <point x="38" y="240" type="line" smooth="yes"/>
      <point x="38" y="120"/>
      <point x="170" y="-12"/>
    </contour>
    <contour>
      <point x="290" y="108" type="qcurve" smooth="yes"/>
      <point x="240" y="108"/>
      <point x="190" y="167"/>
      <point x="190" y="230" type="qcurve" smooth="yes"/>
      <point x="190" y="270" type="line" smooth="yes"/>
      <point x="190" y="329"/>
      <point x="242" y="392"/>
      <point x="290" y="392" type="qcurve" smooth="yes"/>
      <point x="338" y="392"/>
      <point x="390" y="329"/>
      <point x="390" y="270" type="qcurve" smooth="yes"/>
      <point x="390" y="230" type="line" smooth="yes"/>
      <point x="390" y="167"/>
      <point x="341" y="108"/>
    </contour>
  </outline>
</glyph>
<glyph name="zhe-cy.loclBGR.ss01" format="2">
  <advance width="860"/>
  <anchor x="430" y="500" name="top"/>
  <outline>
    <contour>
      <point x="360" y="0" type="line"/>
      <point x="500" y="0" type="line"/>
      <point x="500" y="720" type="line"/>
      <point x="360" y="720" type="line"/>
    </contour>
    <contour>
      <point x="40" y="0" type="line"/>
      <point x="136" y="0" type="line" smooth="yes"/>
      <point x="236" y="0"/>
      <point x="236" y="90" type="qcurve" smooth="yes"/>
      <point x="236" y="136" type="line" smooth="yes"/>
      <point x="236" y="168"/>
      <point x="262" y="196"/>
      <point x="290" y="196" type="qcurve" smooth="yes"/>
      <point x="570" y="196" type="line" smooth="yes"/>
      <point x="598" y="196"/>
      <point x="624" y="168"/>
      <point x="624" y="136" type="qcurve" smooth="yes"/>
      <point x="624" y="90" type="line" smooth="yes"/>
      <point x="624" y="0"/>
      <point x="724" y="0" type="qcurve" smooth="yes"/>
      <point x="820" y="0" type="line"/>
      <point x="820" y="102" type="line"/>
      <point x="778" y="102" type="line" smooth="yes"/>
      <point x="750" y="102"/>
      <point x="750" y="130" type="qcurve" smooth="yes"/>
      <point x="750" y="176" type="line" smooth="yes"/>
      <point x="750" y="208"/>
      <point x="720" y="242"/>
      <point x="696" y="250" type="qcurve"/>
      <point x="720" y="258"/>
      <point x="748" y="292"/>
      <point x="748" y="324" type="qcurve" smooth="yes"/>
      <point x="748" y="370" type="line" smooth="yes"/>
      <point x="748" y="398"/>
      <point x="776" y="398" type="qcurve" smooth="yes"/>
      <point x="820" y="398" type="line"/>
      <point x="820" y="500" type="line"/>
      <point x="722" y="500" type="line" smooth="yes"/>
      <point x="622" y="500"/>
      <point x="622" y="410" type="qcurve" smooth="yes"/>
      <point x="622" y="364" type="line" smooth="yes"/>
      <point x="622" y="336"/>
      <point x="598" y="310"/>
      <point x="572" y="310" type="qcurve" smooth="yes"/>
      <point x="288" y="310" type="line" smooth="yes"/>
      <point x="262" y="310"/>
      <point x="238" y="336"/>
      <point x="238" y="364" type="qcurve" smooth="yes"/>
      <point x="238" y="410" type="line" smooth="yes"/>
      <point x="238" y="500"/>
      <point x="138" y="500" type="qcurve" smooth="yes"/>
      <point x="40" y="500" type="line"/>
      <point x="40" y="398" type="line"/>
      <point x="84" y="398" type="line" smooth="yes"/>
      <point x="112" y="398"/>
      <point x="112" y="370" type="qcurve" smooth="yes"/>
      <point x="112" y="324" type="line" smooth="yes"/>
      <point x="112" y="292"/>
      <point x="140" y="258"/>
      <point x="164" y="250" type="qcurve"/>
      <point x="140" y="242"/>
      <point x="110" y="208"/>
      <point x="110" y="176" type="qcurve" smooth="yes"/>
      <point x="110" y="130" type="line" smooth="yes"/>
      <point x="110" y="102"/>
      <point x="82" y="102" type="qcurve" smooth="yes"/>
      <point x="40" y="102" type="line"/>
    </contour>
  </outline>
</glyph>
<glyph name="zhedescender-cy.ss01" format="2">
  <advance width="910"/>
  <anchor x="430" y="500" name="top"/>
  <outline>
    <contour>
      <point x="740" y="-160" type="line"/>
      <point x="870" y="-160" type="line"/>
      <point x="870" y="112" type="line"/>
      <point x="768" y="112" type="line"/>
      <point x="768" y="0" type="line"/>
      <point x="740" y="0" type="line"/>
    </contour>
    <component base="zhe-cy.ss01"/>
  </outline>
</glyph>
